G04 #@! TF.GenerationSoftware,KiCad,Pcbnew,(5.0.2-5)-5*
G04 #@! TF.CreationDate,2019-06-28T16:40:31+03:00*
G04 #@! TF.ProjectId,bike_motor_shim,62696b65-5f6d-46f7-946f-725f7368696d,rev?*
G04 #@! TF.SameCoordinates,Original*
G04 #@! TF.FileFunction,Soldermask,Bot*
G04 #@! TF.FilePolarity,Negative*
%FSLAX46Y46*%
G04 Gerber Fmt 4.6, Leading zero omitted, Abs format (unit mm)*
G04 Created by KiCad (PCBNEW (5.0.2-5)-5) date 2019 June 28, Friday 16:40:31*
%MOMM*%
%LPD*%
G01*
G04 APERTURE LIST*
%ADD10C,0.100000*%
G04 APERTURE END LIST*
D10*
G36*
X151163643Y-125594781D02*
X151309415Y-125655162D01*
X151440611Y-125742824D01*
X151552176Y-125854389D01*
X151639838Y-125985585D01*
X151700219Y-126131357D01*
X151731000Y-126286107D01*
X151731000Y-126443893D01*
X151700219Y-126598643D01*
X151639838Y-126744415D01*
X151552176Y-126875611D01*
X151440611Y-126987176D01*
X151309415Y-127074838D01*
X151163643Y-127135219D01*
X151008893Y-127166000D01*
X150851107Y-127166000D01*
X150696357Y-127135219D01*
X150550585Y-127074838D01*
X150419389Y-126987176D01*
X150307824Y-126875611D01*
X150220162Y-126744415D01*
X150159781Y-126598643D01*
X150129000Y-126443893D01*
X150129000Y-126286107D01*
X150159781Y-126131357D01*
X150220162Y-125985585D01*
X150307824Y-125854389D01*
X150419389Y-125742824D01*
X150550585Y-125655162D01*
X150696357Y-125594781D01*
X150851107Y-125564000D01*
X151008893Y-125564000D01*
X151163643Y-125594781D01*
X151163643Y-125594781D01*
G37*
G36*
X146283643Y-125594781D02*
X146429415Y-125655162D01*
X146560611Y-125742824D01*
X146672176Y-125854389D01*
X146759838Y-125985585D01*
X146820219Y-126131357D01*
X146851000Y-126286107D01*
X146851000Y-126443893D01*
X146820219Y-126598643D01*
X146759838Y-126744415D01*
X146672176Y-126875611D01*
X146560611Y-126987176D01*
X146429415Y-127074838D01*
X146283643Y-127135219D01*
X146128893Y-127166000D01*
X145971107Y-127166000D01*
X145816357Y-127135219D01*
X145670585Y-127074838D01*
X145539389Y-126987176D01*
X145427824Y-126875611D01*
X145340162Y-126744415D01*
X145279781Y-126598643D01*
X145249000Y-126443893D01*
X145249000Y-126286107D01*
X145279781Y-126131357D01*
X145340162Y-125985585D01*
X145427824Y-125854389D01*
X145539389Y-125742824D01*
X145670585Y-125655162D01*
X145816357Y-125594781D01*
X145971107Y-125564000D01*
X146128893Y-125564000D01*
X146283643Y-125594781D01*
X146283643Y-125594781D01*
G37*
G36*
X162173600Y-124197989D02*
X162206649Y-124208014D01*
X162237106Y-124224294D01*
X162263799Y-124246201D01*
X162285706Y-124272894D01*
X162301986Y-124303351D01*
X162312011Y-124336400D01*
X162316000Y-124376904D01*
X162316000Y-125813096D01*
X162312011Y-125853600D01*
X162301986Y-125886649D01*
X162285706Y-125917106D01*
X162263799Y-125943799D01*
X162237106Y-125965706D01*
X162206649Y-125981986D01*
X162173600Y-125992011D01*
X162133096Y-125996000D01*
X160446904Y-125996000D01*
X160406400Y-125992011D01*
X160373351Y-125981986D01*
X160342894Y-125965706D01*
X160316201Y-125943799D01*
X160294294Y-125917106D01*
X160278014Y-125886649D01*
X160267989Y-125853600D01*
X160264000Y-125813096D01*
X160264000Y-124376904D01*
X160267989Y-124336400D01*
X160278014Y-124303351D01*
X160294294Y-124272894D01*
X160316201Y-124246201D01*
X160342894Y-124224294D01*
X160373351Y-124208014D01*
X160406400Y-124197989D01*
X160446904Y-124194000D01*
X162133096Y-124194000D01*
X162173600Y-124197989D01*
X162173600Y-124197989D01*
G37*
G36*
X139935443Y-124000519D02*
X140001627Y-124007037D01*
X140114853Y-124041384D01*
X140171467Y-124058557D01*
X140310087Y-124132652D01*
X140327991Y-124142222D01*
X140363729Y-124171552D01*
X140465186Y-124254814D01*
X140532141Y-124336400D01*
X140577778Y-124392009D01*
X140577779Y-124392011D01*
X140661443Y-124548533D01*
X140661443Y-124548534D01*
X140712963Y-124718373D01*
X140730359Y-124895000D01*
X140712963Y-125071627D01*
X140678616Y-125184853D01*
X140661443Y-125241467D01*
X140587348Y-125380087D01*
X140577778Y-125397991D01*
X140548448Y-125433729D01*
X140465186Y-125535186D01*
X140363729Y-125618448D01*
X140327991Y-125647778D01*
X140327989Y-125647779D01*
X140171467Y-125731443D01*
X140133948Y-125742824D01*
X140001627Y-125782963D01*
X139935442Y-125789482D01*
X139869260Y-125796000D01*
X139530740Y-125796000D01*
X139464558Y-125789482D01*
X139398373Y-125782963D01*
X139266052Y-125742824D01*
X139228533Y-125731443D01*
X139072011Y-125647779D01*
X139072009Y-125647778D01*
X139036271Y-125618448D01*
X138934814Y-125535186D01*
X138851552Y-125433729D01*
X138822222Y-125397991D01*
X138812652Y-125380087D01*
X138738557Y-125241467D01*
X138721384Y-125184853D01*
X138687037Y-125071627D01*
X138669641Y-124895000D01*
X138687037Y-124718373D01*
X138738557Y-124548534D01*
X138738557Y-124548533D01*
X138822221Y-124392011D01*
X138822222Y-124392009D01*
X138867859Y-124336400D01*
X138934814Y-124254814D01*
X139036271Y-124171552D01*
X139072009Y-124142222D01*
X139089913Y-124132652D01*
X139228533Y-124058557D01*
X139285147Y-124041384D01*
X139398373Y-124007037D01*
X139464557Y-124000519D01*
X139530740Y-123994000D01*
X139869260Y-123994000D01*
X139935443Y-124000519D01*
X139935443Y-124000519D01*
G37*
G36*
X161525442Y-121700518D02*
X161591627Y-121707037D01*
X161704853Y-121741384D01*
X161761467Y-121758557D01*
X161900087Y-121832652D01*
X161917991Y-121842222D01*
X161953729Y-121871552D01*
X162055186Y-121954814D01*
X162132098Y-122048533D01*
X162167778Y-122092009D01*
X162167779Y-122092011D01*
X162251443Y-122248533D01*
X162251443Y-122248534D01*
X162302963Y-122418373D01*
X162320359Y-122595000D01*
X162302963Y-122771627D01*
X162268616Y-122884853D01*
X162251443Y-122941467D01*
X162201349Y-123035185D01*
X162167778Y-123097991D01*
X162138448Y-123133729D01*
X162055186Y-123235186D01*
X161953729Y-123318448D01*
X161917991Y-123347778D01*
X161917989Y-123347779D01*
X161761467Y-123431443D01*
X161704853Y-123448616D01*
X161591627Y-123482963D01*
X161525442Y-123489482D01*
X161459260Y-123496000D01*
X161120740Y-123496000D01*
X161054558Y-123489482D01*
X160988373Y-123482963D01*
X160875147Y-123448616D01*
X160818533Y-123431443D01*
X160662011Y-123347779D01*
X160662009Y-123347778D01*
X160626271Y-123318448D01*
X160524814Y-123235186D01*
X160441552Y-123133729D01*
X160412222Y-123097991D01*
X160378651Y-123035185D01*
X160328557Y-122941467D01*
X160311384Y-122884853D01*
X160277037Y-122771627D01*
X160259641Y-122595000D01*
X160277037Y-122418373D01*
X160328557Y-122248534D01*
X160328557Y-122248533D01*
X160412221Y-122092011D01*
X160412222Y-122092009D01*
X160447902Y-122048533D01*
X160524814Y-121954814D01*
X160626271Y-121871552D01*
X160662009Y-121842222D01*
X160679913Y-121832652D01*
X160818533Y-121758557D01*
X160875147Y-121741384D01*
X160988373Y-121707037D01*
X161054558Y-121700518D01*
X161120740Y-121694000D01*
X161459260Y-121694000D01*
X161525442Y-121700518D01*
X161525442Y-121700518D01*
G37*
G36*
X139935443Y-121500519D02*
X140001627Y-121507037D01*
X140114853Y-121541384D01*
X140171467Y-121558557D01*
X140310087Y-121632652D01*
X140327991Y-121642222D01*
X140363729Y-121671552D01*
X140465186Y-121754814D01*
X140536918Y-121842221D01*
X140577778Y-121892009D01*
X140577779Y-121892011D01*
X140661443Y-122048533D01*
X140661443Y-122048534D01*
X140712963Y-122218373D01*
X140730359Y-122395000D01*
X140712963Y-122571627D01*
X140678616Y-122684853D01*
X140661443Y-122741467D01*
X140587348Y-122880087D01*
X140577778Y-122897991D01*
X140548448Y-122933729D01*
X140465186Y-123035186D01*
X140363729Y-123118448D01*
X140327991Y-123147778D01*
X140327989Y-123147779D01*
X140171467Y-123231443D01*
X140114853Y-123248616D01*
X140001627Y-123282963D01*
X139935443Y-123289481D01*
X139869260Y-123296000D01*
X139530740Y-123296000D01*
X139464557Y-123289481D01*
X139398373Y-123282963D01*
X139285147Y-123248616D01*
X139228533Y-123231443D01*
X139072011Y-123147779D01*
X139072009Y-123147778D01*
X139036271Y-123118448D01*
X138934814Y-123035186D01*
X138851552Y-122933729D01*
X138822222Y-122897991D01*
X138812652Y-122880087D01*
X138738557Y-122741467D01*
X138721384Y-122684853D01*
X138687037Y-122571627D01*
X138669641Y-122395000D01*
X138687037Y-122218373D01*
X138738557Y-122048534D01*
X138738557Y-122048533D01*
X138822221Y-121892011D01*
X138822222Y-121892009D01*
X138863082Y-121842221D01*
X138934814Y-121754814D01*
X139036271Y-121671552D01*
X139072009Y-121642222D01*
X139089913Y-121632652D01*
X139228533Y-121558557D01*
X139285147Y-121541384D01*
X139398373Y-121507037D01*
X139464557Y-121500519D01*
X139530740Y-121494000D01*
X139869260Y-121494000D01*
X139935443Y-121500519D01*
X139935443Y-121500519D01*
G37*
G36*
X161525443Y-119200519D02*
X161591627Y-119207037D01*
X161704853Y-119241384D01*
X161761467Y-119258557D01*
X161900087Y-119332652D01*
X161917991Y-119342222D01*
X161953729Y-119371552D01*
X162055186Y-119454814D01*
X162132098Y-119548533D01*
X162167778Y-119592009D01*
X162167779Y-119592011D01*
X162251443Y-119748533D01*
X162251443Y-119748534D01*
X162302963Y-119918373D01*
X162320359Y-120095000D01*
X162302963Y-120271627D01*
X162268616Y-120384853D01*
X162251443Y-120441467D01*
X162201349Y-120535185D01*
X162167778Y-120597991D01*
X162138448Y-120633729D01*
X162055186Y-120735186D01*
X161953729Y-120818448D01*
X161917991Y-120847778D01*
X161917989Y-120847779D01*
X161761467Y-120931443D01*
X161704853Y-120948616D01*
X161591627Y-120982963D01*
X161525442Y-120989482D01*
X161459260Y-120996000D01*
X161120740Y-120996000D01*
X161054558Y-120989482D01*
X160988373Y-120982963D01*
X160875147Y-120948616D01*
X160818533Y-120931443D01*
X160662011Y-120847779D01*
X160662009Y-120847778D01*
X160626271Y-120818448D01*
X160524814Y-120735186D01*
X160441552Y-120633729D01*
X160412222Y-120597991D01*
X160378651Y-120535185D01*
X160328557Y-120441467D01*
X160311384Y-120384853D01*
X160277037Y-120271627D01*
X160259641Y-120095000D01*
X160277037Y-119918373D01*
X160328557Y-119748534D01*
X160328557Y-119748533D01*
X160412221Y-119592011D01*
X160412222Y-119592009D01*
X160447902Y-119548533D01*
X160524814Y-119454814D01*
X160626271Y-119371552D01*
X160662009Y-119342222D01*
X160679913Y-119332652D01*
X160818533Y-119258557D01*
X160875147Y-119241384D01*
X160988373Y-119207037D01*
X161054557Y-119200519D01*
X161120740Y-119194000D01*
X161459260Y-119194000D01*
X161525443Y-119200519D01*
X161525443Y-119200519D01*
G37*
G36*
X139935443Y-119000519D02*
X140001627Y-119007037D01*
X140114853Y-119041384D01*
X140171467Y-119058557D01*
X140310087Y-119132652D01*
X140327991Y-119142222D01*
X140363729Y-119171552D01*
X140465186Y-119254814D01*
X140536918Y-119342221D01*
X140577778Y-119392009D01*
X140577779Y-119392011D01*
X140661443Y-119548533D01*
X140661443Y-119548534D01*
X140712963Y-119718373D01*
X140730359Y-119895000D01*
X140712963Y-120071627D01*
X140678616Y-120184853D01*
X140661443Y-120241467D01*
X140587348Y-120380087D01*
X140577778Y-120397991D01*
X140548448Y-120433729D01*
X140465186Y-120535186D01*
X140363729Y-120618448D01*
X140327991Y-120647778D01*
X140327989Y-120647779D01*
X140171467Y-120731443D01*
X140114853Y-120748616D01*
X140001627Y-120782963D01*
X139935443Y-120789481D01*
X139869260Y-120796000D01*
X139530740Y-120796000D01*
X139464557Y-120789481D01*
X139398373Y-120782963D01*
X139285147Y-120748616D01*
X139228533Y-120731443D01*
X139072011Y-120647779D01*
X139072009Y-120647778D01*
X139036271Y-120618448D01*
X138934814Y-120535186D01*
X138851552Y-120433729D01*
X138822222Y-120397991D01*
X138812652Y-120380087D01*
X138738557Y-120241467D01*
X138721384Y-120184853D01*
X138687037Y-120071627D01*
X138669641Y-119895000D01*
X138687037Y-119718373D01*
X138738557Y-119548534D01*
X138738557Y-119548533D01*
X138822221Y-119392011D01*
X138822222Y-119392009D01*
X138863082Y-119342221D01*
X138934814Y-119254814D01*
X139036271Y-119171552D01*
X139072009Y-119142222D01*
X139089913Y-119132652D01*
X139228533Y-119058557D01*
X139285147Y-119041384D01*
X139398373Y-119007037D01*
X139464557Y-119000519D01*
X139530740Y-118994000D01*
X139869260Y-118994000D01*
X139935443Y-119000519D01*
X139935443Y-119000519D01*
G37*
G36*
X161525442Y-116700518D02*
X161591627Y-116707037D01*
X161704853Y-116741384D01*
X161761467Y-116758557D01*
X161900087Y-116832652D01*
X161917991Y-116842222D01*
X161953729Y-116871552D01*
X162055186Y-116954814D01*
X162132098Y-117048533D01*
X162167778Y-117092009D01*
X162167779Y-117092011D01*
X162251443Y-117248533D01*
X162251443Y-117248534D01*
X162302963Y-117418373D01*
X162320359Y-117595000D01*
X162302963Y-117771627D01*
X162268616Y-117884853D01*
X162251443Y-117941467D01*
X162201349Y-118035185D01*
X162167778Y-118097991D01*
X162138448Y-118133729D01*
X162055186Y-118235186D01*
X161953729Y-118318448D01*
X161917991Y-118347778D01*
X161917989Y-118347779D01*
X161761467Y-118431443D01*
X161704853Y-118448616D01*
X161591627Y-118482963D01*
X161525442Y-118489482D01*
X161459260Y-118496000D01*
X161120740Y-118496000D01*
X161054558Y-118489482D01*
X160988373Y-118482963D01*
X160875147Y-118448616D01*
X160818533Y-118431443D01*
X160662011Y-118347779D01*
X160662009Y-118347778D01*
X160626271Y-118318448D01*
X160524814Y-118235186D01*
X160441552Y-118133729D01*
X160412222Y-118097991D01*
X160378651Y-118035185D01*
X160328557Y-117941467D01*
X160311384Y-117884853D01*
X160277037Y-117771627D01*
X160259641Y-117595000D01*
X160277037Y-117418373D01*
X160328557Y-117248534D01*
X160328557Y-117248533D01*
X160412221Y-117092011D01*
X160412222Y-117092009D01*
X160447902Y-117048533D01*
X160524814Y-116954814D01*
X160626271Y-116871552D01*
X160662009Y-116842222D01*
X160679913Y-116832652D01*
X160818533Y-116758557D01*
X160875147Y-116741384D01*
X160988373Y-116707037D01*
X161054558Y-116700518D01*
X161120740Y-116694000D01*
X161459260Y-116694000D01*
X161525442Y-116700518D01*
X161525442Y-116700518D01*
G37*
G36*
X139935442Y-116500518D02*
X140001627Y-116507037D01*
X140114853Y-116541384D01*
X140171467Y-116558557D01*
X140310087Y-116632652D01*
X140327991Y-116642222D01*
X140363729Y-116671552D01*
X140465186Y-116754814D01*
X140536918Y-116842221D01*
X140577778Y-116892009D01*
X140577779Y-116892011D01*
X140661443Y-117048533D01*
X140661443Y-117048534D01*
X140712963Y-117218373D01*
X140730359Y-117395000D01*
X140712963Y-117571627D01*
X140678616Y-117684853D01*
X140661443Y-117741467D01*
X140587348Y-117880087D01*
X140577778Y-117897991D01*
X140548448Y-117933729D01*
X140465186Y-118035186D01*
X140363729Y-118118448D01*
X140327991Y-118147778D01*
X140327989Y-118147779D01*
X140171467Y-118231443D01*
X140114853Y-118248616D01*
X140001627Y-118282963D01*
X139935443Y-118289481D01*
X139869260Y-118296000D01*
X139530740Y-118296000D01*
X139464557Y-118289481D01*
X139398373Y-118282963D01*
X139285147Y-118248616D01*
X139228533Y-118231443D01*
X139072011Y-118147779D01*
X139072009Y-118147778D01*
X139036271Y-118118448D01*
X138934814Y-118035186D01*
X138851552Y-117933729D01*
X138822222Y-117897991D01*
X138812652Y-117880087D01*
X138738557Y-117741467D01*
X138721384Y-117684853D01*
X138687037Y-117571627D01*
X138669641Y-117395000D01*
X138687037Y-117218373D01*
X138738557Y-117048534D01*
X138738557Y-117048533D01*
X138822221Y-116892011D01*
X138822222Y-116892009D01*
X138863082Y-116842221D01*
X138934814Y-116754814D01*
X139036271Y-116671552D01*
X139072009Y-116642222D01*
X139089913Y-116632652D01*
X139228533Y-116558557D01*
X139285147Y-116541384D01*
X139398373Y-116507037D01*
X139464558Y-116500518D01*
X139530740Y-116494000D01*
X139869260Y-116494000D01*
X139935442Y-116500518D01*
X139935442Y-116500518D01*
G37*
G36*
X161525442Y-114200518D02*
X161591627Y-114207037D01*
X161704853Y-114241384D01*
X161761467Y-114258557D01*
X161900087Y-114332652D01*
X161917991Y-114342222D01*
X161953729Y-114371552D01*
X162055186Y-114454814D01*
X162132098Y-114548533D01*
X162167778Y-114592009D01*
X162167779Y-114592011D01*
X162251443Y-114748533D01*
X162251443Y-114748534D01*
X162302963Y-114918373D01*
X162320359Y-115095000D01*
X162302963Y-115271627D01*
X162268616Y-115384853D01*
X162251443Y-115441467D01*
X162201349Y-115535185D01*
X162167778Y-115597991D01*
X162138448Y-115633729D01*
X162055186Y-115735186D01*
X161953729Y-115818448D01*
X161917991Y-115847778D01*
X161917989Y-115847779D01*
X161761467Y-115931443D01*
X161704853Y-115948616D01*
X161591627Y-115982963D01*
X161525442Y-115989482D01*
X161459260Y-115996000D01*
X161120740Y-115996000D01*
X161054558Y-115989482D01*
X160988373Y-115982963D01*
X160875147Y-115948616D01*
X160818533Y-115931443D01*
X160662011Y-115847779D01*
X160662009Y-115847778D01*
X160626271Y-115818448D01*
X160524814Y-115735186D01*
X160441552Y-115633729D01*
X160412222Y-115597991D01*
X160378651Y-115535185D01*
X160328557Y-115441467D01*
X160311384Y-115384853D01*
X160277037Y-115271627D01*
X160259641Y-115095000D01*
X160277037Y-114918373D01*
X160328557Y-114748534D01*
X160328557Y-114748533D01*
X160412221Y-114592011D01*
X160412222Y-114592009D01*
X160447902Y-114548533D01*
X160524814Y-114454814D01*
X160626271Y-114371552D01*
X160662009Y-114342222D01*
X160679913Y-114332652D01*
X160818533Y-114258557D01*
X160875147Y-114241384D01*
X160988373Y-114207037D01*
X161054558Y-114200518D01*
X161120740Y-114194000D01*
X161459260Y-114194000D01*
X161525442Y-114200518D01*
X161525442Y-114200518D01*
G37*
G36*
X139935443Y-114000519D02*
X140001627Y-114007037D01*
X140114853Y-114041384D01*
X140171467Y-114058557D01*
X140310087Y-114132652D01*
X140327991Y-114142222D01*
X140363729Y-114171552D01*
X140465186Y-114254814D01*
X140536918Y-114342221D01*
X140577778Y-114392009D01*
X140577779Y-114392011D01*
X140661443Y-114548533D01*
X140661443Y-114548534D01*
X140712963Y-114718373D01*
X140730359Y-114895000D01*
X140712963Y-115071627D01*
X140678616Y-115184853D01*
X140661443Y-115241467D01*
X140587348Y-115380087D01*
X140577778Y-115397991D01*
X140548448Y-115433729D01*
X140465186Y-115535186D01*
X140363729Y-115618448D01*
X140327991Y-115647778D01*
X140327989Y-115647779D01*
X140171467Y-115731443D01*
X140114853Y-115748616D01*
X140001627Y-115782963D01*
X139935442Y-115789482D01*
X139869260Y-115796000D01*
X139530740Y-115796000D01*
X139464558Y-115789482D01*
X139398373Y-115782963D01*
X139285147Y-115748616D01*
X139228533Y-115731443D01*
X139072011Y-115647779D01*
X139072009Y-115647778D01*
X139036271Y-115618448D01*
X138934814Y-115535186D01*
X138851552Y-115433729D01*
X138822222Y-115397991D01*
X138812652Y-115380087D01*
X138738557Y-115241467D01*
X138721384Y-115184853D01*
X138687037Y-115071627D01*
X138669641Y-114895000D01*
X138687037Y-114718373D01*
X138738557Y-114548534D01*
X138738557Y-114548533D01*
X138822221Y-114392011D01*
X138822222Y-114392009D01*
X138863082Y-114342221D01*
X138934814Y-114254814D01*
X139036271Y-114171552D01*
X139072009Y-114142222D01*
X139089913Y-114132652D01*
X139228533Y-114058557D01*
X139285147Y-114041384D01*
X139398373Y-114007037D01*
X139464557Y-114000519D01*
X139530740Y-113994000D01*
X139869260Y-113994000D01*
X139935443Y-114000519D01*
X139935443Y-114000519D01*
G37*
G36*
X161525443Y-111700519D02*
X161591627Y-111707037D01*
X161704853Y-111741384D01*
X161761467Y-111758557D01*
X161860814Y-111811660D01*
X161917991Y-111842222D01*
X161953729Y-111871552D01*
X162055186Y-111954814D01*
X162138448Y-112056271D01*
X162167778Y-112092009D01*
X162167779Y-112092011D01*
X162251443Y-112248533D01*
X162251443Y-112248534D01*
X162302963Y-112418373D01*
X162320359Y-112595000D01*
X162302963Y-112771627D01*
X162271989Y-112873735D01*
X162251443Y-112941467D01*
X162203586Y-113031000D01*
X162167778Y-113097991D01*
X162139530Y-113132411D01*
X162055186Y-113235186D01*
X161953729Y-113318448D01*
X161917991Y-113347778D01*
X161917989Y-113347779D01*
X161761467Y-113431443D01*
X161704853Y-113448616D01*
X161591627Y-113482963D01*
X161525443Y-113489481D01*
X161459260Y-113496000D01*
X161120740Y-113496000D01*
X161054557Y-113489481D01*
X160988373Y-113482963D01*
X160875147Y-113448616D01*
X160818533Y-113431443D01*
X160662011Y-113347779D01*
X160662009Y-113347778D01*
X160626271Y-113318448D01*
X160524814Y-113235186D01*
X160440470Y-113132411D01*
X160412222Y-113097991D01*
X160376414Y-113031000D01*
X160328557Y-112941467D01*
X160308011Y-112873735D01*
X160277037Y-112771627D01*
X160259641Y-112595000D01*
X160277037Y-112418373D01*
X160328557Y-112248534D01*
X160328557Y-112248533D01*
X160412221Y-112092011D01*
X160412222Y-112092009D01*
X160441552Y-112056271D01*
X160524814Y-111954814D01*
X160626271Y-111871552D01*
X160662009Y-111842222D01*
X160719186Y-111811660D01*
X160818533Y-111758557D01*
X160875147Y-111741384D01*
X160988373Y-111707037D01*
X161054557Y-111700519D01*
X161120740Y-111694000D01*
X161459260Y-111694000D01*
X161525443Y-111700519D01*
X161525443Y-111700519D01*
G37*
G36*
X140583600Y-111497989D02*
X140616649Y-111508014D01*
X140647106Y-111524294D01*
X140673799Y-111546201D01*
X140695706Y-111572894D01*
X140711986Y-111603351D01*
X140722011Y-111636400D01*
X140726000Y-111676904D01*
X140726000Y-113113096D01*
X140722011Y-113153600D01*
X140711986Y-113186649D01*
X140695706Y-113217106D01*
X140673799Y-113243799D01*
X140647106Y-113265706D01*
X140616649Y-113281986D01*
X140583600Y-113292011D01*
X140543096Y-113296000D01*
X138856904Y-113296000D01*
X138816400Y-113292011D01*
X138783351Y-113281986D01*
X138752894Y-113265706D01*
X138726201Y-113243799D01*
X138704294Y-113217106D01*
X138688014Y-113186649D01*
X138677989Y-113153600D01*
X138674000Y-113113096D01*
X138674000Y-111676904D01*
X138677989Y-111636400D01*
X138688014Y-111603351D01*
X138704294Y-111572894D01*
X138726201Y-111546201D01*
X138752894Y-111524294D01*
X138783351Y-111508014D01*
X138816400Y-111497989D01*
X138856904Y-111494000D01*
X140543096Y-111494000D01*
X140583600Y-111497989D01*
X140583600Y-111497989D01*
G37*
G36*
X143626000Y-113146000D02*
X142124000Y-113146000D01*
X142124000Y-111644000D01*
X143626000Y-111644000D01*
X143626000Y-113146000D01*
X143626000Y-113146000D01*
G37*
G36*
X148087004Y-111655544D02*
X148174059Y-111672860D01*
X148310732Y-111729472D01*
X148432079Y-111810554D01*
X148433738Y-111811662D01*
X148538338Y-111916262D01*
X148538340Y-111916265D01*
X148620528Y-112039268D01*
X148677140Y-112175941D01*
X148706000Y-112321033D01*
X148706000Y-112468967D01*
X148677140Y-112614059D01*
X148620528Y-112750732D01*
X148606566Y-112771627D01*
X148538338Y-112873738D01*
X148433738Y-112978338D01*
X148433735Y-112978340D01*
X148310732Y-113060528D01*
X148174059Y-113117140D01*
X148097285Y-113132411D01*
X148028969Y-113146000D01*
X147881031Y-113146000D01*
X147812715Y-113132411D01*
X147735941Y-113117140D01*
X147599268Y-113060528D01*
X147476265Y-112978340D01*
X147476262Y-112978338D01*
X147371662Y-112873738D01*
X147303434Y-112771627D01*
X147289472Y-112750732D01*
X147232860Y-112614059D01*
X147204000Y-112468967D01*
X147204000Y-112321033D01*
X147232860Y-112175941D01*
X147289472Y-112039268D01*
X147371660Y-111916265D01*
X147371662Y-111916262D01*
X147476262Y-111811662D01*
X147477921Y-111810554D01*
X147599268Y-111729472D01*
X147735941Y-111672860D01*
X147822996Y-111655544D01*
X147881031Y-111644000D01*
X148028969Y-111644000D01*
X148087004Y-111655544D01*
X148087004Y-111655544D01*
G37*
G36*
X153167004Y-111655544D02*
X153254059Y-111672860D01*
X153390732Y-111729472D01*
X153512079Y-111810554D01*
X153513738Y-111811662D01*
X153618338Y-111916262D01*
X153618340Y-111916265D01*
X153700528Y-112039268D01*
X153757140Y-112175941D01*
X153786000Y-112321033D01*
X153786000Y-112468967D01*
X153757140Y-112614059D01*
X153700528Y-112750732D01*
X153686566Y-112771627D01*
X153618338Y-112873738D01*
X153513738Y-112978338D01*
X153513735Y-112978340D01*
X153390732Y-113060528D01*
X153254059Y-113117140D01*
X153177285Y-113132411D01*
X153108969Y-113146000D01*
X152961031Y-113146000D01*
X152892715Y-113132411D01*
X152815941Y-113117140D01*
X152679268Y-113060528D01*
X152556265Y-112978340D01*
X152556262Y-112978338D01*
X152451662Y-112873738D01*
X152383434Y-112771627D01*
X152369472Y-112750732D01*
X152312860Y-112614059D01*
X152284000Y-112468967D01*
X152284000Y-112321033D01*
X152312860Y-112175941D01*
X152369472Y-112039268D01*
X152451660Y-111916265D01*
X152451662Y-111916262D01*
X152556262Y-111811662D01*
X152557921Y-111810554D01*
X152679268Y-111729472D01*
X152815941Y-111672860D01*
X152902996Y-111655544D01*
X152961031Y-111644000D01*
X153108969Y-111644000D01*
X153167004Y-111655544D01*
X153167004Y-111655544D01*
G37*
G36*
X158247004Y-111655544D02*
X158334059Y-111672860D01*
X158470732Y-111729472D01*
X158592079Y-111810554D01*
X158593738Y-111811662D01*
X158698338Y-111916262D01*
X158698340Y-111916265D01*
X158780528Y-112039268D01*
X158837140Y-112175941D01*
X158866000Y-112321033D01*
X158866000Y-112468967D01*
X158837140Y-112614059D01*
X158780528Y-112750732D01*
X158766566Y-112771627D01*
X158698338Y-112873738D01*
X158593738Y-112978338D01*
X158593735Y-112978340D01*
X158470732Y-113060528D01*
X158334059Y-113117140D01*
X158257285Y-113132411D01*
X158188969Y-113146000D01*
X158041031Y-113146000D01*
X157972715Y-113132411D01*
X157895941Y-113117140D01*
X157759268Y-113060528D01*
X157636265Y-112978340D01*
X157636262Y-112978338D01*
X157531662Y-112873738D01*
X157463434Y-112771627D01*
X157449472Y-112750732D01*
X157392860Y-112614059D01*
X157364000Y-112468967D01*
X157364000Y-112321033D01*
X157392860Y-112175941D01*
X157449472Y-112039268D01*
X157531660Y-111916265D01*
X157531662Y-111916262D01*
X157636262Y-111811662D01*
X157637921Y-111810554D01*
X157759268Y-111729472D01*
X157895941Y-111672860D01*
X157982996Y-111655544D01*
X158041031Y-111644000D01*
X158188969Y-111644000D01*
X158247004Y-111655544D01*
X158247004Y-111655544D01*
G37*
M02*
