G04 #@! TF.GenerationSoftware,KiCad,Pcbnew,(5.0.2-5)-5*
G04 #@! TF.CreationDate,2019-07-31T22:00:08+03:00*
G04 #@! TF.ProjectId,bike_motor_shim,62696b65-5f6d-46f7-946f-725f7368696d,rev?*
G04 #@! TF.SameCoordinates,Original*
G04 #@! TF.FileFunction,Copper,L2,Bot*
G04 #@! TF.FilePolarity,Positive*
%FSLAX46Y46*%
G04 Gerber Fmt 4.6, Leading zero omitted, Abs format (unit mm)*
G04 Created by KiCad (PCBNEW (5.0.2-5)-5) date 2019 July 31, Wednesday 22:00:08*
%MOMM*%
%LPD*%
G01*
G04 APERTURE LIST*
G04 #@! TA.AperFunction,ComponentPad*
%ADD10C,1.500000*%
G04 #@! TD*
G04 #@! TA.AperFunction,Conductor*
%ADD11C,0.100000*%
G04 #@! TD*
G04 #@! TA.AperFunction,ComponentPad*
%ADD12C,1.700000*%
G04 #@! TD*
G04 #@! TA.AperFunction,ComponentPad*
%ADD13O,1.950000X1.700000*%
G04 #@! TD*
G04 #@! TA.AperFunction,ComponentPad*
%ADD14R,1.700000X1.700000*%
G04 #@! TD*
G04 #@! TA.AperFunction,ComponentPad*
%ADD15O,1.700000X1.700000*%
G04 #@! TD*
G04 #@! TA.AperFunction,ComponentPad*
%ADD16C,1.400000*%
G04 #@! TD*
G04 #@! TA.AperFunction,ComponentPad*
%ADD17R,1.400000X1.400000*%
G04 #@! TD*
G04 #@! TA.AperFunction,ViaPad*
%ADD18C,0.800000*%
G04 #@! TD*
G04 #@! TA.AperFunction,Conductor*
%ADD19C,0.500000*%
G04 #@! TD*
G04 #@! TA.AperFunction,Conductor*
%ADD20C,0.250000*%
G04 #@! TD*
G04 #@! TA.AperFunction,Conductor*
%ADD21C,0.254000*%
G04 #@! TD*
G04 APERTURE END LIST*
D10*
G04 #@! TO.P,Y1,1*
G04 #@! TO.N,Net-(C3-Pad2)*
X146685000Y-126365000D03*
G04 #@! TO.P,Y1,2*
G04 #@! TO.N,Net-(C4-Pad2)*
X151565000Y-126365000D03*
G04 #@! TD*
D11*
G04 #@! TO.N,MISO*
G04 #@! TO.C,J2*
G36*
X139814504Y-111800204D02*
X139838773Y-111803804D01*
X139862571Y-111809765D01*
X139885671Y-111818030D01*
X139907849Y-111828520D01*
X139928893Y-111841133D01*
X139948598Y-111855747D01*
X139966777Y-111872223D01*
X139983253Y-111890402D01*
X139997867Y-111910107D01*
X140010480Y-111931151D01*
X140020970Y-111953329D01*
X140029235Y-111976429D01*
X140035196Y-112000227D01*
X140038796Y-112024496D01*
X140040000Y-112049000D01*
X140040000Y-113249000D01*
X140038796Y-113273504D01*
X140035196Y-113297773D01*
X140029235Y-113321571D01*
X140020970Y-113344671D01*
X140010480Y-113366849D01*
X139997867Y-113387893D01*
X139983253Y-113407598D01*
X139966777Y-113425777D01*
X139948598Y-113442253D01*
X139928893Y-113456867D01*
X139907849Y-113469480D01*
X139885671Y-113479970D01*
X139862571Y-113488235D01*
X139838773Y-113494196D01*
X139814504Y-113497796D01*
X139790000Y-113499000D01*
X138340000Y-113499000D01*
X138315496Y-113497796D01*
X138291227Y-113494196D01*
X138267429Y-113488235D01*
X138244329Y-113479970D01*
X138222151Y-113469480D01*
X138201107Y-113456867D01*
X138181402Y-113442253D01*
X138163223Y-113425777D01*
X138146747Y-113407598D01*
X138132133Y-113387893D01*
X138119520Y-113366849D01*
X138109030Y-113344671D01*
X138100765Y-113321571D01*
X138094804Y-113297773D01*
X138091204Y-113273504D01*
X138090000Y-113249000D01*
X138090000Y-112049000D01*
X138091204Y-112024496D01*
X138094804Y-112000227D01*
X138100765Y-111976429D01*
X138109030Y-111953329D01*
X138119520Y-111931151D01*
X138132133Y-111910107D01*
X138146747Y-111890402D01*
X138163223Y-111872223D01*
X138181402Y-111855747D01*
X138201107Y-111841133D01*
X138222151Y-111828520D01*
X138244329Y-111818030D01*
X138267429Y-111809765D01*
X138291227Y-111803804D01*
X138315496Y-111800204D01*
X138340000Y-111799000D01*
X139790000Y-111799000D01*
X139814504Y-111800204D01*
X139814504Y-111800204D01*
G37*
D12*
G04 #@! TD*
G04 #@! TO.P,J2,1*
G04 #@! TO.N,MISO*
X139065000Y-112649000D03*
D13*
G04 #@! TO.P,J2,2*
G04 #@! TO.N,+5V*
X139065000Y-115149000D03*
G04 #@! TO.P,J2,3*
G04 #@! TO.N,SCK*
X139065000Y-117649000D03*
G04 #@! TO.P,J2,4*
G04 #@! TO.N,MOSI*
X139065000Y-120149000D03*
G04 #@! TO.P,J2,5*
G04 #@! TO.N,RST*
X139065000Y-122649000D03*
G04 #@! TO.P,J2,6*
G04 #@! TO.N,GND*
X139065000Y-125149000D03*
G04 #@! TD*
D11*
G04 #@! TO.N,+6V*
G04 #@! TO.C,J1*
G36*
X176644504Y-124246204D02*
X176668773Y-124249804D01*
X176692571Y-124255765D01*
X176715671Y-124264030D01*
X176737849Y-124274520D01*
X176758893Y-124287133D01*
X176778598Y-124301747D01*
X176796777Y-124318223D01*
X176813253Y-124336402D01*
X176827867Y-124356107D01*
X176840480Y-124377151D01*
X176850970Y-124399329D01*
X176859235Y-124422429D01*
X176865196Y-124446227D01*
X176868796Y-124470496D01*
X176870000Y-124495000D01*
X176870000Y-125695000D01*
X176868796Y-125719504D01*
X176865196Y-125743773D01*
X176859235Y-125767571D01*
X176850970Y-125790671D01*
X176840480Y-125812849D01*
X176827867Y-125833893D01*
X176813253Y-125853598D01*
X176796777Y-125871777D01*
X176778598Y-125888253D01*
X176758893Y-125902867D01*
X176737849Y-125915480D01*
X176715671Y-125925970D01*
X176692571Y-125934235D01*
X176668773Y-125940196D01*
X176644504Y-125943796D01*
X176620000Y-125945000D01*
X175170000Y-125945000D01*
X175145496Y-125943796D01*
X175121227Y-125940196D01*
X175097429Y-125934235D01*
X175074329Y-125925970D01*
X175052151Y-125915480D01*
X175031107Y-125902867D01*
X175011402Y-125888253D01*
X174993223Y-125871777D01*
X174976747Y-125853598D01*
X174962133Y-125833893D01*
X174949520Y-125812849D01*
X174939030Y-125790671D01*
X174930765Y-125767571D01*
X174924804Y-125743773D01*
X174921204Y-125719504D01*
X174920000Y-125695000D01*
X174920000Y-124495000D01*
X174921204Y-124470496D01*
X174924804Y-124446227D01*
X174930765Y-124422429D01*
X174939030Y-124399329D01*
X174949520Y-124377151D01*
X174962133Y-124356107D01*
X174976747Y-124336402D01*
X174993223Y-124318223D01*
X175011402Y-124301747D01*
X175031107Y-124287133D01*
X175052151Y-124274520D01*
X175074329Y-124264030D01*
X175097429Y-124255765D01*
X175121227Y-124249804D01*
X175145496Y-124246204D01*
X175170000Y-124245000D01*
X176620000Y-124245000D01*
X176644504Y-124246204D01*
X176644504Y-124246204D01*
G37*
D12*
G04 #@! TD*
G04 #@! TO.P,J1,1*
G04 #@! TO.N,+6V*
X175895000Y-125095000D03*
D13*
G04 #@! TO.P,J1,2*
G04 #@! TO.N,GND*
X175895000Y-122595000D03*
G04 #@! TO.P,J1,3*
X175895000Y-120095000D03*
G04 #@! TO.P,J1,4*
G04 #@! TO.N,SENSOR_IN*
X175895000Y-117595000D03*
G04 #@! TO.P,J1,5*
G04 #@! TO.N,GND*
X175895000Y-115095000D03*
G04 #@! TO.P,J1,6*
G04 #@! TO.N,MOTOR_IN*
X175895000Y-112595000D03*
G04 #@! TD*
D14*
G04 #@! TO.P,JP1,1*
G04 #@! TO.N,MOTOR_DRY*
X158369000Y-110871000D03*
D15*
G04 #@! TO.P,JP1,2*
G04 #@! TO.N,Net-(JP1-Pad2)*
X155829000Y-110871000D03*
G04 #@! TO.P,JP1,3*
G04 #@! TO.N,MOTOR_TTL*
X153289000Y-110871000D03*
G04 #@! TD*
D16*
G04 #@! TO.P,K1,7*
G04 #@! TO.N,MOTOR_DRY*
X172085000Y-111125000D03*
G04 #@! TO.P,K1,5*
G04 #@! TO.N,+5V*
X172085000Y-116205000D03*
G04 #@! TO.P,K1,3*
G04 #@! TO.N,Net-(D1-Pad2)*
X172085000Y-121285000D03*
D17*
G04 #@! TO.P,K1,1*
G04 #@! TO.N,GND*
X172085000Y-126365000D03*
G04 #@! TD*
D18*
G04 #@! TO.N,+5V*
X154686000Y-121920000D03*
X144145000Y-121920000D03*
X159004000Y-117475000D03*
X164973000Y-111887000D03*
X166116000Y-127254000D03*
X142113000Y-115316000D03*
G04 #@! TO.N,MISO*
X145542000Y-114046000D03*
X159385000Y-119634000D03*
G04 #@! TO.N,GND*
X153035000Y-118999000D03*
X159385000Y-121285000D03*
X154432000Y-127635000D03*
X144145000Y-123825000D03*
X147955000Y-118110000D03*
X164338000Y-117982999D03*
G04 #@! TD*
D19*
G04 #@! TO.N,+5V*
X144145000Y-121920000D02*
X154686000Y-121920000D01*
X144145000Y-121920000D02*
X144145000Y-117348000D01*
X144145000Y-117348000D02*
X142512999Y-115715999D01*
X142512999Y-115715999D02*
X142113000Y-115316000D01*
X164592000Y-111887000D02*
X164973000Y-111887000D01*
X159004000Y-117475000D02*
X164592000Y-111887000D01*
X166116000Y-113030000D02*
X166116000Y-127254000D01*
X164973000Y-111887000D02*
X166116000Y-113030000D01*
D20*
G04 #@! TO.N,MISO*
X158985001Y-119234001D02*
X159385000Y-119634000D01*
X154559000Y-114808000D02*
X158985001Y-119234001D01*
X146304000Y-114808000D02*
X154559000Y-114808000D01*
X145542000Y-114046000D02*
X146304000Y-114808000D01*
G04 #@! TO.N,GND*
X175855000Y-122595000D02*
X175895000Y-122595000D01*
D19*
X154432000Y-127635000D02*
X154432000Y-127069315D01*
X154432000Y-127069315D02*
X154432000Y-123825000D01*
X144145000Y-123825000D02*
X154432000Y-123825000D01*
X175895000Y-120015000D02*
X175895000Y-120095000D01*
X175895000Y-120095000D02*
X175895000Y-122595000D01*
X172085000Y-126280000D02*
X172085000Y-126365000D01*
X175770000Y-122595000D02*
X172085000Y-126280000D01*
X175895000Y-122595000D02*
X175770000Y-122595000D01*
X174117000Y-118442000D02*
X175770000Y-120095000D01*
X174117000Y-116748000D02*
X174117000Y-118442000D01*
X175770000Y-115095000D02*
X174117000Y-116748000D01*
X175770000Y-120095000D02*
X175895000Y-120095000D01*
X175895000Y-115095000D02*
X175770000Y-115095000D01*
X170885000Y-126365000D02*
X172085000Y-126365000D01*
X168870010Y-128379990D02*
X170885000Y-126365000D01*
X155742675Y-128379990D02*
X168870010Y-128379990D01*
X154997685Y-127635000D02*
X155742675Y-128379990D01*
X154432000Y-127635000D02*
X154997685Y-127635000D01*
X159385000Y-121285000D02*
X161035999Y-121285000D01*
X161035999Y-121285000D02*
X163938001Y-118382998D01*
X163938001Y-118382998D02*
X164338000Y-117982999D01*
X156972000Y-121285000D02*
X154432000Y-123825000D01*
X159385000Y-121285000D02*
X156972000Y-121285000D01*
X154686000Y-118999000D02*
X156972000Y-121285000D01*
X153035000Y-118999000D02*
X154686000Y-118999000D01*
G04 #@! TD*
D21*
G04 #@! TO.N,GND*
G36*
X177090000Y-111523957D02*
X176599418Y-111196161D01*
X176166256Y-111110000D01*
X175623744Y-111110000D01*
X175190582Y-111196161D01*
X174699375Y-111524375D01*
X174371161Y-112015582D01*
X174255908Y-112595000D01*
X174371161Y-113174418D01*
X174699375Y-113665625D01*
X174972687Y-113848246D01*
X174567503Y-114223807D01*
X174328524Y-114738110D01*
X174449845Y-114968000D01*
X175768000Y-114968000D01*
X175768000Y-114948000D01*
X176022000Y-114948000D01*
X176022000Y-114968000D01*
X176042000Y-114968000D01*
X176042000Y-115222000D01*
X176022000Y-115222000D01*
X176022000Y-115242000D01*
X175768000Y-115242000D01*
X175768000Y-115222000D01*
X174449845Y-115222000D01*
X174328524Y-115451890D01*
X174567503Y-115966193D01*
X174972687Y-116341754D01*
X174699375Y-116524375D01*
X174371161Y-117015582D01*
X174255908Y-117595000D01*
X174371161Y-118174418D01*
X174699375Y-118665625D01*
X174972687Y-118848246D01*
X174567503Y-119223807D01*
X174328524Y-119738110D01*
X174449845Y-119968000D01*
X175768000Y-119968000D01*
X175768000Y-119948000D01*
X176022000Y-119948000D01*
X176022000Y-119968000D01*
X176042000Y-119968000D01*
X176042000Y-120222000D01*
X176022000Y-120222000D01*
X176022000Y-122468000D01*
X176042000Y-122468000D01*
X176042000Y-122722000D01*
X176022000Y-122722000D01*
X176022000Y-122742000D01*
X175768000Y-122742000D01*
X175768000Y-122722000D01*
X174449845Y-122722000D01*
X174328524Y-122951890D01*
X174567503Y-123466193D01*
X174801211Y-123682815D01*
X174535414Y-123860414D01*
X174340874Y-124151565D01*
X174272560Y-124495000D01*
X174272560Y-125695000D01*
X174340874Y-126038435D01*
X174535414Y-126329586D01*
X174826565Y-126524126D01*
X175170000Y-126592440D01*
X176620000Y-126592440D01*
X176963435Y-126524126D01*
X177090001Y-126439558D01*
X177090001Y-128195000D01*
X166548811Y-128195000D01*
X166702280Y-128131431D01*
X166993431Y-127840280D01*
X167151000Y-127459874D01*
X167151000Y-127048126D01*
X167001000Y-126685993D01*
X167001000Y-126650750D01*
X170750000Y-126650750D01*
X170750000Y-127191309D01*
X170846673Y-127424698D01*
X171025301Y-127603327D01*
X171258690Y-127700000D01*
X171799250Y-127700000D01*
X171958000Y-127541250D01*
X171958000Y-126492000D01*
X172212000Y-126492000D01*
X172212000Y-127541250D01*
X172370750Y-127700000D01*
X172911310Y-127700000D01*
X173144699Y-127603327D01*
X173323327Y-127424698D01*
X173420000Y-127191309D01*
X173420000Y-126650750D01*
X173261250Y-126492000D01*
X172212000Y-126492000D01*
X171958000Y-126492000D01*
X170908750Y-126492000D01*
X170750000Y-126650750D01*
X167001000Y-126650750D01*
X167001000Y-125538691D01*
X170750000Y-125538691D01*
X170750000Y-126079250D01*
X170908750Y-126238000D01*
X171958000Y-126238000D01*
X171958000Y-125188750D01*
X172212000Y-125188750D01*
X172212000Y-126238000D01*
X173261250Y-126238000D01*
X173420000Y-126079250D01*
X173420000Y-125538691D01*
X173323327Y-125305302D01*
X173144699Y-125126673D01*
X172911310Y-125030000D01*
X172370750Y-125030000D01*
X172212000Y-125188750D01*
X171958000Y-125188750D01*
X171799250Y-125030000D01*
X171258690Y-125030000D01*
X171025301Y-125126673D01*
X170846673Y-125305302D01*
X170750000Y-125538691D01*
X167001000Y-125538691D01*
X167001000Y-121019452D01*
X170750000Y-121019452D01*
X170750000Y-121550548D01*
X170953242Y-122041217D01*
X171328783Y-122416758D01*
X171819452Y-122620000D01*
X172350548Y-122620000D01*
X172841217Y-122416758D01*
X173216758Y-122041217D01*
X173420000Y-121550548D01*
X173420000Y-121019452D01*
X173216758Y-120528783D01*
X173139865Y-120451890D01*
X174328524Y-120451890D01*
X174567503Y-120966193D01*
X174976189Y-121345000D01*
X174567503Y-121723807D01*
X174328524Y-122238110D01*
X174449845Y-122468000D01*
X175768000Y-122468000D01*
X175768000Y-120222000D01*
X174449845Y-120222000D01*
X174328524Y-120451890D01*
X173139865Y-120451890D01*
X172841217Y-120153242D01*
X172350548Y-119950000D01*
X171819452Y-119950000D01*
X171328783Y-120153242D01*
X170953242Y-120528783D01*
X170750000Y-121019452D01*
X167001000Y-121019452D01*
X167001000Y-115939452D01*
X170750000Y-115939452D01*
X170750000Y-116470548D01*
X170953242Y-116961217D01*
X171328783Y-117336758D01*
X171819452Y-117540000D01*
X172350548Y-117540000D01*
X172841217Y-117336758D01*
X173216758Y-116961217D01*
X173420000Y-116470548D01*
X173420000Y-115939452D01*
X173216758Y-115448783D01*
X172841217Y-115073242D01*
X172350548Y-114870000D01*
X171819452Y-114870000D01*
X171328783Y-115073242D01*
X170953242Y-115448783D01*
X170750000Y-115939452D01*
X167001000Y-115939452D01*
X167001000Y-113117159D01*
X167018337Y-113029999D01*
X167001000Y-112942839D01*
X167001000Y-112942835D01*
X166949652Y-112684690D01*
X166754049Y-112391951D01*
X166680156Y-112342577D01*
X166000431Y-111662853D01*
X165850431Y-111300720D01*
X165559280Y-111009569D01*
X165196865Y-110859452D01*
X170750000Y-110859452D01*
X170750000Y-111390548D01*
X170953242Y-111881217D01*
X171328783Y-112256758D01*
X171819452Y-112460000D01*
X172350548Y-112460000D01*
X172841217Y-112256758D01*
X173216758Y-111881217D01*
X173420000Y-111390548D01*
X173420000Y-110859452D01*
X173216758Y-110368783D01*
X172841217Y-109993242D01*
X172350548Y-109790000D01*
X171819452Y-109790000D01*
X171328783Y-109993242D01*
X170953242Y-110368783D01*
X170750000Y-110859452D01*
X165196865Y-110859452D01*
X165178874Y-110852000D01*
X164767126Y-110852000D01*
X164386720Y-111009569D01*
X164366840Y-111029449D01*
X164246690Y-111053348D01*
X164246688Y-111053349D01*
X164246689Y-111053349D01*
X164027845Y-111199576D01*
X164027844Y-111199577D01*
X163953951Y-111248951D01*
X163904577Y-111322844D01*
X158779853Y-116447569D01*
X158417720Y-116597569D01*
X158126569Y-116888720D01*
X158005883Y-117180082D01*
X155149331Y-114323530D01*
X155106929Y-114260071D01*
X154855537Y-114092096D01*
X154633852Y-114048000D01*
X154633847Y-114048000D01*
X154559000Y-114033112D01*
X154484153Y-114048000D01*
X146618802Y-114048000D01*
X146577000Y-114006198D01*
X146577000Y-113840126D01*
X146419431Y-113459720D01*
X146128280Y-113168569D01*
X145747874Y-113011000D01*
X145336126Y-113011000D01*
X144955720Y-113168569D01*
X144664569Y-113459720D01*
X144507000Y-113840126D01*
X144507000Y-114251874D01*
X144664569Y-114632280D01*
X144955720Y-114923431D01*
X145336126Y-115081000D01*
X145502198Y-115081000D01*
X145713670Y-115292472D01*
X145756071Y-115355929D01*
X145819527Y-115398329D01*
X146007462Y-115523904D01*
X146055605Y-115533480D01*
X146229148Y-115568000D01*
X146229152Y-115568000D01*
X146304000Y-115582888D01*
X146378848Y-115568000D01*
X154244199Y-115568000D01*
X158350000Y-119673802D01*
X158350000Y-119839874D01*
X158507569Y-120220280D01*
X158798720Y-120511431D01*
X159179126Y-120669000D01*
X159590874Y-120669000D01*
X159971280Y-120511431D01*
X160262431Y-120220280D01*
X160420000Y-119839874D01*
X160420000Y-119428126D01*
X160262431Y-119047720D01*
X159971280Y-118756569D01*
X159590874Y-118599000D01*
X159424802Y-118599000D01*
X159298919Y-118473117D01*
X159590280Y-118352431D01*
X159881431Y-118061280D01*
X160031431Y-117699147D01*
X164782500Y-112948079D01*
X165231000Y-113396579D01*
X165231001Y-126685991D01*
X165081000Y-127048126D01*
X165081000Y-127459874D01*
X165238569Y-127840280D01*
X165529720Y-128131431D01*
X165683189Y-128195000D01*
X137870000Y-128195000D01*
X137870000Y-126143003D01*
X138162429Y-126414053D01*
X138705733Y-126615320D01*
X138938000Y-126475165D01*
X138938000Y-125276000D01*
X139192000Y-125276000D01*
X139192000Y-126475165D01*
X139424267Y-126615320D01*
X139967571Y-126414053D01*
X140317716Y-126089506D01*
X145300000Y-126089506D01*
X145300000Y-126640494D01*
X145510853Y-127149540D01*
X145900460Y-127539147D01*
X146409506Y-127750000D01*
X146960494Y-127750000D01*
X147469540Y-127539147D01*
X147859147Y-127149540D01*
X148070000Y-126640494D01*
X148070000Y-126089506D01*
X150180000Y-126089506D01*
X150180000Y-126640494D01*
X150390853Y-127149540D01*
X150780460Y-127539147D01*
X151289506Y-127750000D01*
X151840494Y-127750000D01*
X152349540Y-127539147D01*
X152739147Y-127149540D01*
X152950000Y-126640494D01*
X152950000Y-126089506D01*
X152739147Y-125580460D01*
X152349540Y-125190853D01*
X151840494Y-124980000D01*
X151289506Y-124980000D01*
X150780460Y-125190853D01*
X150390853Y-125580460D01*
X150180000Y-126089506D01*
X148070000Y-126089506D01*
X147859147Y-125580460D01*
X147469540Y-125190853D01*
X146960494Y-124980000D01*
X146409506Y-124980000D01*
X145900460Y-125190853D01*
X145510853Y-125580460D01*
X145300000Y-126089506D01*
X140317716Y-126089506D01*
X140392497Y-126020193D01*
X140631476Y-125505890D01*
X140510155Y-125276000D01*
X139192000Y-125276000D01*
X138938000Y-125276000D01*
X138918000Y-125276000D01*
X138918000Y-125022000D01*
X138938000Y-125022000D01*
X138938000Y-125002000D01*
X139192000Y-125002000D01*
X139192000Y-125022000D01*
X140510155Y-125022000D01*
X140631476Y-124792110D01*
X140392497Y-124277807D01*
X139987313Y-123902246D01*
X140260625Y-123719625D01*
X140588839Y-123228418D01*
X140704092Y-122649000D01*
X140588839Y-122069582D01*
X140260625Y-121578375D01*
X139992171Y-121399000D01*
X140260625Y-121219625D01*
X140588839Y-120728418D01*
X140704092Y-120149000D01*
X140588839Y-119569582D01*
X140260625Y-119078375D01*
X139992171Y-118899000D01*
X140260625Y-118719625D01*
X140588839Y-118228418D01*
X140704092Y-117649000D01*
X140588839Y-117069582D01*
X140260625Y-116578375D01*
X139992171Y-116399000D01*
X140260625Y-116219625D01*
X140588839Y-115728418D01*
X140704092Y-115149000D01*
X140696360Y-115110126D01*
X141078000Y-115110126D01*
X141078000Y-115521874D01*
X141235569Y-115902280D01*
X141526720Y-116193431D01*
X141888853Y-116343431D01*
X143260001Y-117714580D01*
X143260000Y-121351993D01*
X143110000Y-121714126D01*
X143110000Y-122125874D01*
X143267569Y-122506280D01*
X143558720Y-122797431D01*
X143939126Y-122955000D01*
X144350874Y-122955000D01*
X144713007Y-122805000D01*
X154117993Y-122805000D01*
X154480126Y-122955000D01*
X154891874Y-122955000D01*
X155272280Y-122797431D01*
X155563431Y-122506280D01*
X155721000Y-122125874D01*
X155721000Y-121714126D01*
X155563431Y-121333720D01*
X155272280Y-121042569D01*
X154891874Y-120885000D01*
X154480126Y-120885000D01*
X154117993Y-121035000D01*
X145030000Y-121035000D01*
X145030000Y-117435161D01*
X145047337Y-117348000D01*
X145030000Y-117260839D01*
X145030000Y-117260835D01*
X144978652Y-117002690D01*
X144832424Y-116783845D01*
X144832423Y-116783844D01*
X144783049Y-116709951D01*
X144709156Y-116660577D01*
X143140431Y-115091853D01*
X142990431Y-114729720D01*
X142699280Y-114438569D01*
X142318874Y-114281000D01*
X141907126Y-114281000D01*
X141526720Y-114438569D01*
X141235569Y-114729720D01*
X141078000Y-115110126D01*
X140696360Y-115110126D01*
X140588839Y-114569582D01*
X140260625Y-114078375D01*
X140196844Y-114035758D01*
X140424586Y-113883586D01*
X140619126Y-113592435D01*
X140687440Y-113249000D01*
X140687440Y-112049000D01*
X140619126Y-111705565D01*
X140424586Y-111414414D01*
X140133435Y-111219874D01*
X139790000Y-111151560D01*
X138340000Y-111151560D01*
X137996565Y-111219874D01*
X137870000Y-111304442D01*
X137870000Y-110871000D01*
X151774908Y-110871000D01*
X151890161Y-111450418D01*
X152218375Y-111941625D01*
X152709582Y-112269839D01*
X153142744Y-112356000D01*
X153435256Y-112356000D01*
X153868418Y-112269839D01*
X154359625Y-111941625D01*
X154559000Y-111643239D01*
X154758375Y-111941625D01*
X155249582Y-112269839D01*
X155682744Y-112356000D01*
X155975256Y-112356000D01*
X156408418Y-112269839D01*
X156899625Y-111941625D01*
X156911816Y-111923381D01*
X156920843Y-111968765D01*
X157061191Y-112178809D01*
X157271235Y-112319157D01*
X157519000Y-112368440D01*
X159219000Y-112368440D01*
X159466765Y-112319157D01*
X159676809Y-112178809D01*
X159817157Y-111968765D01*
X159866440Y-111721000D01*
X159866440Y-110021000D01*
X159817157Y-109773235D01*
X159676809Y-109563191D01*
X159466765Y-109422843D01*
X159219000Y-109373560D01*
X157519000Y-109373560D01*
X157271235Y-109422843D01*
X157061191Y-109563191D01*
X156920843Y-109773235D01*
X156911816Y-109818619D01*
X156899625Y-109800375D01*
X156408418Y-109472161D01*
X155975256Y-109386000D01*
X155682744Y-109386000D01*
X155249582Y-109472161D01*
X154758375Y-109800375D01*
X154559000Y-110098761D01*
X154359625Y-109800375D01*
X153868418Y-109472161D01*
X153435256Y-109386000D01*
X153142744Y-109386000D01*
X152709582Y-109472161D01*
X152218375Y-109800375D01*
X151890161Y-110291582D01*
X151774908Y-110871000D01*
X137870000Y-110871000D01*
X137870000Y-109295000D01*
X177090000Y-109295000D01*
X177090000Y-111523957D01*
X177090000Y-111523957D01*
G37*
X177090000Y-111523957D02*
X176599418Y-111196161D01*
X176166256Y-111110000D01*
X175623744Y-111110000D01*
X175190582Y-111196161D01*
X174699375Y-111524375D01*
X174371161Y-112015582D01*
X174255908Y-112595000D01*
X174371161Y-113174418D01*
X174699375Y-113665625D01*
X174972687Y-113848246D01*
X174567503Y-114223807D01*
X174328524Y-114738110D01*
X174449845Y-114968000D01*
X175768000Y-114968000D01*
X175768000Y-114948000D01*
X176022000Y-114948000D01*
X176022000Y-114968000D01*
X176042000Y-114968000D01*
X176042000Y-115222000D01*
X176022000Y-115222000D01*
X176022000Y-115242000D01*
X175768000Y-115242000D01*
X175768000Y-115222000D01*
X174449845Y-115222000D01*
X174328524Y-115451890D01*
X174567503Y-115966193D01*
X174972687Y-116341754D01*
X174699375Y-116524375D01*
X174371161Y-117015582D01*
X174255908Y-117595000D01*
X174371161Y-118174418D01*
X174699375Y-118665625D01*
X174972687Y-118848246D01*
X174567503Y-119223807D01*
X174328524Y-119738110D01*
X174449845Y-119968000D01*
X175768000Y-119968000D01*
X175768000Y-119948000D01*
X176022000Y-119948000D01*
X176022000Y-119968000D01*
X176042000Y-119968000D01*
X176042000Y-120222000D01*
X176022000Y-120222000D01*
X176022000Y-122468000D01*
X176042000Y-122468000D01*
X176042000Y-122722000D01*
X176022000Y-122722000D01*
X176022000Y-122742000D01*
X175768000Y-122742000D01*
X175768000Y-122722000D01*
X174449845Y-122722000D01*
X174328524Y-122951890D01*
X174567503Y-123466193D01*
X174801211Y-123682815D01*
X174535414Y-123860414D01*
X174340874Y-124151565D01*
X174272560Y-124495000D01*
X174272560Y-125695000D01*
X174340874Y-126038435D01*
X174535414Y-126329586D01*
X174826565Y-126524126D01*
X175170000Y-126592440D01*
X176620000Y-126592440D01*
X176963435Y-126524126D01*
X177090001Y-126439558D01*
X177090001Y-128195000D01*
X166548811Y-128195000D01*
X166702280Y-128131431D01*
X166993431Y-127840280D01*
X167151000Y-127459874D01*
X167151000Y-127048126D01*
X167001000Y-126685993D01*
X167001000Y-126650750D01*
X170750000Y-126650750D01*
X170750000Y-127191309D01*
X170846673Y-127424698D01*
X171025301Y-127603327D01*
X171258690Y-127700000D01*
X171799250Y-127700000D01*
X171958000Y-127541250D01*
X171958000Y-126492000D01*
X172212000Y-126492000D01*
X172212000Y-127541250D01*
X172370750Y-127700000D01*
X172911310Y-127700000D01*
X173144699Y-127603327D01*
X173323327Y-127424698D01*
X173420000Y-127191309D01*
X173420000Y-126650750D01*
X173261250Y-126492000D01*
X172212000Y-126492000D01*
X171958000Y-126492000D01*
X170908750Y-126492000D01*
X170750000Y-126650750D01*
X167001000Y-126650750D01*
X167001000Y-125538691D01*
X170750000Y-125538691D01*
X170750000Y-126079250D01*
X170908750Y-126238000D01*
X171958000Y-126238000D01*
X171958000Y-125188750D01*
X172212000Y-125188750D01*
X172212000Y-126238000D01*
X173261250Y-126238000D01*
X173420000Y-126079250D01*
X173420000Y-125538691D01*
X173323327Y-125305302D01*
X173144699Y-125126673D01*
X172911310Y-125030000D01*
X172370750Y-125030000D01*
X172212000Y-125188750D01*
X171958000Y-125188750D01*
X171799250Y-125030000D01*
X171258690Y-125030000D01*
X171025301Y-125126673D01*
X170846673Y-125305302D01*
X170750000Y-125538691D01*
X167001000Y-125538691D01*
X167001000Y-121019452D01*
X170750000Y-121019452D01*
X170750000Y-121550548D01*
X170953242Y-122041217D01*
X171328783Y-122416758D01*
X171819452Y-122620000D01*
X172350548Y-122620000D01*
X172841217Y-122416758D01*
X173216758Y-122041217D01*
X173420000Y-121550548D01*
X173420000Y-121019452D01*
X173216758Y-120528783D01*
X173139865Y-120451890D01*
X174328524Y-120451890D01*
X174567503Y-120966193D01*
X174976189Y-121345000D01*
X174567503Y-121723807D01*
X174328524Y-122238110D01*
X174449845Y-122468000D01*
X175768000Y-122468000D01*
X175768000Y-120222000D01*
X174449845Y-120222000D01*
X174328524Y-120451890D01*
X173139865Y-120451890D01*
X172841217Y-120153242D01*
X172350548Y-119950000D01*
X171819452Y-119950000D01*
X171328783Y-120153242D01*
X170953242Y-120528783D01*
X170750000Y-121019452D01*
X167001000Y-121019452D01*
X167001000Y-115939452D01*
X170750000Y-115939452D01*
X170750000Y-116470548D01*
X170953242Y-116961217D01*
X171328783Y-117336758D01*
X171819452Y-117540000D01*
X172350548Y-117540000D01*
X172841217Y-117336758D01*
X173216758Y-116961217D01*
X173420000Y-116470548D01*
X173420000Y-115939452D01*
X173216758Y-115448783D01*
X172841217Y-115073242D01*
X172350548Y-114870000D01*
X171819452Y-114870000D01*
X171328783Y-115073242D01*
X170953242Y-115448783D01*
X170750000Y-115939452D01*
X167001000Y-115939452D01*
X167001000Y-113117159D01*
X167018337Y-113029999D01*
X167001000Y-112942839D01*
X167001000Y-112942835D01*
X166949652Y-112684690D01*
X166754049Y-112391951D01*
X166680156Y-112342577D01*
X166000431Y-111662853D01*
X165850431Y-111300720D01*
X165559280Y-111009569D01*
X165196865Y-110859452D01*
X170750000Y-110859452D01*
X170750000Y-111390548D01*
X170953242Y-111881217D01*
X171328783Y-112256758D01*
X171819452Y-112460000D01*
X172350548Y-112460000D01*
X172841217Y-112256758D01*
X173216758Y-111881217D01*
X173420000Y-111390548D01*
X173420000Y-110859452D01*
X173216758Y-110368783D01*
X172841217Y-109993242D01*
X172350548Y-109790000D01*
X171819452Y-109790000D01*
X171328783Y-109993242D01*
X170953242Y-110368783D01*
X170750000Y-110859452D01*
X165196865Y-110859452D01*
X165178874Y-110852000D01*
X164767126Y-110852000D01*
X164386720Y-111009569D01*
X164366840Y-111029449D01*
X164246690Y-111053348D01*
X164246688Y-111053349D01*
X164246689Y-111053349D01*
X164027845Y-111199576D01*
X164027844Y-111199577D01*
X163953951Y-111248951D01*
X163904577Y-111322844D01*
X158779853Y-116447569D01*
X158417720Y-116597569D01*
X158126569Y-116888720D01*
X158005883Y-117180082D01*
X155149331Y-114323530D01*
X155106929Y-114260071D01*
X154855537Y-114092096D01*
X154633852Y-114048000D01*
X154633847Y-114048000D01*
X154559000Y-114033112D01*
X154484153Y-114048000D01*
X146618802Y-114048000D01*
X146577000Y-114006198D01*
X146577000Y-113840126D01*
X146419431Y-113459720D01*
X146128280Y-113168569D01*
X145747874Y-113011000D01*
X145336126Y-113011000D01*
X144955720Y-113168569D01*
X144664569Y-113459720D01*
X144507000Y-113840126D01*
X144507000Y-114251874D01*
X144664569Y-114632280D01*
X144955720Y-114923431D01*
X145336126Y-115081000D01*
X145502198Y-115081000D01*
X145713670Y-115292472D01*
X145756071Y-115355929D01*
X145819527Y-115398329D01*
X146007462Y-115523904D01*
X146055605Y-115533480D01*
X146229148Y-115568000D01*
X146229152Y-115568000D01*
X146304000Y-115582888D01*
X146378848Y-115568000D01*
X154244199Y-115568000D01*
X158350000Y-119673802D01*
X158350000Y-119839874D01*
X158507569Y-120220280D01*
X158798720Y-120511431D01*
X159179126Y-120669000D01*
X159590874Y-120669000D01*
X159971280Y-120511431D01*
X160262431Y-120220280D01*
X160420000Y-119839874D01*
X160420000Y-119428126D01*
X160262431Y-119047720D01*
X159971280Y-118756569D01*
X159590874Y-118599000D01*
X159424802Y-118599000D01*
X159298919Y-118473117D01*
X159590280Y-118352431D01*
X159881431Y-118061280D01*
X160031431Y-117699147D01*
X164782500Y-112948079D01*
X165231000Y-113396579D01*
X165231001Y-126685991D01*
X165081000Y-127048126D01*
X165081000Y-127459874D01*
X165238569Y-127840280D01*
X165529720Y-128131431D01*
X165683189Y-128195000D01*
X137870000Y-128195000D01*
X137870000Y-126143003D01*
X138162429Y-126414053D01*
X138705733Y-126615320D01*
X138938000Y-126475165D01*
X138938000Y-125276000D01*
X139192000Y-125276000D01*
X139192000Y-126475165D01*
X139424267Y-126615320D01*
X139967571Y-126414053D01*
X140317716Y-126089506D01*
X145300000Y-126089506D01*
X145300000Y-126640494D01*
X145510853Y-127149540D01*
X145900460Y-127539147D01*
X146409506Y-127750000D01*
X146960494Y-127750000D01*
X147469540Y-127539147D01*
X147859147Y-127149540D01*
X148070000Y-126640494D01*
X148070000Y-126089506D01*
X150180000Y-126089506D01*
X150180000Y-126640494D01*
X150390853Y-127149540D01*
X150780460Y-127539147D01*
X151289506Y-127750000D01*
X151840494Y-127750000D01*
X152349540Y-127539147D01*
X152739147Y-127149540D01*
X152950000Y-126640494D01*
X152950000Y-126089506D01*
X152739147Y-125580460D01*
X152349540Y-125190853D01*
X151840494Y-124980000D01*
X151289506Y-124980000D01*
X150780460Y-125190853D01*
X150390853Y-125580460D01*
X150180000Y-126089506D01*
X148070000Y-126089506D01*
X147859147Y-125580460D01*
X147469540Y-125190853D01*
X146960494Y-124980000D01*
X146409506Y-124980000D01*
X145900460Y-125190853D01*
X145510853Y-125580460D01*
X145300000Y-126089506D01*
X140317716Y-126089506D01*
X140392497Y-126020193D01*
X140631476Y-125505890D01*
X140510155Y-125276000D01*
X139192000Y-125276000D01*
X138938000Y-125276000D01*
X138918000Y-125276000D01*
X138918000Y-125022000D01*
X138938000Y-125022000D01*
X138938000Y-125002000D01*
X139192000Y-125002000D01*
X139192000Y-125022000D01*
X140510155Y-125022000D01*
X140631476Y-124792110D01*
X140392497Y-124277807D01*
X139987313Y-123902246D01*
X140260625Y-123719625D01*
X140588839Y-123228418D01*
X140704092Y-122649000D01*
X140588839Y-122069582D01*
X140260625Y-121578375D01*
X139992171Y-121399000D01*
X140260625Y-121219625D01*
X140588839Y-120728418D01*
X140704092Y-120149000D01*
X140588839Y-119569582D01*
X140260625Y-119078375D01*
X139992171Y-118899000D01*
X140260625Y-118719625D01*
X140588839Y-118228418D01*
X140704092Y-117649000D01*
X140588839Y-117069582D01*
X140260625Y-116578375D01*
X139992171Y-116399000D01*
X140260625Y-116219625D01*
X140588839Y-115728418D01*
X140704092Y-115149000D01*
X140696360Y-115110126D01*
X141078000Y-115110126D01*
X141078000Y-115521874D01*
X141235569Y-115902280D01*
X141526720Y-116193431D01*
X141888853Y-116343431D01*
X143260001Y-117714580D01*
X143260000Y-121351993D01*
X143110000Y-121714126D01*
X143110000Y-122125874D01*
X143267569Y-122506280D01*
X143558720Y-122797431D01*
X143939126Y-122955000D01*
X144350874Y-122955000D01*
X144713007Y-122805000D01*
X154117993Y-122805000D01*
X154480126Y-122955000D01*
X154891874Y-122955000D01*
X155272280Y-122797431D01*
X155563431Y-122506280D01*
X155721000Y-122125874D01*
X155721000Y-121714126D01*
X155563431Y-121333720D01*
X155272280Y-121042569D01*
X154891874Y-120885000D01*
X154480126Y-120885000D01*
X154117993Y-121035000D01*
X145030000Y-121035000D01*
X145030000Y-117435161D01*
X145047337Y-117348000D01*
X145030000Y-117260839D01*
X145030000Y-117260835D01*
X144978652Y-117002690D01*
X144832424Y-116783845D01*
X144832423Y-116783844D01*
X144783049Y-116709951D01*
X144709156Y-116660577D01*
X143140431Y-115091853D01*
X142990431Y-114729720D01*
X142699280Y-114438569D01*
X142318874Y-114281000D01*
X141907126Y-114281000D01*
X141526720Y-114438569D01*
X141235569Y-114729720D01*
X141078000Y-115110126D01*
X140696360Y-115110126D01*
X140588839Y-114569582D01*
X140260625Y-114078375D01*
X140196844Y-114035758D01*
X140424586Y-113883586D01*
X140619126Y-113592435D01*
X140687440Y-113249000D01*
X140687440Y-112049000D01*
X140619126Y-111705565D01*
X140424586Y-111414414D01*
X140133435Y-111219874D01*
X139790000Y-111151560D01*
X138340000Y-111151560D01*
X137996565Y-111219874D01*
X137870000Y-111304442D01*
X137870000Y-110871000D01*
X151774908Y-110871000D01*
X151890161Y-111450418D01*
X152218375Y-111941625D01*
X152709582Y-112269839D01*
X153142744Y-112356000D01*
X153435256Y-112356000D01*
X153868418Y-112269839D01*
X154359625Y-111941625D01*
X154559000Y-111643239D01*
X154758375Y-111941625D01*
X155249582Y-112269839D01*
X155682744Y-112356000D01*
X155975256Y-112356000D01*
X156408418Y-112269839D01*
X156899625Y-111941625D01*
X156911816Y-111923381D01*
X156920843Y-111968765D01*
X157061191Y-112178809D01*
X157271235Y-112319157D01*
X157519000Y-112368440D01*
X159219000Y-112368440D01*
X159466765Y-112319157D01*
X159676809Y-112178809D01*
X159817157Y-111968765D01*
X159866440Y-111721000D01*
X159866440Y-110021000D01*
X159817157Y-109773235D01*
X159676809Y-109563191D01*
X159466765Y-109422843D01*
X159219000Y-109373560D01*
X157519000Y-109373560D01*
X157271235Y-109422843D01*
X157061191Y-109563191D01*
X156920843Y-109773235D01*
X156911816Y-109818619D01*
X156899625Y-109800375D01*
X156408418Y-109472161D01*
X155975256Y-109386000D01*
X155682744Y-109386000D01*
X155249582Y-109472161D01*
X154758375Y-109800375D01*
X154559000Y-110098761D01*
X154359625Y-109800375D01*
X153868418Y-109472161D01*
X153435256Y-109386000D01*
X153142744Y-109386000D01*
X152709582Y-109472161D01*
X152218375Y-109800375D01*
X151890161Y-110291582D01*
X151774908Y-110871000D01*
X137870000Y-110871000D01*
X137870000Y-109295000D01*
X177090000Y-109295000D01*
X177090000Y-111523957D01*
G04 #@! TD*
M02*
