G04 #@! TF.GenerationSoftware,KiCad,Pcbnew,(5.0.2-5)-5*
G04 #@! TF.CreationDate,2019-07-07T00:06:13+03:00*
G04 #@! TF.ProjectId,bike_motor_shim,62696b65-5f6d-46f7-946f-725f7368696d,rev?*
G04 #@! TF.SameCoordinates,Original*
G04 #@! TF.FileFunction,Copper,L2,Bot*
G04 #@! TF.FilePolarity,Positive*
%FSLAX46Y46*%
G04 Gerber Fmt 4.6, Leading zero omitted, Abs format (unit mm)*
G04 Created by KiCad (PCBNEW (5.0.2-5)-5) date 2019 July 07, Sunday 00:06:13*
%MOMM*%
%LPD*%
G01*
G04 APERTURE LIST*
G04 #@! TA.AperFunction,ComponentPad*
%ADD10C,1.500000*%
G04 #@! TD*
G04 #@! TA.AperFunction,Conductor*
%ADD11C,0.100000*%
G04 #@! TD*
G04 #@! TA.AperFunction,ComponentPad*
%ADD12C,1.700000*%
G04 #@! TD*
G04 #@! TA.AperFunction,ComponentPad*
%ADD13O,1.950000X1.700000*%
G04 #@! TD*
G04 #@! TA.AperFunction,ComponentPad*
%ADD14C,1.400000*%
G04 #@! TD*
G04 #@! TA.AperFunction,ComponentPad*
%ADD15R,1.400000X1.400000*%
G04 #@! TD*
G04 #@! TA.AperFunction,ComponentPad*
%ADD16R,1.700000X1.700000*%
G04 #@! TD*
G04 #@! TA.AperFunction,ComponentPad*
%ADD17O,1.700000X1.700000*%
G04 #@! TD*
G04 #@! TA.AperFunction,ViaPad*
%ADD18C,0.800000*%
G04 #@! TD*
G04 #@! TA.AperFunction,Conductor*
%ADD19C,0.250000*%
G04 #@! TD*
G04 #@! TA.AperFunction,Conductor*
%ADD20C,0.254000*%
G04 #@! TD*
G04 APERTURE END LIST*
D10*
G04 #@! TO.P,Y1,1*
G04 #@! TO.N,Net-(C3-Pad2)*
X146685000Y-126365000D03*
G04 #@! TO.P,Y1,2*
G04 #@! TO.N,Net-(C4-Pad2)*
X151565000Y-126365000D03*
G04 #@! TD*
D11*
G04 #@! TO.N,MISO*
G04 #@! TO.C,J2*
G36*
X139814504Y-111800204D02*
X139838773Y-111803804D01*
X139862571Y-111809765D01*
X139885671Y-111818030D01*
X139907849Y-111828520D01*
X139928893Y-111841133D01*
X139948598Y-111855747D01*
X139966777Y-111872223D01*
X139983253Y-111890402D01*
X139997867Y-111910107D01*
X140010480Y-111931151D01*
X140020970Y-111953329D01*
X140029235Y-111976429D01*
X140035196Y-112000227D01*
X140038796Y-112024496D01*
X140040000Y-112049000D01*
X140040000Y-113249000D01*
X140038796Y-113273504D01*
X140035196Y-113297773D01*
X140029235Y-113321571D01*
X140020970Y-113344671D01*
X140010480Y-113366849D01*
X139997867Y-113387893D01*
X139983253Y-113407598D01*
X139966777Y-113425777D01*
X139948598Y-113442253D01*
X139928893Y-113456867D01*
X139907849Y-113469480D01*
X139885671Y-113479970D01*
X139862571Y-113488235D01*
X139838773Y-113494196D01*
X139814504Y-113497796D01*
X139790000Y-113499000D01*
X138340000Y-113499000D01*
X138315496Y-113497796D01*
X138291227Y-113494196D01*
X138267429Y-113488235D01*
X138244329Y-113479970D01*
X138222151Y-113469480D01*
X138201107Y-113456867D01*
X138181402Y-113442253D01*
X138163223Y-113425777D01*
X138146747Y-113407598D01*
X138132133Y-113387893D01*
X138119520Y-113366849D01*
X138109030Y-113344671D01*
X138100765Y-113321571D01*
X138094804Y-113297773D01*
X138091204Y-113273504D01*
X138090000Y-113249000D01*
X138090000Y-112049000D01*
X138091204Y-112024496D01*
X138094804Y-112000227D01*
X138100765Y-111976429D01*
X138109030Y-111953329D01*
X138119520Y-111931151D01*
X138132133Y-111910107D01*
X138146747Y-111890402D01*
X138163223Y-111872223D01*
X138181402Y-111855747D01*
X138201107Y-111841133D01*
X138222151Y-111828520D01*
X138244329Y-111818030D01*
X138267429Y-111809765D01*
X138291227Y-111803804D01*
X138315496Y-111800204D01*
X138340000Y-111799000D01*
X139790000Y-111799000D01*
X139814504Y-111800204D01*
X139814504Y-111800204D01*
G37*
D12*
G04 #@! TD*
G04 #@! TO.P,J2,1*
G04 #@! TO.N,MISO*
X139065000Y-112649000D03*
D13*
G04 #@! TO.P,J2,2*
G04 #@! TO.N,+5V*
X139065000Y-115149000D03*
G04 #@! TO.P,J2,3*
G04 #@! TO.N,SCK*
X139065000Y-117649000D03*
G04 #@! TO.P,J2,4*
G04 #@! TO.N,MOSI*
X139065000Y-120149000D03*
G04 #@! TO.P,J2,5*
G04 #@! TO.N,RST*
X139065000Y-122649000D03*
G04 #@! TO.P,J2,6*
G04 #@! TO.N,MOTOR_OUT*
X139065000Y-125149000D03*
G04 #@! TD*
D11*
G04 #@! TO.N,+6V*
G04 #@! TO.C,J1*
G36*
X176644504Y-124246204D02*
X176668773Y-124249804D01*
X176692571Y-124255765D01*
X176715671Y-124264030D01*
X176737849Y-124274520D01*
X176758893Y-124287133D01*
X176778598Y-124301747D01*
X176796777Y-124318223D01*
X176813253Y-124336402D01*
X176827867Y-124356107D01*
X176840480Y-124377151D01*
X176850970Y-124399329D01*
X176859235Y-124422429D01*
X176865196Y-124446227D01*
X176868796Y-124470496D01*
X176870000Y-124495000D01*
X176870000Y-125695000D01*
X176868796Y-125719504D01*
X176865196Y-125743773D01*
X176859235Y-125767571D01*
X176850970Y-125790671D01*
X176840480Y-125812849D01*
X176827867Y-125833893D01*
X176813253Y-125853598D01*
X176796777Y-125871777D01*
X176778598Y-125888253D01*
X176758893Y-125902867D01*
X176737849Y-125915480D01*
X176715671Y-125925970D01*
X176692571Y-125934235D01*
X176668773Y-125940196D01*
X176644504Y-125943796D01*
X176620000Y-125945000D01*
X175170000Y-125945000D01*
X175145496Y-125943796D01*
X175121227Y-125940196D01*
X175097429Y-125934235D01*
X175074329Y-125925970D01*
X175052151Y-125915480D01*
X175031107Y-125902867D01*
X175011402Y-125888253D01*
X174993223Y-125871777D01*
X174976747Y-125853598D01*
X174962133Y-125833893D01*
X174949520Y-125812849D01*
X174939030Y-125790671D01*
X174930765Y-125767571D01*
X174924804Y-125743773D01*
X174921204Y-125719504D01*
X174920000Y-125695000D01*
X174920000Y-124495000D01*
X174921204Y-124470496D01*
X174924804Y-124446227D01*
X174930765Y-124422429D01*
X174939030Y-124399329D01*
X174949520Y-124377151D01*
X174962133Y-124356107D01*
X174976747Y-124336402D01*
X174993223Y-124318223D01*
X175011402Y-124301747D01*
X175031107Y-124287133D01*
X175052151Y-124274520D01*
X175074329Y-124264030D01*
X175097429Y-124255765D01*
X175121227Y-124249804D01*
X175145496Y-124246204D01*
X175170000Y-124245000D01*
X176620000Y-124245000D01*
X176644504Y-124246204D01*
X176644504Y-124246204D01*
G37*
D12*
G04 #@! TD*
G04 #@! TO.P,J1,1*
G04 #@! TO.N,+6V*
X175895000Y-125095000D03*
D13*
G04 #@! TO.P,J1,2*
G04 #@! TO.N,MOTOR_OUT*
X175895000Y-122595000D03*
G04 #@! TO.P,J1,3*
X175895000Y-120095000D03*
G04 #@! TO.P,J1,4*
G04 #@! TO.N,MISO*
X175895000Y-117595000D03*
G04 #@! TO.P,J1,5*
G04 #@! TO.N,MOTOR_OUT*
X175895000Y-115095000D03*
G04 #@! TO.P,J1,6*
G04 #@! TO.N,MOTOR_IN*
X175895000Y-112595000D03*
G04 #@! TD*
D14*
G04 #@! TO.P,K1,7*
G04 #@! TO.N,MOTOR_OUT*
X172085000Y-126365000D03*
G04 #@! TO.P,K1,5*
G04 #@! TO.N,Net-(D1-Pad1)*
X172085000Y-121285000D03*
G04 #@! TO.P,K1,3*
G04 #@! TO.N,MOTOR_OUT*
X172085000Y-116205000D03*
D15*
G04 #@! TO.P,K1,1*
G04 #@! TO.N,MOTOR_DRY*
X172085000Y-111125000D03*
G04 #@! TD*
D16*
G04 #@! TO.P,JP1,1*
G04 #@! TO.N,MOTOR_DRY*
X153035000Y-111125000D03*
D17*
G04 #@! TO.P,JP1,2*
G04 #@! TO.N,Net-(JP1-Pad2)*
X155575000Y-111125000D03*
G04 #@! TO.P,JP1,3*
G04 #@! TO.N,MOTOR_TTL*
X158115000Y-111125000D03*
G04 #@! TD*
D18*
G04 #@! TO.N,MOTOR_OUT*
X153035000Y-118999000D03*
G04 #@! TO.N,Net-(JP1-Pad2)*
X166370000Y-111125000D03*
G04 #@! TO.N,Net-(K2-Pad6)*
X160655000Y-122174000D03*
X144526000Y-116967000D03*
G04 #@! TO.N,MOTOR_OUT*
X159385000Y-121285000D03*
X154432000Y-127635000D03*
X144145000Y-123825000D03*
X147955000Y-118110000D03*
G04 #@! TO.N,+5V*
X154686000Y-121920000D03*
X144145000Y-121920000D03*
G04 #@! TO.N,MOTOR_OUT*
X160655000Y-115316000D03*
G04 #@! TD*
D19*
G04 #@! TO.N,+5V*
X144145000Y-121920000D02*
X154686000Y-121920000D01*
G04 #@! TO.N,MOTOR_OUT*
X147389315Y-118110000D02*
X147955000Y-118110000D01*
X146881998Y-118110000D02*
X147389315Y-118110000D01*
X143419999Y-121571999D02*
X146881998Y-118110000D01*
X143419999Y-123099999D02*
X143419999Y-121571999D01*
X144145000Y-123825000D02*
X143419999Y-123099999D01*
X159385000Y-121285000D02*
X160655000Y-120015000D01*
X160655000Y-115316000D02*
X161544000Y-116205000D01*
X160655000Y-120015000D02*
X160655000Y-115316000D01*
X161544000Y-116205000D02*
X172085000Y-116205000D01*
X173195000Y-115095000D02*
X172085000Y-116205000D01*
X175895000Y-115095000D02*
X173195000Y-115095000D01*
X175855000Y-122595000D02*
X175895000Y-122595000D01*
X172085000Y-126365000D02*
X175855000Y-122595000D01*
X175895000Y-121195000D02*
X175895000Y-122595000D01*
X175895000Y-120095000D02*
X175895000Y-121195000D01*
X174594990Y-118919990D02*
X175770000Y-120095000D01*
X174594990Y-115170010D02*
X174594990Y-118919990D01*
X175770000Y-120095000D02*
X175895000Y-120095000D01*
X174670000Y-115095000D02*
X174594990Y-115170010D01*
X175895000Y-115095000D02*
X174670000Y-115095000D01*
X154997685Y-127635000D02*
X154432000Y-127635000D01*
X156267002Y-127635000D02*
X154997685Y-127635000D01*
X161380001Y-122522001D02*
X156267002Y-127635000D01*
X161380001Y-121629001D02*
X161380001Y-122522001D01*
X161036000Y-121285000D02*
X161380001Y-121629001D01*
X159385000Y-121285000D02*
X161036000Y-121285000D01*
G04 #@! TO.N,MOTOR_DRY*
X153035000Y-110025000D02*
X153035000Y-111125000D01*
X153840000Y-109220000D02*
X153035000Y-110025000D01*
X169230000Y-109220000D02*
X153840000Y-109220000D01*
X171135000Y-111125000D02*
X169230000Y-109220000D01*
X172085000Y-111125000D02*
X171135000Y-111125000D01*
G04 #@! TO.N,Net-(JP1-Pad2)*
X165970001Y-110725001D02*
X166370000Y-111125000D01*
X165100000Y-109855000D02*
X165970001Y-110725001D01*
X156845000Y-109855000D02*
X165100000Y-109855000D01*
X155575000Y-111125000D02*
X156845000Y-109855000D01*
G04 #@! TO.N,Net-(K2-Pad6)*
X159200998Y-122174000D02*
X160089315Y-122174000D01*
X153593999Y-116567001D02*
X159200998Y-122174000D01*
X160089315Y-122174000D02*
X160655000Y-122174000D01*
X144925999Y-116567001D02*
X153593999Y-116567001D01*
X144526000Y-116967000D02*
X144925999Y-116567001D01*
G04 #@! TD*
D20*
G04 #@! TO.N,MOTOR_OUT*
G36*
X152550530Y-109434669D02*
X152487071Y-109477071D01*
X152386518Y-109627560D01*
X152185000Y-109627560D01*
X151937235Y-109676843D01*
X151727191Y-109817191D01*
X151586843Y-110027235D01*
X151537560Y-110275000D01*
X151537560Y-111975000D01*
X151586843Y-112222765D01*
X151727191Y-112432809D01*
X151937235Y-112573157D01*
X152185000Y-112622440D01*
X153885000Y-112622440D01*
X154132765Y-112573157D01*
X154342809Y-112432809D01*
X154483157Y-112222765D01*
X154492184Y-112177381D01*
X154504375Y-112195625D01*
X154995582Y-112523839D01*
X155428744Y-112610000D01*
X155721256Y-112610000D01*
X156154418Y-112523839D01*
X156645625Y-112195625D01*
X156845000Y-111897239D01*
X157044375Y-112195625D01*
X157535582Y-112523839D01*
X157968744Y-112610000D01*
X158261256Y-112610000D01*
X158694418Y-112523839D01*
X159185625Y-112195625D01*
X159513839Y-111704418D01*
X159629092Y-111125000D01*
X159527647Y-110615000D01*
X164785199Y-110615000D01*
X165335000Y-111164802D01*
X165335000Y-111330874D01*
X165492569Y-111711280D01*
X165783720Y-112002431D01*
X166164126Y-112160000D01*
X166575874Y-112160000D01*
X166956280Y-112002431D01*
X167247431Y-111711280D01*
X167405000Y-111330874D01*
X167405000Y-110919126D01*
X167247431Y-110538720D01*
X166956280Y-110247569D01*
X166575874Y-110090000D01*
X166409802Y-110090000D01*
X166299802Y-109980000D01*
X168915199Y-109980000D01*
X170544671Y-111609473D01*
X170587071Y-111672929D01*
X170650527Y-111715329D01*
X170737560Y-111773483D01*
X170737560Y-111825000D01*
X170786843Y-112072765D01*
X170927191Y-112282809D01*
X171137235Y-112423157D01*
X171385000Y-112472440D01*
X172785000Y-112472440D01*
X173032765Y-112423157D01*
X173242809Y-112282809D01*
X173383157Y-112072765D01*
X173432440Y-111825000D01*
X173432440Y-110425000D01*
X173383157Y-110177235D01*
X173242809Y-109967191D01*
X173032765Y-109826843D01*
X172785000Y-109777560D01*
X171385000Y-109777560D01*
X171137235Y-109826843D01*
X171002004Y-109917202D01*
X170379801Y-109295000D01*
X177090000Y-109295000D01*
X177090000Y-111523957D01*
X176599418Y-111196161D01*
X176166256Y-111110000D01*
X175623744Y-111110000D01*
X175190582Y-111196161D01*
X174699375Y-111524375D01*
X174371161Y-112015582D01*
X174255908Y-112595000D01*
X174371161Y-113174418D01*
X174699375Y-113665625D01*
X174972687Y-113848246D01*
X174567503Y-114223807D01*
X174328524Y-114738110D01*
X174449845Y-114968000D01*
X175768000Y-114968000D01*
X175768000Y-114948000D01*
X176022000Y-114948000D01*
X176022000Y-114968000D01*
X176042000Y-114968000D01*
X176042000Y-115222000D01*
X176022000Y-115222000D01*
X176022000Y-115242000D01*
X175768000Y-115242000D01*
X175768000Y-115222000D01*
X174449845Y-115222000D01*
X174328524Y-115451890D01*
X174567503Y-115966193D01*
X174972687Y-116341754D01*
X174699375Y-116524375D01*
X174371161Y-117015582D01*
X174255908Y-117595000D01*
X174371161Y-118174418D01*
X174699375Y-118665625D01*
X174972687Y-118848246D01*
X174567503Y-119223807D01*
X174328524Y-119738110D01*
X174449845Y-119968000D01*
X175768000Y-119968000D01*
X175768000Y-119948000D01*
X176022000Y-119948000D01*
X176022000Y-119968000D01*
X176042000Y-119968000D01*
X176042000Y-120222000D01*
X176022000Y-120222000D01*
X176022000Y-122468000D01*
X176042000Y-122468000D01*
X176042000Y-122722000D01*
X176022000Y-122722000D01*
X176022000Y-122742000D01*
X175768000Y-122742000D01*
X175768000Y-122722000D01*
X174449845Y-122722000D01*
X174328524Y-122951890D01*
X174567503Y-123466193D01*
X174801211Y-123682815D01*
X174535414Y-123860414D01*
X174340874Y-124151565D01*
X174272560Y-124495000D01*
X174272560Y-125695000D01*
X174340874Y-126038435D01*
X174535414Y-126329586D01*
X174826565Y-126524126D01*
X175170000Y-126592440D01*
X176620000Y-126592440D01*
X176963435Y-126524126D01*
X177090001Y-126439558D01*
X177090001Y-128195000D01*
X137870000Y-128195000D01*
X137870000Y-126143003D01*
X138162429Y-126414053D01*
X138705733Y-126615320D01*
X138938000Y-126475165D01*
X138938000Y-125276000D01*
X139192000Y-125276000D01*
X139192000Y-126475165D01*
X139424267Y-126615320D01*
X139967571Y-126414053D01*
X140317716Y-126089506D01*
X145300000Y-126089506D01*
X145300000Y-126640494D01*
X145510853Y-127149540D01*
X145900460Y-127539147D01*
X146409506Y-127750000D01*
X146960494Y-127750000D01*
X147469540Y-127539147D01*
X147859147Y-127149540D01*
X148070000Y-126640494D01*
X148070000Y-126089506D01*
X150180000Y-126089506D01*
X150180000Y-126640494D01*
X150390853Y-127149540D01*
X150780460Y-127539147D01*
X151289506Y-127750000D01*
X151840494Y-127750000D01*
X152349540Y-127539147D01*
X152588412Y-127300275D01*
X171329331Y-127300275D01*
X171391169Y-127536042D01*
X171892122Y-127712419D01*
X172422440Y-127683664D01*
X172778831Y-127536042D01*
X172840669Y-127300275D01*
X172085000Y-126544605D01*
X171329331Y-127300275D01*
X152588412Y-127300275D01*
X152739147Y-127149540D01*
X152950000Y-126640494D01*
X152950000Y-126172122D01*
X170737581Y-126172122D01*
X170766336Y-126702440D01*
X170913958Y-127058831D01*
X171149725Y-127120669D01*
X171905395Y-126365000D01*
X172264605Y-126365000D01*
X173020275Y-127120669D01*
X173256042Y-127058831D01*
X173432419Y-126557878D01*
X173403664Y-126027560D01*
X173256042Y-125671169D01*
X173020275Y-125609331D01*
X172264605Y-126365000D01*
X171905395Y-126365000D01*
X171149725Y-125609331D01*
X170913958Y-125671169D01*
X170737581Y-126172122D01*
X152950000Y-126172122D01*
X152950000Y-126089506D01*
X152739147Y-125580460D01*
X152588412Y-125429725D01*
X171329331Y-125429725D01*
X172085000Y-126185395D01*
X172840669Y-125429725D01*
X172778831Y-125193958D01*
X172277878Y-125017581D01*
X171747560Y-125046336D01*
X171391169Y-125193958D01*
X171329331Y-125429725D01*
X152588412Y-125429725D01*
X152349540Y-125190853D01*
X151840494Y-124980000D01*
X151289506Y-124980000D01*
X150780460Y-125190853D01*
X150390853Y-125580460D01*
X150180000Y-126089506D01*
X148070000Y-126089506D01*
X147859147Y-125580460D01*
X147469540Y-125190853D01*
X146960494Y-124980000D01*
X146409506Y-124980000D01*
X145900460Y-125190853D01*
X145510853Y-125580460D01*
X145300000Y-126089506D01*
X140317716Y-126089506D01*
X140392497Y-126020193D01*
X140631476Y-125505890D01*
X140510155Y-125276000D01*
X139192000Y-125276000D01*
X138938000Y-125276000D01*
X138918000Y-125276000D01*
X138918000Y-125022000D01*
X138938000Y-125022000D01*
X138938000Y-125002000D01*
X139192000Y-125002000D01*
X139192000Y-125022000D01*
X140510155Y-125022000D01*
X140631476Y-124792110D01*
X140392497Y-124277807D01*
X139987313Y-123902246D01*
X140260625Y-123719625D01*
X140588839Y-123228418D01*
X140704092Y-122649000D01*
X140588839Y-122069582D01*
X140351331Y-121714126D01*
X143110000Y-121714126D01*
X143110000Y-122125874D01*
X143267569Y-122506280D01*
X143558720Y-122797431D01*
X143939126Y-122955000D01*
X144350874Y-122955000D01*
X144731280Y-122797431D01*
X144848711Y-122680000D01*
X153982289Y-122680000D01*
X154099720Y-122797431D01*
X154480126Y-122955000D01*
X154891874Y-122955000D01*
X155272280Y-122797431D01*
X155563431Y-122506280D01*
X155721000Y-122125874D01*
X155721000Y-121714126D01*
X155563431Y-121333720D01*
X155272280Y-121042569D01*
X154891874Y-120885000D01*
X154480126Y-120885000D01*
X154099720Y-121042569D01*
X153982289Y-121160000D01*
X144848711Y-121160000D01*
X144731280Y-121042569D01*
X144350874Y-120885000D01*
X143939126Y-120885000D01*
X143558720Y-121042569D01*
X143267569Y-121333720D01*
X143110000Y-121714126D01*
X140351331Y-121714126D01*
X140260625Y-121578375D01*
X139992171Y-121399000D01*
X140260625Y-121219625D01*
X140588839Y-120728418D01*
X140704092Y-120149000D01*
X140588839Y-119569582D01*
X140260625Y-119078375D01*
X139992171Y-118899000D01*
X140260625Y-118719625D01*
X140588839Y-118228418D01*
X140704092Y-117649000D01*
X140588839Y-117069582D01*
X140382736Y-116761126D01*
X143491000Y-116761126D01*
X143491000Y-117172874D01*
X143648569Y-117553280D01*
X143939720Y-117844431D01*
X144320126Y-118002000D01*
X144731874Y-118002000D01*
X145112280Y-117844431D01*
X145403431Y-117553280D01*
X145497159Y-117327001D01*
X153279198Y-117327001D01*
X158610669Y-122658473D01*
X158653069Y-122721929D01*
X158904461Y-122889904D01*
X159126146Y-122934000D01*
X159126150Y-122934000D01*
X159200997Y-122948888D01*
X159275844Y-122934000D01*
X159951289Y-122934000D01*
X160068720Y-123051431D01*
X160449126Y-123209000D01*
X160860874Y-123209000D01*
X161241280Y-123051431D01*
X161532431Y-122760280D01*
X161690000Y-122379874D01*
X161690000Y-121968126D01*
X161532431Y-121587720D01*
X161241280Y-121296569D01*
X160860874Y-121139000D01*
X160449126Y-121139000D01*
X160068720Y-121296569D01*
X159951289Y-121414000D01*
X159515800Y-121414000D01*
X159121252Y-121019452D01*
X170750000Y-121019452D01*
X170750000Y-121550548D01*
X170953242Y-122041217D01*
X171328783Y-122416758D01*
X171819452Y-122620000D01*
X172350548Y-122620000D01*
X172841217Y-122416758D01*
X173216758Y-122041217D01*
X173420000Y-121550548D01*
X173420000Y-121019452D01*
X173216758Y-120528783D01*
X173139865Y-120451890D01*
X174328524Y-120451890D01*
X174567503Y-120966193D01*
X174976189Y-121345000D01*
X174567503Y-121723807D01*
X174328524Y-122238110D01*
X174449845Y-122468000D01*
X175768000Y-122468000D01*
X175768000Y-120222000D01*
X174449845Y-120222000D01*
X174328524Y-120451890D01*
X173139865Y-120451890D01*
X172841217Y-120153242D01*
X172350548Y-119950000D01*
X171819452Y-119950000D01*
X171328783Y-120153242D01*
X170953242Y-120528783D01*
X170750000Y-121019452D01*
X159121252Y-121019452D01*
X155242075Y-117140275D01*
X171329331Y-117140275D01*
X171391169Y-117376042D01*
X171892122Y-117552419D01*
X172422440Y-117523664D01*
X172778831Y-117376042D01*
X172840669Y-117140275D01*
X172085000Y-116384605D01*
X171329331Y-117140275D01*
X155242075Y-117140275D01*
X154184330Y-116082531D01*
X154141928Y-116019072D01*
X154131527Y-116012122D01*
X170737581Y-116012122D01*
X170766336Y-116542440D01*
X170913958Y-116898831D01*
X171149725Y-116960669D01*
X171905395Y-116205000D01*
X172264605Y-116205000D01*
X173020275Y-116960669D01*
X173256042Y-116898831D01*
X173432419Y-116397878D01*
X173403664Y-115867560D01*
X173256042Y-115511169D01*
X173020275Y-115449331D01*
X172264605Y-116205000D01*
X171905395Y-116205000D01*
X171149725Y-115449331D01*
X170913958Y-115511169D01*
X170737581Y-116012122D01*
X154131527Y-116012122D01*
X153890536Y-115851097D01*
X153668851Y-115807001D01*
X153668846Y-115807001D01*
X153593999Y-115792113D01*
X153519152Y-115807001D01*
X145000845Y-115807001D01*
X144925998Y-115792113D01*
X144851151Y-115807001D01*
X144851147Y-115807001D01*
X144629462Y-115851097D01*
X144508382Y-115932000D01*
X144320126Y-115932000D01*
X143939720Y-116089569D01*
X143648569Y-116380720D01*
X143491000Y-116761126D01*
X140382736Y-116761126D01*
X140260625Y-116578375D01*
X139992171Y-116399000D01*
X140260625Y-116219625D01*
X140588839Y-115728418D01*
X140680078Y-115269725D01*
X171329331Y-115269725D01*
X172085000Y-116025395D01*
X172840669Y-115269725D01*
X172778831Y-115033958D01*
X172277878Y-114857581D01*
X171747560Y-114886336D01*
X171391169Y-115033958D01*
X171329331Y-115269725D01*
X140680078Y-115269725D01*
X140704092Y-115149000D01*
X140588839Y-114569582D01*
X140260625Y-114078375D01*
X140196844Y-114035758D01*
X140424586Y-113883586D01*
X140619126Y-113592435D01*
X140687440Y-113249000D01*
X140687440Y-112049000D01*
X140619126Y-111705565D01*
X140424586Y-111414414D01*
X140133435Y-111219874D01*
X139790000Y-111151560D01*
X138340000Y-111151560D01*
X137996565Y-111219874D01*
X137870000Y-111304442D01*
X137870000Y-109295000D01*
X152690199Y-109295000D01*
X152550530Y-109434669D01*
X152550530Y-109434669D01*
G37*
X152550530Y-109434669D02*
X152487071Y-109477071D01*
X152386518Y-109627560D01*
X152185000Y-109627560D01*
X151937235Y-109676843D01*
X151727191Y-109817191D01*
X151586843Y-110027235D01*
X151537560Y-110275000D01*
X151537560Y-111975000D01*
X151586843Y-112222765D01*
X151727191Y-112432809D01*
X151937235Y-112573157D01*
X152185000Y-112622440D01*
X153885000Y-112622440D01*
X154132765Y-112573157D01*
X154342809Y-112432809D01*
X154483157Y-112222765D01*
X154492184Y-112177381D01*
X154504375Y-112195625D01*
X154995582Y-112523839D01*
X155428744Y-112610000D01*
X155721256Y-112610000D01*
X156154418Y-112523839D01*
X156645625Y-112195625D01*
X156845000Y-111897239D01*
X157044375Y-112195625D01*
X157535582Y-112523839D01*
X157968744Y-112610000D01*
X158261256Y-112610000D01*
X158694418Y-112523839D01*
X159185625Y-112195625D01*
X159513839Y-111704418D01*
X159629092Y-111125000D01*
X159527647Y-110615000D01*
X164785199Y-110615000D01*
X165335000Y-111164802D01*
X165335000Y-111330874D01*
X165492569Y-111711280D01*
X165783720Y-112002431D01*
X166164126Y-112160000D01*
X166575874Y-112160000D01*
X166956280Y-112002431D01*
X167247431Y-111711280D01*
X167405000Y-111330874D01*
X167405000Y-110919126D01*
X167247431Y-110538720D01*
X166956280Y-110247569D01*
X166575874Y-110090000D01*
X166409802Y-110090000D01*
X166299802Y-109980000D01*
X168915199Y-109980000D01*
X170544671Y-111609473D01*
X170587071Y-111672929D01*
X170650527Y-111715329D01*
X170737560Y-111773483D01*
X170737560Y-111825000D01*
X170786843Y-112072765D01*
X170927191Y-112282809D01*
X171137235Y-112423157D01*
X171385000Y-112472440D01*
X172785000Y-112472440D01*
X173032765Y-112423157D01*
X173242809Y-112282809D01*
X173383157Y-112072765D01*
X173432440Y-111825000D01*
X173432440Y-110425000D01*
X173383157Y-110177235D01*
X173242809Y-109967191D01*
X173032765Y-109826843D01*
X172785000Y-109777560D01*
X171385000Y-109777560D01*
X171137235Y-109826843D01*
X171002004Y-109917202D01*
X170379801Y-109295000D01*
X177090000Y-109295000D01*
X177090000Y-111523957D01*
X176599418Y-111196161D01*
X176166256Y-111110000D01*
X175623744Y-111110000D01*
X175190582Y-111196161D01*
X174699375Y-111524375D01*
X174371161Y-112015582D01*
X174255908Y-112595000D01*
X174371161Y-113174418D01*
X174699375Y-113665625D01*
X174972687Y-113848246D01*
X174567503Y-114223807D01*
X174328524Y-114738110D01*
X174449845Y-114968000D01*
X175768000Y-114968000D01*
X175768000Y-114948000D01*
X176022000Y-114948000D01*
X176022000Y-114968000D01*
X176042000Y-114968000D01*
X176042000Y-115222000D01*
X176022000Y-115222000D01*
X176022000Y-115242000D01*
X175768000Y-115242000D01*
X175768000Y-115222000D01*
X174449845Y-115222000D01*
X174328524Y-115451890D01*
X174567503Y-115966193D01*
X174972687Y-116341754D01*
X174699375Y-116524375D01*
X174371161Y-117015582D01*
X174255908Y-117595000D01*
X174371161Y-118174418D01*
X174699375Y-118665625D01*
X174972687Y-118848246D01*
X174567503Y-119223807D01*
X174328524Y-119738110D01*
X174449845Y-119968000D01*
X175768000Y-119968000D01*
X175768000Y-119948000D01*
X176022000Y-119948000D01*
X176022000Y-119968000D01*
X176042000Y-119968000D01*
X176042000Y-120222000D01*
X176022000Y-120222000D01*
X176022000Y-122468000D01*
X176042000Y-122468000D01*
X176042000Y-122722000D01*
X176022000Y-122722000D01*
X176022000Y-122742000D01*
X175768000Y-122742000D01*
X175768000Y-122722000D01*
X174449845Y-122722000D01*
X174328524Y-122951890D01*
X174567503Y-123466193D01*
X174801211Y-123682815D01*
X174535414Y-123860414D01*
X174340874Y-124151565D01*
X174272560Y-124495000D01*
X174272560Y-125695000D01*
X174340874Y-126038435D01*
X174535414Y-126329586D01*
X174826565Y-126524126D01*
X175170000Y-126592440D01*
X176620000Y-126592440D01*
X176963435Y-126524126D01*
X177090001Y-126439558D01*
X177090001Y-128195000D01*
X137870000Y-128195000D01*
X137870000Y-126143003D01*
X138162429Y-126414053D01*
X138705733Y-126615320D01*
X138938000Y-126475165D01*
X138938000Y-125276000D01*
X139192000Y-125276000D01*
X139192000Y-126475165D01*
X139424267Y-126615320D01*
X139967571Y-126414053D01*
X140317716Y-126089506D01*
X145300000Y-126089506D01*
X145300000Y-126640494D01*
X145510853Y-127149540D01*
X145900460Y-127539147D01*
X146409506Y-127750000D01*
X146960494Y-127750000D01*
X147469540Y-127539147D01*
X147859147Y-127149540D01*
X148070000Y-126640494D01*
X148070000Y-126089506D01*
X150180000Y-126089506D01*
X150180000Y-126640494D01*
X150390853Y-127149540D01*
X150780460Y-127539147D01*
X151289506Y-127750000D01*
X151840494Y-127750000D01*
X152349540Y-127539147D01*
X152588412Y-127300275D01*
X171329331Y-127300275D01*
X171391169Y-127536042D01*
X171892122Y-127712419D01*
X172422440Y-127683664D01*
X172778831Y-127536042D01*
X172840669Y-127300275D01*
X172085000Y-126544605D01*
X171329331Y-127300275D01*
X152588412Y-127300275D01*
X152739147Y-127149540D01*
X152950000Y-126640494D01*
X152950000Y-126172122D01*
X170737581Y-126172122D01*
X170766336Y-126702440D01*
X170913958Y-127058831D01*
X171149725Y-127120669D01*
X171905395Y-126365000D01*
X172264605Y-126365000D01*
X173020275Y-127120669D01*
X173256042Y-127058831D01*
X173432419Y-126557878D01*
X173403664Y-126027560D01*
X173256042Y-125671169D01*
X173020275Y-125609331D01*
X172264605Y-126365000D01*
X171905395Y-126365000D01*
X171149725Y-125609331D01*
X170913958Y-125671169D01*
X170737581Y-126172122D01*
X152950000Y-126172122D01*
X152950000Y-126089506D01*
X152739147Y-125580460D01*
X152588412Y-125429725D01*
X171329331Y-125429725D01*
X172085000Y-126185395D01*
X172840669Y-125429725D01*
X172778831Y-125193958D01*
X172277878Y-125017581D01*
X171747560Y-125046336D01*
X171391169Y-125193958D01*
X171329331Y-125429725D01*
X152588412Y-125429725D01*
X152349540Y-125190853D01*
X151840494Y-124980000D01*
X151289506Y-124980000D01*
X150780460Y-125190853D01*
X150390853Y-125580460D01*
X150180000Y-126089506D01*
X148070000Y-126089506D01*
X147859147Y-125580460D01*
X147469540Y-125190853D01*
X146960494Y-124980000D01*
X146409506Y-124980000D01*
X145900460Y-125190853D01*
X145510853Y-125580460D01*
X145300000Y-126089506D01*
X140317716Y-126089506D01*
X140392497Y-126020193D01*
X140631476Y-125505890D01*
X140510155Y-125276000D01*
X139192000Y-125276000D01*
X138938000Y-125276000D01*
X138918000Y-125276000D01*
X138918000Y-125022000D01*
X138938000Y-125022000D01*
X138938000Y-125002000D01*
X139192000Y-125002000D01*
X139192000Y-125022000D01*
X140510155Y-125022000D01*
X140631476Y-124792110D01*
X140392497Y-124277807D01*
X139987313Y-123902246D01*
X140260625Y-123719625D01*
X140588839Y-123228418D01*
X140704092Y-122649000D01*
X140588839Y-122069582D01*
X140351331Y-121714126D01*
X143110000Y-121714126D01*
X143110000Y-122125874D01*
X143267569Y-122506280D01*
X143558720Y-122797431D01*
X143939126Y-122955000D01*
X144350874Y-122955000D01*
X144731280Y-122797431D01*
X144848711Y-122680000D01*
X153982289Y-122680000D01*
X154099720Y-122797431D01*
X154480126Y-122955000D01*
X154891874Y-122955000D01*
X155272280Y-122797431D01*
X155563431Y-122506280D01*
X155721000Y-122125874D01*
X155721000Y-121714126D01*
X155563431Y-121333720D01*
X155272280Y-121042569D01*
X154891874Y-120885000D01*
X154480126Y-120885000D01*
X154099720Y-121042569D01*
X153982289Y-121160000D01*
X144848711Y-121160000D01*
X144731280Y-121042569D01*
X144350874Y-120885000D01*
X143939126Y-120885000D01*
X143558720Y-121042569D01*
X143267569Y-121333720D01*
X143110000Y-121714126D01*
X140351331Y-121714126D01*
X140260625Y-121578375D01*
X139992171Y-121399000D01*
X140260625Y-121219625D01*
X140588839Y-120728418D01*
X140704092Y-120149000D01*
X140588839Y-119569582D01*
X140260625Y-119078375D01*
X139992171Y-118899000D01*
X140260625Y-118719625D01*
X140588839Y-118228418D01*
X140704092Y-117649000D01*
X140588839Y-117069582D01*
X140382736Y-116761126D01*
X143491000Y-116761126D01*
X143491000Y-117172874D01*
X143648569Y-117553280D01*
X143939720Y-117844431D01*
X144320126Y-118002000D01*
X144731874Y-118002000D01*
X145112280Y-117844431D01*
X145403431Y-117553280D01*
X145497159Y-117327001D01*
X153279198Y-117327001D01*
X158610669Y-122658473D01*
X158653069Y-122721929D01*
X158904461Y-122889904D01*
X159126146Y-122934000D01*
X159126150Y-122934000D01*
X159200997Y-122948888D01*
X159275844Y-122934000D01*
X159951289Y-122934000D01*
X160068720Y-123051431D01*
X160449126Y-123209000D01*
X160860874Y-123209000D01*
X161241280Y-123051431D01*
X161532431Y-122760280D01*
X161690000Y-122379874D01*
X161690000Y-121968126D01*
X161532431Y-121587720D01*
X161241280Y-121296569D01*
X160860874Y-121139000D01*
X160449126Y-121139000D01*
X160068720Y-121296569D01*
X159951289Y-121414000D01*
X159515800Y-121414000D01*
X159121252Y-121019452D01*
X170750000Y-121019452D01*
X170750000Y-121550548D01*
X170953242Y-122041217D01*
X171328783Y-122416758D01*
X171819452Y-122620000D01*
X172350548Y-122620000D01*
X172841217Y-122416758D01*
X173216758Y-122041217D01*
X173420000Y-121550548D01*
X173420000Y-121019452D01*
X173216758Y-120528783D01*
X173139865Y-120451890D01*
X174328524Y-120451890D01*
X174567503Y-120966193D01*
X174976189Y-121345000D01*
X174567503Y-121723807D01*
X174328524Y-122238110D01*
X174449845Y-122468000D01*
X175768000Y-122468000D01*
X175768000Y-120222000D01*
X174449845Y-120222000D01*
X174328524Y-120451890D01*
X173139865Y-120451890D01*
X172841217Y-120153242D01*
X172350548Y-119950000D01*
X171819452Y-119950000D01*
X171328783Y-120153242D01*
X170953242Y-120528783D01*
X170750000Y-121019452D01*
X159121252Y-121019452D01*
X155242075Y-117140275D01*
X171329331Y-117140275D01*
X171391169Y-117376042D01*
X171892122Y-117552419D01*
X172422440Y-117523664D01*
X172778831Y-117376042D01*
X172840669Y-117140275D01*
X172085000Y-116384605D01*
X171329331Y-117140275D01*
X155242075Y-117140275D01*
X154184330Y-116082531D01*
X154141928Y-116019072D01*
X154131527Y-116012122D01*
X170737581Y-116012122D01*
X170766336Y-116542440D01*
X170913958Y-116898831D01*
X171149725Y-116960669D01*
X171905395Y-116205000D01*
X172264605Y-116205000D01*
X173020275Y-116960669D01*
X173256042Y-116898831D01*
X173432419Y-116397878D01*
X173403664Y-115867560D01*
X173256042Y-115511169D01*
X173020275Y-115449331D01*
X172264605Y-116205000D01*
X171905395Y-116205000D01*
X171149725Y-115449331D01*
X170913958Y-115511169D01*
X170737581Y-116012122D01*
X154131527Y-116012122D01*
X153890536Y-115851097D01*
X153668851Y-115807001D01*
X153668846Y-115807001D01*
X153593999Y-115792113D01*
X153519152Y-115807001D01*
X145000845Y-115807001D01*
X144925998Y-115792113D01*
X144851151Y-115807001D01*
X144851147Y-115807001D01*
X144629462Y-115851097D01*
X144508382Y-115932000D01*
X144320126Y-115932000D01*
X143939720Y-116089569D01*
X143648569Y-116380720D01*
X143491000Y-116761126D01*
X140382736Y-116761126D01*
X140260625Y-116578375D01*
X139992171Y-116399000D01*
X140260625Y-116219625D01*
X140588839Y-115728418D01*
X140680078Y-115269725D01*
X171329331Y-115269725D01*
X172085000Y-116025395D01*
X172840669Y-115269725D01*
X172778831Y-115033958D01*
X172277878Y-114857581D01*
X171747560Y-114886336D01*
X171391169Y-115033958D01*
X171329331Y-115269725D01*
X140680078Y-115269725D01*
X140704092Y-115149000D01*
X140588839Y-114569582D01*
X140260625Y-114078375D01*
X140196844Y-114035758D01*
X140424586Y-113883586D01*
X140619126Y-113592435D01*
X140687440Y-113249000D01*
X140687440Y-112049000D01*
X140619126Y-111705565D01*
X140424586Y-111414414D01*
X140133435Y-111219874D01*
X139790000Y-111151560D01*
X138340000Y-111151560D01*
X137996565Y-111219874D01*
X137870000Y-111304442D01*
X137870000Y-109295000D01*
X152690199Y-109295000D01*
X152550530Y-109434669D01*
G04 #@! TD*
M02*
