G04 #@! TF.GenerationSoftware,KiCad,Pcbnew,(5.0.2-5)-5*
G04 #@! TF.CreationDate,2019-07-07T00:06:13+03:00*
G04 #@! TF.ProjectId,bike_motor_shim,62696b65-5f6d-46f7-946f-725f7368696d,rev?*
G04 #@! TF.SameCoordinates,Original*
G04 #@! TF.FileFunction,Legend,Top*
G04 #@! TF.FilePolarity,Positive*
%FSLAX46Y46*%
G04 Gerber Fmt 4.6, Leading zero omitted, Abs format (unit mm)*
G04 Created by KiCad (PCBNEW (5.0.2-5)-5) date 2019 July 07, Sunday 00:06:13*
%MOMM*%
%LPD*%
G01*
G04 APERTURE LIST*
%ADD10C,0.120000*%
%ADD11C,0.150000*%
%ADD12C,0.100000*%
G04 APERTURE END LIST*
D10*
G04 #@! TO.C,Y1*
X145925000Y-123840000D02*
X152325000Y-123840000D01*
X145925000Y-128890000D02*
X152325000Y-128890000D01*
X145925000Y-128890000D02*
G75*
G02X145925000Y-123840000I0J2525000D01*
G01*
X152325000Y-128890000D02*
G75*
G03X152325000Y-123840000I0J2525000D01*
G01*
G04 #@! TO.C,C1*
X157106252Y-126925000D02*
X156583748Y-126925000D01*
X157106252Y-128345000D02*
X156583748Y-128345000D01*
G04 #@! TO.C,C2*
X156583748Y-120575000D02*
X157106252Y-120575000D01*
X156583748Y-121995000D02*
X157106252Y-121995000D01*
G04 #@! TO.C,D1*
X156165000Y-117220000D02*
X156165000Y-113920000D01*
X156165000Y-113920000D02*
X149265000Y-113920000D01*
X156165000Y-117220000D02*
X149265000Y-117220000D01*
G04 #@! TO.C,R1*
X144070000Y-112021252D02*
X144070000Y-111498748D01*
X145490000Y-112021252D02*
X145490000Y-111498748D01*
G04 #@! TO.C,R2*
X157405000Y-115308748D02*
X157405000Y-115831252D01*
X158825000Y-115308748D02*
X158825000Y-115831252D01*
G04 #@! TO.C,R3*
X156583748Y-118035000D02*
X157106252Y-118035000D01*
X156583748Y-119455000D02*
X157106252Y-119455000D01*
D11*
G04 #@! TO.C,U1*
X148800000Y-122770000D02*
X148800000Y-122565000D01*
X143300000Y-122770000D02*
X143300000Y-122470000D01*
X143300000Y-117260000D02*
X143300000Y-117560000D01*
X148800000Y-117260000D02*
X148800000Y-117560000D01*
X148800000Y-122770000D02*
X143300000Y-122770000D01*
X148800000Y-117260000D02*
X143300000Y-117260000D01*
X148800000Y-122565000D02*
X150550000Y-122565000D01*
D10*
G04 #@! TO.C,U2*
X155265000Y-125220000D02*
X156195000Y-125220000D01*
X158425000Y-125220000D02*
X157495000Y-125220000D01*
X158425000Y-125220000D02*
X158425000Y-123060000D01*
X155265000Y-125220000D02*
X155265000Y-123760000D01*
G04 #@! TO.C,J2*
X131355000Y-118899000D02*
X131355000Y-110089000D01*
X131355000Y-110089000D02*
X143075000Y-110089000D01*
X143075000Y-110089000D02*
X143075000Y-111509000D01*
X143075000Y-111509000D02*
X138575000Y-111509000D01*
X131355000Y-118899000D02*
X131355000Y-127709000D01*
X131355000Y-127709000D02*
X143075000Y-127709000D01*
X143075000Y-127709000D02*
X143075000Y-126289000D01*
X143075000Y-126289000D02*
X138575000Y-126289000D01*
X137465000Y-112399000D02*
X131965000Y-112399000D01*
X131965000Y-112399000D02*
X131965000Y-112899000D01*
X131965000Y-112899000D02*
X137465000Y-112899000D01*
X137465000Y-112899000D02*
X137465000Y-112399000D01*
X137465000Y-114899000D02*
X131965000Y-114899000D01*
X131965000Y-114899000D02*
X131965000Y-115399000D01*
X131965000Y-115399000D02*
X137465000Y-115399000D01*
X137465000Y-115399000D02*
X137465000Y-114899000D01*
X137465000Y-117399000D02*
X131965000Y-117399000D01*
X131965000Y-117399000D02*
X131965000Y-117899000D01*
X131965000Y-117899000D02*
X137465000Y-117899000D01*
X137465000Y-117899000D02*
X137465000Y-117399000D01*
X137465000Y-119899000D02*
X131965000Y-119899000D01*
X131965000Y-119899000D02*
X131965000Y-120399000D01*
X131965000Y-120399000D02*
X137465000Y-120399000D01*
X137465000Y-120399000D02*
X137465000Y-119899000D01*
X137465000Y-122399000D02*
X131965000Y-122399000D01*
X131965000Y-122399000D02*
X131965000Y-122899000D01*
X131965000Y-122899000D02*
X137465000Y-122899000D01*
X137465000Y-122899000D02*
X137465000Y-122399000D01*
X137465000Y-124899000D02*
X131965000Y-124899000D01*
X131965000Y-124899000D02*
X131965000Y-125399000D01*
X131965000Y-125399000D02*
X137465000Y-125399000D01*
X137465000Y-125399000D02*
X137465000Y-124899000D01*
X140565000Y-112649000D02*
X141165000Y-112349000D01*
X141165000Y-112349000D02*
X141165000Y-112949000D01*
X141165000Y-112949000D02*
X140565000Y-112649000D01*
G04 #@! TO.C,J1*
X183605000Y-118845000D02*
X183605000Y-127655000D01*
X183605000Y-127655000D02*
X171885000Y-127655000D01*
X171885000Y-127655000D02*
X171885000Y-126235000D01*
X171885000Y-126235000D02*
X176385000Y-126235000D01*
X183605000Y-118845000D02*
X183605000Y-110035000D01*
X183605000Y-110035000D02*
X171885000Y-110035000D01*
X171885000Y-110035000D02*
X171885000Y-111455000D01*
X171885000Y-111455000D02*
X176385000Y-111455000D01*
X177495000Y-125345000D02*
X182995000Y-125345000D01*
X182995000Y-125345000D02*
X182995000Y-124845000D01*
X182995000Y-124845000D02*
X177495000Y-124845000D01*
X177495000Y-124845000D02*
X177495000Y-125345000D01*
X177495000Y-122845000D02*
X182995000Y-122845000D01*
X182995000Y-122845000D02*
X182995000Y-122345000D01*
X182995000Y-122345000D02*
X177495000Y-122345000D01*
X177495000Y-122345000D02*
X177495000Y-122845000D01*
X177495000Y-120345000D02*
X182995000Y-120345000D01*
X182995000Y-120345000D02*
X182995000Y-119845000D01*
X182995000Y-119845000D02*
X177495000Y-119845000D01*
X177495000Y-119845000D02*
X177495000Y-120345000D01*
X177495000Y-117845000D02*
X182995000Y-117845000D01*
X182995000Y-117845000D02*
X182995000Y-117345000D01*
X182995000Y-117345000D02*
X177495000Y-117345000D01*
X177495000Y-117345000D02*
X177495000Y-117845000D01*
X177495000Y-115345000D02*
X182995000Y-115345000D01*
X182995000Y-115345000D02*
X182995000Y-114845000D01*
X182995000Y-114845000D02*
X177495000Y-114845000D01*
X177495000Y-114845000D02*
X177495000Y-115345000D01*
X177495000Y-112845000D02*
X182995000Y-112845000D01*
X182995000Y-112845000D02*
X182995000Y-112345000D01*
X182995000Y-112345000D02*
X177495000Y-112345000D01*
X177495000Y-112345000D02*
X177495000Y-112845000D01*
X174395000Y-125095000D02*
X173795000Y-125395000D01*
X173795000Y-125395000D02*
X173795000Y-124795000D01*
X173795000Y-124795000D02*
X174395000Y-125095000D01*
G04 #@! TO.C,K1*
X169285000Y-108575000D02*
X170285000Y-108575000D01*
X169285000Y-109675000D02*
X169285000Y-108575000D01*
X169485000Y-108775000D02*
X174685000Y-108775000D01*
X169485000Y-128675000D02*
X169485000Y-108775000D01*
X174685000Y-128675000D02*
X169485000Y-128675000D01*
X174685000Y-108775000D02*
X174685000Y-128675000D01*
G04 #@! TO.C,C3*
X142950000Y-124833748D02*
X142950000Y-125356252D01*
X141530000Y-124833748D02*
X141530000Y-125356252D01*
G04 #@! TO.C,C4*
X152325000Y-121023748D02*
X152325000Y-121546252D01*
X153745000Y-121023748D02*
X153745000Y-121546252D01*
G04 #@! TO.C,D2*
X148280000Y-113620000D02*
X148280000Y-110760000D01*
X146360000Y-113620000D02*
X148280000Y-113620000D01*
X146360000Y-110760000D02*
X146360000Y-113620000D01*
G04 #@! TO.C,D3*
X148900000Y-110760000D02*
X148900000Y-113620000D01*
X148900000Y-113620000D02*
X150820000Y-113620000D01*
X150820000Y-113620000D02*
X150820000Y-110760000D01*
G04 #@! TO.C,JP1*
X159445000Y-112455000D02*
X159445000Y-109795000D01*
X154305000Y-112455000D02*
X159445000Y-112455000D01*
X154305000Y-109795000D02*
X159445000Y-109795000D01*
X154305000Y-112455000D02*
X154305000Y-109795000D01*
X153035000Y-112455000D02*
X151705000Y-112455000D01*
X151705000Y-112455000D02*
X151705000Y-111125000D01*
G04 #@! TO.C,R4*
X142950000Y-112021252D02*
X142950000Y-111498748D01*
X141530000Y-112021252D02*
X141530000Y-111498748D01*
G04 #@! TO.C,R5*
X143248748Y-114860000D02*
X143771252Y-114860000D01*
X143248748Y-116280000D02*
X143771252Y-116280000D01*
G04 #@! TO.C,K2*
X165465000Y-109795000D02*
G75*
G02X163465000Y-109795000I-1000000J0D01*
G01*
X163465000Y-109795000D02*
X162015000Y-109795000D01*
X162015000Y-109795000D02*
X162015000Y-127695000D01*
X162015000Y-127695000D02*
X166915000Y-127695000D01*
X166915000Y-127695000D02*
X166915000Y-109795000D01*
X166915000Y-109795000D02*
X165465000Y-109795000D01*
G04 #@! TO.C,Y1*
D11*
X148748809Y-127611190D02*
X148748809Y-128087380D01*
X148415476Y-127087380D02*
X148748809Y-127611190D01*
X149082142Y-127087380D01*
X149939285Y-128087380D02*
X149367857Y-128087380D01*
X149653571Y-128087380D02*
X149653571Y-127087380D01*
X149558333Y-127230238D01*
X149463095Y-127325476D01*
X149367857Y-127373095D01*
G04 #@! TO.C,C1*
D12*
X158523000Y-126579285D02*
X158494428Y-126607857D01*
X158408714Y-126636428D01*
X158351571Y-126636428D01*
X158265857Y-126607857D01*
X158208714Y-126550714D01*
X158180142Y-126493571D01*
X158151571Y-126379285D01*
X158151571Y-126293571D01*
X158180142Y-126179285D01*
X158208714Y-126122142D01*
X158265857Y-126065000D01*
X158351571Y-126036428D01*
X158408714Y-126036428D01*
X158494428Y-126065000D01*
X158523000Y-126093571D01*
X159094428Y-126636428D02*
X158751571Y-126636428D01*
X158923000Y-126636428D02*
X158923000Y-126036428D01*
X158865857Y-126122142D01*
X158808714Y-126179285D01*
X158751571Y-126207857D01*
X159239000Y-128668428D02*
X158896142Y-128668428D01*
X159067571Y-128668428D02*
X159067571Y-128068428D01*
X159010428Y-128154142D01*
X158953285Y-128211285D01*
X158896142Y-128239857D01*
X159496142Y-128268428D02*
X159496142Y-128868428D01*
X159781857Y-128582714D02*
X159810428Y-128639857D01*
X159867571Y-128668428D01*
X159496142Y-128582714D02*
X159524714Y-128639857D01*
X159581857Y-128668428D01*
X159696142Y-128668428D01*
X159753285Y-128639857D01*
X159781857Y-128582714D01*
X159781857Y-128268428D01*
X160324714Y-128354142D02*
X160124714Y-128354142D01*
X160124714Y-128668428D02*
X160124714Y-128068428D01*
X160410428Y-128068428D01*
G04 #@! TO.C,C2*
X159412000Y-121118285D02*
X159383428Y-121146857D01*
X159297714Y-121175428D01*
X159240571Y-121175428D01*
X159154857Y-121146857D01*
X159097714Y-121089714D01*
X159069142Y-121032571D01*
X159040571Y-120918285D01*
X159040571Y-120832571D01*
X159069142Y-120718285D01*
X159097714Y-120661142D01*
X159154857Y-120604000D01*
X159240571Y-120575428D01*
X159297714Y-120575428D01*
X159383428Y-120604000D01*
X159412000Y-120632571D01*
X159640571Y-120632571D02*
X159669142Y-120604000D01*
X159726285Y-120575428D01*
X159869142Y-120575428D01*
X159926285Y-120604000D01*
X159954857Y-120632571D01*
X159983428Y-120689714D01*
X159983428Y-120746857D01*
X159954857Y-120832571D01*
X159612000Y-121175428D01*
X159983428Y-121175428D01*
X159112000Y-122191428D02*
X158769142Y-122191428D01*
X158940571Y-122191428D02*
X158940571Y-121591428D01*
X158883428Y-121677142D01*
X158826285Y-121734285D01*
X158769142Y-121762857D01*
X159369142Y-121791428D02*
X159369142Y-122391428D01*
X159654857Y-122105714D02*
X159683428Y-122162857D01*
X159740571Y-122191428D01*
X159369142Y-122105714D02*
X159397714Y-122162857D01*
X159454857Y-122191428D01*
X159569142Y-122191428D01*
X159626285Y-122162857D01*
X159654857Y-122105714D01*
X159654857Y-121791428D01*
X160197714Y-121877142D02*
X159997714Y-121877142D01*
X159997714Y-122191428D02*
X159997714Y-121591428D01*
X160283428Y-121591428D01*
G04 #@! TO.C,D1*
X154497142Y-113555428D02*
X154497142Y-112955428D01*
X154640000Y-112955428D01*
X154725714Y-112984000D01*
X154782857Y-113041142D01*
X154811428Y-113098285D01*
X154840000Y-113212571D01*
X154840000Y-113298285D01*
X154811428Y-113412571D01*
X154782857Y-113469714D01*
X154725714Y-113526857D01*
X154640000Y-113555428D01*
X154497142Y-113555428D01*
X155411428Y-113555428D02*
X155068571Y-113555428D01*
X155240000Y-113555428D02*
X155240000Y-112955428D01*
X155182857Y-113041142D01*
X155125714Y-113098285D01*
X155068571Y-113126857D01*
G04 #@! TO.C,R1*
X144543428Y-114400000D02*
X144257714Y-114600000D01*
X144543428Y-114742857D02*
X143943428Y-114742857D01*
X143943428Y-114514285D01*
X143972000Y-114457142D01*
X144000571Y-114428571D01*
X144057714Y-114400000D01*
X144143428Y-114400000D01*
X144200571Y-114428571D01*
X144229142Y-114457142D01*
X144257714Y-114514285D01*
X144257714Y-114742857D01*
X144543428Y-113828571D02*
X144543428Y-114171428D01*
X144543428Y-114000000D02*
X143943428Y-114000000D01*
X144029142Y-114057142D01*
X144086285Y-114114285D01*
X144114857Y-114171428D01*
X145559428Y-114371428D02*
X145559428Y-114714285D01*
X145559428Y-114542857D02*
X144959428Y-114542857D01*
X145045142Y-114600000D01*
X145102285Y-114657142D01*
X145130857Y-114714285D01*
X145559428Y-114114285D02*
X144959428Y-114114285D01*
X145330857Y-114057142D02*
X145559428Y-113885714D01*
X145159428Y-113885714D02*
X145388000Y-114114285D01*
G04 #@! TO.C,R2*
X159910428Y-116686000D02*
X159624714Y-116886000D01*
X159910428Y-117028857D02*
X159310428Y-117028857D01*
X159310428Y-116800285D01*
X159339000Y-116743142D01*
X159367571Y-116714571D01*
X159424714Y-116686000D01*
X159510428Y-116686000D01*
X159567571Y-116714571D01*
X159596142Y-116743142D01*
X159624714Y-116800285D01*
X159624714Y-117028857D01*
X159367571Y-116457428D02*
X159339000Y-116428857D01*
X159310428Y-116371714D01*
X159310428Y-116228857D01*
X159339000Y-116171714D01*
X159367571Y-116143142D01*
X159424714Y-116114571D01*
X159481857Y-116114571D01*
X159567571Y-116143142D01*
X159910428Y-116486000D01*
X159910428Y-116114571D01*
X160383571Y-117074857D02*
X160355000Y-117046285D01*
X160326428Y-116989142D01*
X160326428Y-116846285D01*
X160355000Y-116789142D01*
X160383571Y-116760571D01*
X160440714Y-116732000D01*
X160497857Y-116732000D01*
X160583571Y-116760571D01*
X160926428Y-117103428D01*
X160926428Y-116732000D01*
X160383571Y-116503428D02*
X160355000Y-116474857D01*
X160326428Y-116417714D01*
X160326428Y-116274857D01*
X160355000Y-116217714D01*
X160383571Y-116189142D01*
X160440714Y-116160571D01*
X160497857Y-116160571D01*
X160583571Y-116189142D01*
X160926428Y-116532000D01*
X160926428Y-116160571D01*
X160326428Y-115789142D02*
X160326428Y-115732000D01*
X160355000Y-115674857D01*
X160383571Y-115646285D01*
X160440714Y-115617714D01*
X160555000Y-115589142D01*
X160697857Y-115589142D01*
X160812142Y-115617714D01*
X160869285Y-115646285D01*
X160897857Y-115674857D01*
X160926428Y-115732000D01*
X160926428Y-115789142D01*
X160897857Y-115846285D01*
X160869285Y-115874857D01*
X160812142Y-115903428D01*
X160697857Y-115932000D01*
X160555000Y-115932000D01*
X160440714Y-115903428D01*
X160383571Y-115874857D01*
X160355000Y-115846285D01*
X160326428Y-115789142D01*
G04 #@! TO.C,R3*
X159412000Y-118635428D02*
X159212000Y-118349714D01*
X159069142Y-118635428D02*
X159069142Y-118035428D01*
X159297714Y-118035428D01*
X159354857Y-118064000D01*
X159383428Y-118092571D01*
X159412000Y-118149714D01*
X159412000Y-118235428D01*
X159383428Y-118292571D01*
X159354857Y-118321142D01*
X159297714Y-118349714D01*
X159069142Y-118349714D01*
X159612000Y-118035428D02*
X159983428Y-118035428D01*
X159783428Y-118264000D01*
X159869142Y-118264000D01*
X159926285Y-118292571D01*
X159954857Y-118321142D01*
X159983428Y-118378285D01*
X159983428Y-118521142D01*
X159954857Y-118578285D01*
X159926285Y-118606857D01*
X159869142Y-118635428D01*
X159697714Y-118635428D01*
X159640571Y-118606857D01*
X159612000Y-118578285D01*
X158769142Y-119108571D02*
X158797714Y-119080000D01*
X158854857Y-119051428D01*
X158997714Y-119051428D01*
X159054857Y-119080000D01*
X159083428Y-119108571D01*
X159112000Y-119165714D01*
X159112000Y-119222857D01*
X159083428Y-119308571D01*
X158740571Y-119651428D01*
X159112000Y-119651428D01*
X159340571Y-119108571D02*
X159369142Y-119080000D01*
X159426285Y-119051428D01*
X159569142Y-119051428D01*
X159626285Y-119080000D01*
X159654857Y-119108571D01*
X159683428Y-119165714D01*
X159683428Y-119222857D01*
X159654857Y-119308571D01*
X159312000Y-119651428D01*
X159683428Y-119651428D01*
X160054857Y-119051428D02*
X160112000Y-119051428D01*
X160169142Y-119080000D01*
X160197714Y-119108571D01*
X160226285Y-119165714D01*
X160254857Y-119280000D01*
X160254857Y-119422857D01*
X160226285Y-119537142D01*
X160197714Y-119594285D01*
X160169142Y-119622857D01*
X160112000Y-119651428D01*
X160054857Y-119651428D01*
X159997714Y-119622857D01*
X159969142Y-119594285D01*
X159940571Y-119537142D01*
X159912000Y-119422857D01*
X159912000Y-119280000D01*
X159940571Y-119165714D01*
X159969142Y-119108571D01*
X159997714Y-119080000D01*
X160054857Y-119051428D01*
G04 #@! TO.C,U1*
D11*
X145288095Y-120737380D02*
X145288095Y-121546904D01*
X145335714Y-121642142D01*
X145383333Y-121689761D01*
X145478571Y-121737380D01*
X145669047Y-121737380D01*
X145764285Y-121689761D01*
X145811904Y-121642142D01*
X145859523Y-121546904D01*
X145859523Y-120737380D01*
X146859523Y-121737380D02*
X146288095Y-121737380D01*
X146573809Y-121737380D02*
X146573809Y-120737380D01*
X146478571Y-120880238D01*
X146383333Y-120975476D01*
X146288095Y-121023095D01*
G04 #@! TO.C,U2*
D12*
X154101857Y-123242428D02*
X154101857Y-123728142D01*
X154130428Y-123785285D01*
X154159000Y-123813857D01*
X154216142Y-123842428D01*
X154330428Y-123842428D01*
X154387571Y-123813857D01*
X154416142Y-123785285D01*
X154444714Y-123728142D01*
X154444714Y-123242428D01*
X154701857Y-123299571D02*
X154730428Y-123271000D01*
X154787571Y-123242428D01*
X154930428Y-123242428D01*
X154987571Y-123271000D01*
X155016142Y-123299571D01*
X155044714Y-123356714D01*
X155044714Y-123413857D01*
X155016142Y-123499571D01*
X154673285Y-123842428D01*
X155044714Y-123842428D01*
G04 #@! TO.C,J2*
D11*
X137882380Y-111077333D02*
X138596666Y-111077333D01*
X138739523Y-111124952D01*
X138834761Y-111220190D01*
X138882380Y-111363047D01*
X138882380Y-111458285D01*
X137977619Y-110648761D02*
X137930000Y-110601142D01*
X137882380Y-110505904D01*
X137882380Y-110267809D01*
X137930000Y-110172571D01*
X137977619Y-110124952D01*
X138072857Y-110077333D01*
X138168095Y-110077333D01*
X138310952Y-110124952D01*
X138882380Y-110696380D01*
X138882380Y-110077333D01*
G04 #@! TO.C,J1*
X175728380Y-127841333D02*
X176442666Y-127841333D01*
X176585523Y-127888952D01*
X176680761Y-127984190D01*
X176728380Y-128127047D01*
X176728380Y-128222285D01*
X176728380Y-126841333D02*
X176728380Y-127412761D01*
X176728380Y-127127047D02*
X175728380Y-127127047D01*
X175871238Y-127222285D01*
X175966476Y-127317523D01*
X176014095Y-127412761D01*
G04 #@! TO.C,K1*
X176187380Y-119613095D02*
X175187380Y-119613095D01*
X176187380Y-119041666D02*
X175615952Y-119470238D01*
X175187380Y-119041666D02*
X175758809Y-119613095D01*
X176187380Y-118089285D02*
X176187380Y-118660714D01*
X176187380Y-118375000D02*
X175187380Y-118375000D01*
X175330238Y-118470238D01*
X175425476Y-118565476D01*
X175473095Y-118660714D01*
G04 #@! TO.C,C3*
D12*
X141946285Y-127608000D02*
X141974857Y-127636571D01*
X142003428Y-127722285D01*
X142003428Y-127779428D01*
X141974857Y-127865142D01*
X141917714Y-127922285D01*
X141860571Y-127950857D01*
X141746285Y-127979428D01*
X141660571Y-127979428D01*
X141546285Y-127950857D01*
X141489142Y-127922285D01*
X141432000Y-127865142D01*
X141403428Y-127779428D01*
X141403428Y-127722285D01*
X141432000Y-127636571D01*
X141460571Y-127608000D01*
X141403428Y-127408000D02*
X141403428Y-127036571D01*
X141632000Y-127236571D01*
X141632000Y-127150857D01*
X141660571Y-127093714D01*
X141689142Y-127065142D01*
X141746285Y-127036571D01*
X141889142Y-127036571D01*
X141946285Y-127065142D01*
X141974857Y-127093714D01*
X142003428Y-127150857D01*
X142003428Y-127322285D01*
X141974857Y-127379428D01*
X141946285Y-127408000D01*
X142476571Y-128493714D02*
X142448000Y-128465142D01*
X142419428Y-128408000D01*
X142419428Y-128265142D01*
X142448000Y-128208000D01*
X142476571Y-128179428D01*
X142533714Y-128150857D01*
X142590857Y-128150857D01*
X142676571Y-128179428D01*
X143019428Y-128522285D01*
X143019428Y-128150857D01*
X142476571Y-127922285D02*
X142448000Y-127893714D01*
X142419428Y-127836571D01*
X142419428Y-127693714D01*
X142448000Y-127636571D01*
X142476571Y-127608000D01*
X142533714Y-127579428D01*
X142590857Y-127579428D01*
X142676571Y-127608000D01*
X143019428Y-127950857D01*
X143019428Y-127579428D01*
X142619428Y-127322285D02*
X143219428Y-127322285D01*
X142648000Y-127322285D02*
X142619428Y-127265142D01*
X142619428Y-127150857D01*
X142648000Y-127093714D01*
X142676571Y-127065142D01*
X142733714Y-127036571D01*
X142905142Y-127036571D01*
X142962285Y-127065142D01*
X142990857Y-127093714D01*
X143019428Y-127150857D01*
X143019428Y-127265142D01*
X142990857Y-127322285D01*
X142705142Y-126579428D02*
X142705142Y-126779428D01*
X143019428Y-126779428D02*
X142419428Y-126779428D01*
X142419428Y-126493714D01*
G04 #@! TO.C,C4*
X152614285Y-118972000D02*
X152642857Y-119000571D01*
X152671428Y-119086285D01*
X152671428Y-119143428D01*
X152642857Y-119229142D01*
X152585714Y-119286285D01*
X152528571Y-119314857D01*
X152414285Y-119343428D01*
X152328571Y-119343428D01*
X152214285Y-119314857D01*
X152157142Y-119286285D01*
X152100000Y-119229142D01*
X152071428Y-119143428D01*
X152071428Y-119086285D01*
X152100000Y-119000571D01*
X152128571Y-118972000D01*
X152271428Y-118457714D02*
X152671428Y-118457714D01*
X152042857Y-118600571D02*
X152471428Y-118743428D01*
X152471428Y-118372000D01*
X153144571Y-119349714D02*
X153116000Y-119321142D01*
X153087428Y-119264000D01*
X153087428Y-119121142D01*
X153116000Y-119064000D01*
X153144571Y-119035428D01*
X153201714Y-119006857D01*
X153258857Y-119006857D01*
X153344571Y-119035428D01*
X153687428Y-119378285D01*
X153687428Y-119006857D01*
X153144571Y-118778285D02*
X153116000Y-118749714D01*
X153087428Y-118692571D01*
X153087428Y-118549714D01*
X153116000Y-118492571D01*
X153144571Y-118464000D01*
X153201714Y-118435428D01*
X153258857Y-118435428D01*
X153344571Y-118464000D01*
X153687428Y-118806857D01*
X153687428Y-118435428D01*
X153287428Y-118178285D02*
X153887428Y-118178285D01*
X153316000Y-118178285D02*
X153287428Y-118121142D01*
X153287428Y-118006857D01*
X153316000Y-117949714D01*
X153344571Y-117921142D01*
X153401714Y-117892571D01*
X153573142Y-117892571D01*
X153630285Y-117921142D01*
X153658857Y-117949714D01*
X153687428Y-118006857D01*
X153687428Y-118121142D01*
X153658857Y-118178285D01*
X153373142Y-117435428D02*
X153373142Y-117635428D01*
X153687428Y-117635428D02*
X153087428Y-117635428D01*
X153087428Y-117349714D01*
G04 #@! TO.C,D2*
X146829428Y-114742857D02*
X146229428Y-114742857D01*
X146229428Y-114600000D01*
X146258000Y-114514285D01*
X146315142Y-114457142D01*
X146372285Y-114428571D01*
X146486571Y-114400000D01*
X146572285Y-114400000D01*
X146686571Y-114428571D01*
X146743714Y-114457142D01*
X146800857Y-114514285D01*
X146829428Y-114600000D01*
X146829428Y-114742857D01*
X146286571Y-114171428D02*
X146258000Y-114142857D01*
X146229428Y-114085714D01*
X146229428Y-113942857D01*
X146258000Y-113885714D01*
X146286571Y-113857142D01*
X146343714Y-113828571D01*
X146400857Y-113828571D01*
X146486571Y-113857142D01*
X146829428Y-114200000D01*
X146829428Y-113828571D01*
X147972428Y-114487285D02*
X147372428Y-114487285D01*
X147972428Y-114201571D02*
X147372428Y-114201571D01*
X147972428Y-113858714D01*
X147372428Y-113858714D01*
G04 #@! TO.C,D3*
X151655428Y-113472857D02*
X151055428Y-113472857D01*
X151055428Y-113330000D01*
X151084000Y-113244285D01*
X151141142Y-113187142D01*
X151198285Y-113158571D01*
X151312571Y-113130000D01*
X151398285Y-113130000D01*
X151512571Y-113158571D01*
X151569714Y-113187142D01*
X151626857Y-113244285D01*
X151655428Y-113330000D01*
X151655428Y-113472857D01*
X151055428Y-112930000D02*
X151055428Y-112558571D01*
X151284000Y-112758571D01*
X151284000Y-112672857D01*
X151312571Y-112615714D01*
X151341142Y-112587142D01*
X151398285Y-112558571D01*
X151541142Y-112558571D01*
X151598285Y-112587142D01*
X151626857Y-112615714D01*
X151655428Y-112672857D01*
X151655428Y-112844285D01*
X151626857Y-112901428D01*
X151598285Y-112930000D01*
X151055428Y-111344000D02*
X151055428Y-111229714D01*
X151084000Y-111172571D01*
X151141142Y-111115428D01*
X151255428Y-111086857D01*
X151455428Y-111086857D01*
X151569714Y-111115428D01*
X151626857Y-111172571D01*
X151655428Y-111229714D01*
X151655428Y-111344000D01*
X151626857Y-111401142D01*
X151569714Y-111458285D01*
X151455428Y-111486857D01*
X151255428Y-111486857D01*
X151141142Y-111458285D01*
X151084000Y-111401142D01*
X151055428Y-111344000D01*
X151055428Y-110829714D02*
X151541142Y-110829714D01*
X151598285Y-110801142D01*
X151626857Y-110772571D01*
X151655428Y-110715428D01*
X151655428Y-110601142D01*
X151626857Y-110544000D01*
X151598285Y-110515428D01*
X151541142Y-110486857D01*
X151055428Y-110486857D01*
X151055428Y-110286857D02*
X151055428Y-109944000D01*
X151655428Y-110115428D02*
X151055428Y-110115428D01*
G04 #@! TO.C,JP1*
X157615000Y-112701428D02*
X157615000Y-113130000D01*
X157586428Y-113215714D01*
X157529285Y-113272857D01*
X157443571Y-113301428D01*
X157386428Y-113301428D01*
X157900714Y-113301428D02*
X157900714Y-112701428D01*
X158129285Y-112701428D01*
X158186428Y-112730000D01*
X158215000Y-112758571D01*
X158243571Y-112815714D01*
X158243571Y-112901428D01*
X158215000Y-112958571D01*
X158186428Y-112987142D01*
X158129285Y-113015714D01*
X157900714Y-113015714D01*
X158815000Y-113301428D02*
X158472142Y-113301428D01*
X158643571Y-113301428D02*
X158643571Y-112701428D01*
X158586428Y-112787142D01*
X158529285Y-112844285D01*
X158472142Y-112872857D01*
G04 #@! TO.C,R4*
X142003428Y-114400000D02*
X141717714Y-114600000D01*
X142003428Y-114742857D02*
X141403428Y-114742857D01*
X141403428Y-114514285D01*
X141432000Y-114457142D01*
X141460571Y-114428571D01*
X141517714Y-114400000D01*
X141603428Y-114400000D01*
X141660571Y-114428571D01*
X141689142Y-114457142D01*
X141717714Y-114514285D01*
X141717714Y-114742857D01*
X141603428Y-113885714D02*
X142003428Y-113885714D01*
X141374857Y-114028571D02*
X141803428Y-114171428D01*
X141803428Y-113800000D01*
X143019428Y-114371428D02*
X143019428Y-114714285D01*
X143019428Y-114542857D02*
X142419428Y-114542857D01*
X142505142Y-114600000D01*
X142562285Y-114657142D01*
X142590857Y-114714285D01*
X143019428Y-114114285D02*
X142419428Y-114114285D01*
X142790857Y-114057142D02*
X143019428Y-113885714D01*
X142619428Y-113885714D02*
X142848000Y-114114285D01*
G04 #@! TO.C,R5*
X146204000Y-115587428D02*
X146004000Y-115301714D01*
X145861142Y-115587428D02*
X145861142Y-114987428D01*
X146089714Y-114987428D01*
X146146857Y-115016000D01*
X146175428Y-115044571D01*
X146204000Y-115101714D01*
X146204000Y-115187428D01*
X146175428Y-115244571D01*
X146146857Y-115273142D01*
X146089714Y-115301714D01*
X145861142Y-115301714D01*
X146746857Y-114987428D02*
X146461142Y-114987428D01*
X146432571Y-115273142D01*
X146461142Y-115244571D01*
X146518285Y-115216000D01*
X146661142Y-115216000D01*
X146718285Y-115244571D01*
X146746857Y-115273142D01*
X146775428Y-115330285D01*
X146775428Y-115473142D01*
X146746857Y-115530285D01*
X146718285Y-115558857D01*
X146661142Y-115587428D01*
X146518285Y-115587428D01*
X146461142Y-115558857D01*
X146432571Y-115530285D01*
X145561142Y-116060571D02*
X145589714Y-116032000D01*
X145646857Y-116003428D01*
X145789714Y-116003428D01*
X145846857Y-116032000D01*
X145875428Y-116060571D01*
X145904000Y-116117714D01*
X145904000Y-116174857D01*
X145875428Y-116260571D01*
X145532571Y-116603428D01*
X145904000Y-116603428D01*
X146132571Y-116060571D02*
X146161142Y-116032000D01*
X146218285Y-116003428D01*
X146361142Y-116003428D01*
X146418285Y-116032000D01*
X146446857Y-116060571D01*
X146475428Y-116117714D01*
X146475428Y-116174857D01*
X146446857Y-116260571D01*
X146104000Y-116603428D01*
X146475428Y-116603428D01*
X146846857Y-116003428D02*
X146904000Y-116003428D01*
X146961142Y-116032000D01*
X146989714Y-116060571D01*
X147018285Y-116117714D01*
X147046857Y-116232000D01*
X147046857Y-116374857D01*
X147018285Y-116489142D01*
X146989714Y-116546285D01*
X146961142Y-116574857D01*
X146904000Y-116603428D01*
X146846857Y-116603428D01*
X146789714Y-116574857D01*
X146761142Y-116546285D01*
X146732571Y-116489142D01*
X146704000Y-116374857D01*
X146704000Y-116232000D01*
X146732571Y-116117714D01*
X146761142Y-116060571D01*
X146789714Y-116032000D01*
X146846857Y-116003428D01*
G04 #@! TO.C,K2*
D11*
X163726904Y-118562380D02*
X163726904Y-117562380D01*
X164298333Y-118562380D02*
X163869761Y-117990952D01*
X164298333Y-117562380D02*
X163726904Y-118133809D01*
X164679285Y-117657619D02*
X164726904Y-117610000D01*
X164822142Y-117562380D01*
X165060238Y-117562380D01*
X165155476Y-117610000D01*
X165203095Y-117657619D01*
X165250714Y-117752857D01*
X165250714Y-117848095D01*
X165203095Y-117990952D01*
X164631666Y-118562380D01*
X165250714Y-118562380D01*
G04 #@! TD*
M02*
