G04 #@! TF.GenerationSoftware,KiCad,Pcbnew,(5.0.2-5)-5*
G04 #@! TF.CreationDate,2019-07-31T22:00:08+03:00*
G04 #@! TF.ProjectId,bike_motor_shim,62696b65-5f6d-46f7-946f-725f7368696d,rev?*
G04 #@! TF.SameCoordinates,Original*
G04 #@! TF.FileFunction,Copper,L1,Top*
G04 #@! TF.FilePolarity,Positive*
%FSLAX46Y46*%
G04 Gerber Fmt 4.6, Leading zero omitted, Abs format (unit mm)*
G04 Created by KiCad (PCBNEW (5.0.2-5)-5) date 2019 July 31, Wednesday 22:00:08*
%MOMM*%
%LPD*%
G01*
G04 APERTURE LIST*
G04 #@! TA.AperFunction,SMDPad,CuDef*
%ADD10R,1.800000X2.500000*%
G04 #@! TD*
G04 #@! TA.AperFunction,ComponentPad*
%ADD11C,1.500000*%
G04 #@! TD*
G04 #@! TA.AperFunction,Conductor*
%ADD12C,0.100000*%
G04 #@! TD*
G04 #@! TA.AperFunction,SMDPad,CuDef*
%ADD13C,1.150000*%
G04 #@! TD*
G04 #@! TA.AperFunction,SMDPad,CuDef*
%ADD14R,1.700000X0.650000*%
G04 #@! TD*
G04 #@! TA.AperFunction,SMDPad,CuDef*
%ADD15R,0.800000X0.900000*%
G04 #@! TD*
G04 #@! TA.AperFunction,ComponentPad*
%ADD16C,1.700000*%
G04 #@! TD*
G04 #@! TA.AperFunction,ComponentPad*
%ADD17O,1.950000X1.700000*%
G04 #@! TD*
G04 #@! TA.AperFunction,ComponentPad*
%ADD18R,1.700000X1.700000*%
G04 #@! TD*
G04 #@! TA.AperFunction,ComponentPad*
%ADD19O,1.700000X1.700000*%
G04 #@! TD*
G04 #@! TA.AperFunction,ComponentPad*
%ADD20C,1.400000*%
G04 #@! TD*
G04 #@! TA.AperFunction,ComponentPad*
%ADD21R,1.400000X1.400000*%
G04 #@! TD*
G04 #@! TA.AperFunction,SMDPad,CuDef*
%ADD22R,1.800000X0.800000*%
G04 #@! TD*
G04 #@! TA.AperFunction,ViaPad*
%ADD23C,0.800000*%
G04 #@! TD*
G04 #@! TA.AperFunction,Conductor*
%ADD24C,0.250000*%
G04 #@! TD*
G04 #@! TA.AperFunction,Conductor*
%ADD25C,0.500000*%
G04 #@! TD*
G04 APERTURE END LIST*
D10*
G04 #@! TO.P,D1,2*
G04 #@! TO.N,Net-(D1-Pad2)*
X167132000Y-116046000D03*
G04 #@! TO.P,D1,1*
G04 #@! TO.N,+5V*
X167132000Y-112046000D03*
G04 #@! TD*
D11*
G04 #@! TO.P,Y1,1*
G04 #@! TO.N,Net-(C3-Pad2)*
X146685000Y-126365000D03*
G04 #@! TO.P,Y1,2*
G04 #@! TO.N,Net-(C4-Pad2)*
X151565000Y-126365000D03*
G04 #@! TD*
D12*
G04 #@! TO.N,GND*
G04 #@! TO.C,C1*
G36*
X156169505Y-126936204D02*
X156193773Y-126939804D01*
X156217572Y-126945765D01*
X156240671Y-126954030D01*
X156262850Y-126964520D01*
X156283893Y-126977132D01*
X156303599Y-126991747D01*
X156321777Y-127008223D01*
X156338253Y-127026401D01*
X156352868Y-127046107D01*
X156365480Y-127067150D01*
X156375970Y-127089329D01*
X156384235Y-127112428D01*
X156390196Y-127136227D01*
X156393796Y-127160495D01*
X156395000Y-127184999D01*
X156395000Y-128085001D01*
X156393796Y-128109505D01*
X156390196Y-128133773D01*
X156384235Y-128157572D01*
X156375970Y-128180671D01*
X156365480Y-128202850D01*
X156352868Y-128223893D01*
X156338253Y-128243599D01*
X156321777Y-128261777D01*
X156303599Y-128278253D01*
X156283893Y-128292868D01*
X156262850Y-128305480D01*
X156240671Y-128315970D01*
X156217572Y-128324235D01*
X156193773Y-128330196D01*
X156169505Y-128333796D01*
X156145001Y-128335000D01*
X155494999Y-128335000D01*
X155470495Y-128333796D01*
X155446227Y-128330196D01*
X155422428Y-128324235D01*
X155399329Y-128315970D01*
X155377150Y-128305480D01*
X155356107Y-128292868D01*
X155336401Y-128278253D01*
X155318223Y-128261777D01*
X155301747Y-128243599D01*
X155287132Y-128223893D01*
X155274520Y-128202850D01*
X155264030Y-128180671D01*
X155255765Y-128157572D01*
X155249804Y-128133773D01*
X155246204Y-128109505D01*
X155245000Y-128085001D01*
X155245000Y-127184999D01*
X155246204Y-127160495D01*
X155249804Y-127136227D01*
X155255765Y-127112428D01*
X155264030Y-127089329D01*
X155274520Y-127067150D01*
X155287132Y-127046107D01*
X155301747Y-127026401D01*
X155318223Y-127008223D01*
X155336401Y-126991747D01*
X155356107Y-126977132D01*
X155377150Y-126964520D01*
X155399329Y-126954030D01*
X155422428Y-126945765D01*
X155446227Y-126939804D01*
X155470495Y-126936204D01*
X155494999Y-126935000D01*
X156145001Y-126935000D01*
X156169505Y-126936204D01*
X156169505Y-126936204D01*
G37*
D13*
G04 #@! TD*
G04 #@! TO.P,C1,2*
G04 #@! TO.N,GND*
X155820000Y-127635000D03*
D12*
G04 #@! TO.N,+6V*
G04 #@! TO.C,C1*
G36*
X158219505Y-126936204D02*
X158243773Y-126939804D01*
X158267572Y-126945765D01*
X158290671Y-126954030D01*
X158312850Y-126964520D01*
X158333893Y-126977132D01*
X158353599Y-126991747D01*
X158371777Y-127008223D01*
X158388253Y-127026401D01*
X158402868Y-127046107D01*
X158415480Y-127067150D01*
X158425970Y-127089329D01*
X158434235Y-127112428D01*
X158440196Y-127136227D01*
X158443796Y-127160495D01*
X158445000Y-127184999D01*
X158445000Y-128085001D01*
X158443796Y-128109505D01*
X158440196Y-128133773D01*
X158434235Y-128157572D01*
X158425970Y-128180671D01*
X158415480Y-128202850D01*
X158402868Y-128223893D01*
X158388253Y-128243599D01*
X158371777Y-128261777D01*
X158353599Y-128278253D01*
X158333893Y-128292868D01*
X158312850Y-128305480D01*
X158290671Y-128315970D01*
X158267572Y-128324235D01*
X158243773Y-128330196D01*
X158219505Y-128333796D01*
X158195001Y-128335000D01*
X157544999Y-128335000D01*
X157520495Y-128333796D01*
X157496227Y-128330196D01*
X157472428Y-128324235D01*
X157449329Y-128315970D01*
X157427150Y-128305480D01*
X157406107Y-128292868D01*
X157386401Y-128278253D01*
X157368223Y-128261777D01*
X157351747Y-128243599D01*
X157337132Y-128223893D01*
X157324520Y-128202850D01*
X157314030Y-128180671D01*
X157305765Y-128157572D01*
X157299804Y-128133773D01*
X157296204Y-128109505D01*
X157295000Y-128085001D01*
X157295000Y-127184999D01*
X157296204Y-127160495D01*
X157299804Y-127136227D01*
X157305765Y-127112428D01*
X157314030Y-127089329D01*
X157324520Y-127067150D01*
X157337132Y-127046107D01*
X157351747Y-127026401D01*
X157368223Y-127008223D01*
X157386401Y-126991747D01*
X157406107Y-126977132D01*
X157427150Y-126964520D01*
X157449329Y-126954030D01*
X157472428Y-126945765D01*
X157496227Y-126939804D01*
X157520495Y-126936204D01*
X157544999Y-126935000D01*
X158195001Y-126935000D01*
X158219505Y-126936204D01*
X158219505Y-126936204D01*
G37*
D13*
G04 #@! TD*
G04 #@! TO.P,C1,1*
G04 #@! TO.N,+6V*
X157870000Y-127635000D03*
D12*
G04 #@! TO.N,+5V*
G04 #@! TO.C,C2*
G36*
X156169505Y-120586204D02*
X156193773Y-120589804D01*
X156217572Y-120595765D01*
X156240671Y-120604030D01*
X156262850Y-120614520D01*
X156283893Y-120627132D01*
X156303599Y-120641747D01*
X156321777Y-120658223D01*
X156338253Y-120676401D01*
X156352868Y-120696107D01*
X156365480Y-120717150D01*
X156375970Y-120739329D01*
X156384235Y-120762428D01*
X156390196Y-120786227D01*
X156393796Y-120810495D01*
X156395000Y-120834999D01*
X156395000Y-121735001D01*
X156393796Y-121759505D01*
X156390196Y-121783773D01*
X156384235Y-121807572D01*
X156375970Y-121830671D01*
X156365480Y-121852850D01*
X156352868Y-121873893D01*
X156338253Y-121893599D01*
X156321777Y-121911777D01*
X156303599Y-121928253D01*
X156283893Y-121942868D01*
X156262850Y-121955480D01*
X156240671Y-121965970D01*
X156217572Y-121974235D01*
X156193773Y-121980196D01*
X156169505Y-121983796D01*
X156145001Y-121985000D01*
X155494999Y-121985000D01*
X155470495Y-121983796D01*
X155446227Y-121980196D01*
X155422428Y-121974235D01*
X155399329Y-121965970D01*
X155377150Y-121955480D01*
X155356107Y-121942868D01*
X155336401Y-121928253D01*
X155318223Y-121911777D01*
X155301747Y-121893599D01*
X155287132Y-121873893D01*
X155274520Y-121852850D01*
X155264030Y-121830671D01*
X155255765Y-121807572D01*
X155249804Y-121783773D01*
X155246204Y-121759505D01*
X155245000Y-121735001D01*
X155245000Y-120834999D01*
X155246204Y-120810495D01*
X155249804Y-120786227D01*
X155255765Y-120762428D01*
X155264030Y-120739329D01*
X155274520Y-120717150D01*
X155287132Y-120696107D01*
X155301747Y-120676401D01*
X155318223Y-120658223D01*
X155336401Y-120641747D01*
X155356107Y-120627132D01*
X155377150Y-120614520D01*
X155399329Y-120604030D01*
X155422428Y-120595765D01*
X155446227Y-120589804D01*
X155470495Y-120586204D01*
X155494999Y-120585000D01*
X156145001Y-120585000D01*
X156169505Y-120586204D01*
X156169505Y-120586204D01*
G37*
D13*
G04 #@! TD*
G04 #@! TO.P,C2,1*
G04 #@! TO.N,+5V*
X155820000Y-121285000D03*
D12*
G04 #@! TO.N,GND*
G04 #@! TO.C,C2*
G36*
X158219505Y-120586204D02*
X158243773Y-120589804D01*
X158267572Y-120595765D01*
X158290671Y-120604030D01*
X158312850Y-120614520D01*
X158333893Y-120627132D01*
X158353599Y-120641747D01*
X158371777Y-120658223D01*
X158388253Y-120676401D01*
X158402868Y-120696107D01*
X158415480Y-120717150D01*
X158425970Y-120739329D01*
X158434235Y-120762428D01*
X158440196Y-120786227D01*
X158443796Y-120810495D01*
X158445000Y-120834999D01*
X158445000Y-121735001D01*
X158443796Y-121759505D01*
X158440196Y-121783773D01*
X158434235Y-121807572D01*
X158425970Y-121830671D01*
X158415480Y-121852850D01*
X158402868Y-121873893D01*
X158388253Y-121893599D01*
X158371777Y-121911777D01*
X158353599Y-121928253D01*
X158333893Y-121942868D01*
X158312850Y-121955480D01*
X158290671Y-121965970D01*
X158267572Y-121974235D01*
X158243773Y-121980196D01*
X158219505Y-121983796D01*
X158195001Y-121985000D01*
X157544999Y-121985000D01*
X157520495Y-121983796D01*
X157496227Y-121980196D01*
X157472428Y-121974235D01*
X157449329Y-121965970D01*
X157427150Y-121955480D01*
X157406107Y-121942868D01*
X157386401Y-121928253D01*
X157368223Y-121911777D01*
X157351747Y-121893599D01*
X157337132Y-121873893D01*
X157324520Y-121852850D01*
X157314030Y-121830671D01*
X157305765Y-121807572D01*
X157299804Y-121783773D01*
X157296204Y-121759505D01*
X157295000Y-121735001D01*
X157295000Y-120834999D01*
X157296204Y-120810495D01*
X157299804Y-120786227D01*
X157305765Y-120762428D01*
X157314030Y-120739329D01*
X157324520Y-120717150D01*
X157337132Y-120696107D01*
X157351747Y-120676401D01*
X157368223Y-120658223D01*
X157386401Y-120641747D01*
X157406107Y-120627132D01*
X157427150Y-120614520D01*
X157449329Y-120604030D01*
X157472428Y-120595765D01*
X157496227Y-120589804D01*
X157520495Y-120586204D01*
X157544999Y-120585000D01*
X158195001Y-120585000D01*
X158219505Y-120586204D01*
X158219505Y-120586204D01*
G37*
D13*
G04 #@! TD*
G04 #@! TO.P,C2,2*
G04 #@! TO.N,GND*
X157870000Y-121285000D03*
D12*
G04 #@! TO.N,MISO*
G04 #@! TO.C,R1*
G36*
X145254505Y-112211204D02*
X145278773Y-112214804D01*
X145302572Y-112220765D01*
X145325671Y-112229030D01*
X145347850Y-112239520D01*
X145368893Y-112252132D01*
X145388599Y-112266747D01*
X145406777Y-112283223D01*
X145423253Y-112301401D01*
X145437868Y-112321107D01*
X145450480Y-112342150D01*
X145460970Y-112364329D01*
X145469235Y-112387428D01*
X145475196Y-112411227D01*
X145478796Y-112435495D01*
X145480000Y-112459999D01*
X145480000Y-113110001D01*
X145478796Y-113134505D01*
X145475196Y-113158773D01*
X145469235Y-113182572D01*
X145460970Y-113205671D01*
X145450480Y-113227850D01*
X145437868Y-113248893D01*
X145423253Y-113268599D01*
X145406777Y-113286777D01*
X145388599Y-113303253D01*
X145368893Y-113317868D01*
X145347850Y-113330480D01*
X145325671Y-113340970D01*
X145302572Y-113349235D01*
X145278773Y-113355196D01*
X145254505Y-113358796D01*
X145230001Y-113360000D01*
X144329999Y-113360000D01*
X144305495Y-113358796D01*
X144281227Y-113355196D01*
X144257428Y-113349235D01*
X144234329Y-113340970D01*
X144212150Y-113330480D01*
X144191107Y-113317868D01*
X144171401Y-113303253D01*
X144153223Y-113286777D01*
X144136747Y-113268599D01*
X144122132Y-113248893D01*
X144109520Y-113227850D01*
X144099030Y-113205671D01*
X144090765Y-113182572D01*
X144084804Y-113158773D01*
X144081204Y-113134505D01*
X144080000Y-113110001D01*
X144080000Y-112459999D01*
X144081204Y-112435495D01*
X144084804Y-112411227D01*
X144090765Y-112387428D01*
X144099030Y-112364329D01*
X144109520Y-112342150D01*
X144122132Y-112321107D01*
X144136747Y-112301401D01*
X144153223Y-112283223D01*
X144171401Y-112266747D01*
X144191107Y-112252132D01*
X144212150Y-112239520D01*
X144234329Y-112229030D01*
X144257428Y-112220765D01*
X144281227Y-112214804D01*
X144305495Y-112211204D01*
X144329999Y-112210000D01*
X145230001Y-112210000D01*
X145254505Y-112211204D01*
X145254505Y-112211204D01*
G37*
D13*
G04 #@! TD*
G04 #@! TO.P,R1,1*
G04 #@! TO.N,MISO*
X144780000Y-112785000D03*
D12*
G04 #@! TO.N,Net-(D2-Pad2)*
G04 #@! TO.C,R1*
G36*
X145254505Y-110161204D02*
X145278773Y-110164804D01*
X145302572Y-110170765D01*
X145325671Y-110179030D01*
X145347850Y-110189520D01*
X145368893Y-110202132D01*
X145388599Y-110216747D01*
X145406777Y-110233223D01*
X145423253Y-110251401D01*
X145437868Y-110271107D01*
X145450480Y-110292150D01*
X145460970Y-110314329D01*
X145469235Y-110337428D01*
X145475196Y-110361227D01*
X145478796Y-110385495D01*
X145480000Y-110409999D01*
X145480000Y-111060001D01*
X145478796Y-111084505D01*
X145475196Y-111108773D01*
X145469235Y-111132572D01*
X145460970Y-111155671D01*
X145450480Y-111177850D01*
X145437868Y-111198893D01*
X145423253Y-111218599D01*
X145406777Y-111236777D01*
X145388599Y-111253253D01*
X145368893Y-111267868D01*
X145347850Y-111280480D01*
X145325671Y-111290970D01*
X145302572Y-111299235D01*
X145278773Y-111305196D01*
X145254505Y-111308796D01*
X145230001Y-111310000D01*
X144329999Y-111310000D01*
X144305495Y-111308796D01*
X144281227Y-111305196D01*
X144257428Y-111299235D01*
X144234329Y-111290970D01*
X144212150Y-111280480D01*
X144191107Y-111267868D01*
X144171401Y-111253253D01*
X144153223Y-111236777D01*
X144136747Y-111218599D01*
X144122132Y-111198893D01*
X144109520Y-111177850D01*
X144099030Y-111155671D01*
X144090765Y-111132572D01*
X144084804Y-111108773D01*
X144081204Y-111084505D01*
X144080000Y-111060001D01*
X144080000Y-110409999D01*
X144081204Y-110385495D01*
X144084804Y-110361227D01*
X144090765Y-110337428D01*
X144099030Y-110314329D01*
X144109520Y-110292150D01*
X144122132Y-110271107D01*
X144136747Y-110251401D01*
X144153223Y-110233223D01*
X144171401Y-110216747D01*
X144191107Y-110202132D01*
X144212150Y-110189520D01*
X144234329Y-110179030D01*
X144257428Y-110170765D01*
X144281227Y-110164804D01*
X144305495Y-110161204D01*
X144329999Y-110160000D01*
X145230001Y-110160000D01*
X145254505Y-110161204D01*
X145254505Y-110161204D01*
G37*
D13*
G04 #@! TD*
G04 #@! TO.P,R1,2*
G04 #@! TO.N,Net-(D2-Pad2)*
X144780000Y-110735000D03*
D12*
G04 #@! TO.N,MOSI*
G04 #@! TO.C,R2*
G36*
X152867505Y-112839204D02*
X152891773Y-112842804D01*
X152915572Y-112848765D01*
X152938671Y-112857030D01*
X152960850Y-112867520D01*
X152981893Y-112880132D01*
X153001599Y-112894747D01*
X153019777Y-112911223D01*
X153036253Y-112929401D01*
X153050868Y-112949107D01*
X153063480Y-112970150D01*
X153073970Y-112992329D01*
X153082235Y-113015428D01*
X153088196Y-113039227D01*
X153091796Y-113063495D01*
X153093000Y-113087999D01*
X153093000Y-113988001D01*
X153091796Y-114012505D01*
X153088196Y-114036773D01*
X153082235Y-114060572D01*
X153073970Y-114083671D01*
X153063480Y-114105850D01*
X153050868Y-114126893D01*
X153036253Y-114146599D01*
X153019777Y-114164777D01*
X153001599Y-114181253D01*
X152981893Y-114195868D01*
X152960850Y-114208480D01*
X152938671Y-114218970D01*
X152915572Y-114227235D01*
X152891773Y-114233196D01*
X152867505Y-114236796D01*
X152843001Y-114238000D01*
X152192999Y-114238000D01*
X152168495Y-114236796D01*
X152144227Y-114233196D01*
X152120428Y-114227235D01*
X152097329Y-114218970D01*
X152075150Y-114208480D01*
X152054107Y-114195868D01*
X152034401Y-114181253D01*
X152016223Y-114164777D01*
X151999747Y-114146599D01*
X151985132Y-114126893D01*
X151972520Y-114105850D01*
X151962030Y-114083671D01*
X151953765Y-114060572D01*
X151947804Y-114036773D01*
X151944204Y-114012505D01*
X151943000Y-113988001D01*
X151943000Y-113087999D01*
X151944204Y-113063495D01*
X151947804Y-113039227D01*
X151953765Y-113015428D01*
X151962030Y-112992329D01*
X151972520Y-112970150D01*
X151985132Y-112949107D01*
X151999747Y-112929401D01*
X152016223Y-112911223D01*
X152034401Y-112894747D01*
X152054107Y-112880132D01*
X152075150Y-112867520D01*
X152097329Y-112857030D01*
X152120428Y-112848765D01*
X152144227Y-112842804D01*
X152168495Y-112839204D01*
X152192999Y-112838000D01*
X152843001Y-112838000D01*
X152867505Y-112839204D01*
X152867505Y-112839204D01*
G37*
D13*
G04 #@! TD*
G04 #@! TO.P,R2,2*
G04 #@! TO.N,MOSI*
X152518000Y-113538000D03*
D12*
G04 #@! TO.N,MOTOR_TTL*
G04 #@! TO.C,R2*
G36*
X154917505Y-112839204D02*
X154941773Y-112842804D01*
X154965572Y-112848765D01*
X154988671Y-112857030D01*
X155010850Y-112867520D01*
X155031893Y-112880132D01*
X155051599Y-112894747D01*
X155069777Y-112911223D01*
X155086253Y-112929401D01*
X155100868Y-112949107D01*
X155113480Y-112970150D01*
X155123970Y-112992329D01*
X155132235Y-113015428D01*
X155138196Y-113039227D01*
X155141796Y-113063495D01*
X155143000Y-113087999D01*
X155143000Y-113988001D01*
X155141796Y-114012505D01*
X155138196Y-114036773D01*
X155132235Y-114060572D01*
X155123970Y-114083671D01*
X155113480Y-114105850D01*
X155100868Y-114126893D01*
X155086253Y-114146599D01*
X155069777Y-114164777D01*
X155051599Y-114181253D01*
X155031893Y-114195868D01*
X155010850Y-114208480D01*
X154988671Y-114218970D01*
X154965572Y-114227235D01*
X154941773Y-114233196D01*
X154917505Y-114236796D01*
X154893001Y-114238000D01*
X154242999Y-114238000D01*
X154218495Y-114236796D01*
X154194227Y-114233196D01*
X154170428Y-114227235D01*
X154147329Y-114218970D01*
X154125150Y-114208480D01*
X154104107Y-114195868D01*
X154084401Y-114181253D01*
X154066223Y-114164777D01*
X154049747Y-114146599D01*
X154035132Y-114126893D01*
X154022520Y-114105850D01*
X154012030Y-114083671D01*
X154003765Y-114060572D01*
X153997804Y-114036773D01*
X153994204Y-114012505D01*
X153993000Y-113988001D01*
X153993000Y-113087999D01*
X153994204Y-113063495D01*
X153997804Y-113039227D01*
X154003765Y-113015428D01*
X154012030Y-112992329D01*
X154022520Y-112970150D01*
X154035132Y-112949107D01*
X154049747Y-112929401D01*
X154066223Y-112911223D01*
X154084401Y-112894747D01*
X154104107Y-112880132D01*
X154125150Y-112867520D01*
X154147329Y-112857030D01*
X154170428Y-112848765D01*
X154194227Y-112842804D01*
X154218495Y-112839204D01*
X154242999Y-112838000D01*
X154893001Y-112838000D01*
X154917505Y-112839204D01*
X154917505Y-112839204D01*
G37*
D13*
G04 #@! TD*
G04 #@! TO.P,R2,1*
G04 #@! TO.N,MOTOR_TTL*
X154568000Y-113538000D03*
D12*
G04 #@! TO.N,Net-(Q1-Pad1)*
G04 #@! TO.C,R3*
G36*
X160632505Y-114871204D02*
X160656773Y-114874804D01*
X160680572Y-114880765D01*
X160703671Y-114889030D01*
X160725850Y-114899520D01*
X160746893Y-114912132D01*
X160766599Y-114926747D01*
X160784777Y-114943223D01*
X160801253Y-114961401D01*
X160815868Y-114981107D01*
X160828480Y-115002150D01*
X160838970Y-115024329D01*
X160847235Y-115047428D01*
X160853196Y-115071227D01*
X160856796Y-115095495D01*
X160858000Y-115119999D01*
X160858000Y-116020001D01*
X160856796Y-116044505D01*
X160853196Y-116068773D01*
X160847235Y-116092572D01*
X160838970Y-116115671D01*
X160828480Y-116137850D01*
X160815868Y-116158893D01*
X160801253Y-116178599D01*
X160784777Y-116196777D01*
X160766599Y-116213253D01*
X160746893Y-116227868D01*
X160725850Y-116240480D01*
X160703671Y-116250970D01*
X160680572Y-116259235D01*
X160656773Y-116265196D01*
X160632505Y-116268796D01*
X160608001Y-116270000D01*
X159957999Y-116270000D01*
X159933495Y-116268796D01*
X159909227Y-116265196D01*
X159885428Y-116259235D01*
X159862329Y-116250970D01*
X159840150Y-116240480D01*
X159819107Y-116227868D01*
X159799401Y-116213253D01*
X159781223Y-116196777D01*
X159764747Y-116178599D01*
X159750132Y-116158893D01*
X159737520Y-116137850D01*
X159727030Y-116115671D01*
X159718765Y-116092572D01*
X159712804Y-116068773D01*
X159709204Y-116044505D01*
X159708000Y-116020001D01*
X159708000Y-115119999D01*
X159709204Y-115095495D01*
X159712804Y-115071227D01*
X159718765Y-115047428D01*
X159727030Y-115024329D01*
X159737520Y-115002150D01*
X159750132Y-114981107D01*
X159764747Y-114961401D01*
X159781223Y-114943223D01*
X159799401Y-114926747D01*
X159819107Y-114912132D01*
X159840150Y-114899520D01*
X159862329Y-114889030D01*
X159885428Y-114880765D01*
X159909227Y-114874804D01*
X159933495Y-114871204D01*
X159957999Y-114870000D01*
X160608001Y-114870000D01*
X160632505Y-114871204D01*
X160632505Y-114871204D01*
G37*
D13*
G04 #@! TD*
G04 #@! TO.P,R3,1*
G04 #@! TO.N,Net-(Q1-Pad1)*
X160283000Y-115570000D03*
D12*
G04 #@! TO.N,Net-(D3-Pad1)*
G04 #@! TO.C,R3*
G36*
X158582505Y-114871204D02*
X158606773Y-114874804D01*
X158630572Y-114880765D01*
X158653671Y-114889030D01*
X158675850Y-114899520D01*
X158696893Y-114912132D01*
X158716599Y-114926747D01*
X158734777Y-114943223D01*
X158751253Y-114961401D01*
X158765868Y-114981107D01*
X158778480Y-115002150D01*
X158788970Y-115024329D01*
X158797235Y-115047428D01*
X158803196Y-115071227D01*
X158806796Y-115095495D01*
X158808000Y-115119999D01*
X158808000Y-116020001D01*
X158806796Y-116044505D01*
X158803196Y-116068773D01*
X158797235Y-116092572D01*
X158788970Y-116115671D01*
X158778480Y-116137850D01*
X158765868Y-116158893D01*
X158751253Y-116178599D01*
X158734777Y-116196777D01*
X158716599Y-116213253D01*
X158696893Y-116227868D01*
X158675850Y-116240480D01*
X158653671Y-116250970D01*
X158630572Y-116259235D01*
X158606773Y-116265196D01*
X158582505Y-116268796D01*
X158558001Y-116270000D01*
X157907999Y-116270000D01*
X157883495Y-116268796D01*
X157859227Y-116265196D01*
X157835428Y-116259235D01*
X157812329Y-116250970D01*
X157790150Y-116240480D01*
X157769107Y-116227868D01*
X157749401Y-116213253D01*
X157731223Y-116196777D01*
X157714747Y-116178599D01*
X157700132Y-116158893D01*
X157687520Y-116137850D01*
X157677030Y-116115671D01*
X157668765Y-116092572D01*
X157662804Y-116068773D01*
X157659204Y-116044505D01*
X157658000Y-116020001D01*
X157658000Y-115119999D01*
X157659204Y-115095495D01*
X157662804Y-115071227D01*
X157668765Y-115047428D01*
X157677030Y-115024329D01*
X157687520Y-115002150D01*
X157700132Y-114981107D01*
X157714747Y-114961401D01*
X157731223Y-114943223D01*
X157749401Y-114926747D01*
X157769107Y-114912132D01*
X157790150Y-114899520D01*
X157812329Y-114889030D01*
X157835428Y-114880765D01*
X157859227Y-114874804D01*
X157883495Y-114871204D01*
X157907999Y-114870000D01*
X158558001Y-114870000D01*
X158582505Y-114871204D01*
X158582505Y-114871204D01*
G37*
D13*
G04 #@! TD*
G04 #@! TO.P,R3,2*
G04 #@! TO.N,Net-(D3-Pad1)*
X158233000Y-115570000D03*
D14*
G04 #@! TO.P,U1,1*
G04 #@! TO.N,RST*
X149700000Y-121920000D03*
G04 #@! TO.P,U1,2*
G04 #@! TO.N,Net-(C3-Pad2)*
X149700000Y-120650000D03*
G04 #@! TO.P,U1,3*
G04 #@! TO.N,Net-(C4-Pad2)*
X149700000Y-119380000D03*
G04 #@! TO.P,U1,4*
G04 #@! TO.N,GND*
X149700000Y-118110000D03*
G04 #@! TO.P,U1,5*
G04 #@! TO.N,MOSI*
X142400000Y-118110000D03*
G04 #@! TO.P,U1,6*
G04 #@! TO.N,MISO*
X142400000Y-119380000D03*
G04 #@! TO.P,U1,7*
G04 #@! TO.N,SCK*
X142400000Y-120650000D03*
G04 #@! TO.P,U1,8*
G04 #@! TO.N,+5V*
X142400000Y-121920000D03*
G04 #@! TD*
D15*
G04 #@! TO.P,U2,1*
G04 #@! TO.N,GND*
X157795000Y-123460000D03*
G04 #@! TO.P,U2,2*
G04 #@! TO.N,+5V*
X155895000Y-123460000D03*
G04 #@! TO.P,U2,3*
G04 #@! TO.N,+6V*
X156845000Y-125460000D03*
G04 #@! TD*
D12*
G04 #@! TO.N,MISO*
G04 #@! TO.C,J2*
G36*
X139814504Y-111800204D02*
X139838773Y-111803804D01*
X139862571Y-111809765D01*
X139885671Y-111818030D01*
X139907849Y-111828520D01*
X139928893Y-111841133D01*
X139948598Y-111855747D01*
X139966777Y-111872223D01*
X139983253Y-111890402D01*
X139997867Y-111910107D01*
X140010480Y-111931151D01*
X140020970Y-111953329D01*
X140029235Y-111976429D01*
X140035196Y-112000227D01*
X140038796Y-112024496D01*
X140040000Y-112049000D01*
X140040000Y-113249000D01*
X140038796Y-113273504D01*
X140035196Y-113297773D01*
X140029235Y-113321571D01*
X140020970Y-113344671D01*
X140010480Y-113366849D01*
X139997867Y-113387893D01*
X139983253Y-113407598D01*
X139966777Y-113425777D01*
X139948598Y-113442253D01*
X139928893Y-113456867D01*
X139907849Y-113469480D01*
X139885671Y-113479970D01*
X139862571Y-113488235D01*
X139838773Y-113494196D01*
X139814504Y-113497796D01*
X139790000Y-113499000D01*
X138340000Y-113499000D01*
X138315496Y-113497796D01*
X138291227Y-113494196D01*
X138267429Y-113488235D01*
X138244329Y-113479970D01*
X138222151Y-113469480D01*
X138201107Y-113456867D01*
X138181402Y-113442253D01*
X138163223Y-113425777D01*
X138146747Y-113407598D01*
X138132133Y-113387893D01*
X138119520Y-113366849D01*
X138109030Y-113344671D01*
X138100765Y-113321571D01*
X138094804Y-113297773D01*
X138091204Y-113273504D01*
X138090000Y-113249000D01*
X138090000Y-112049000D01*
X138091204Y-112024496D01*
X138094804Y-112000227D01*
X138100765Y-111976429D01*
X138109030Y-111953329D01*
X138119520Y-111931151D01*
X138132133Y-111910107D01*
X138146747Y-111890402D01*
X138163223Y-111872223D01*
X138181402Y-111855747D01*
X138201107Y-111841133D01*
X138222151Y-111828520D01*
X138244329Y-111818030D01*
X138267429Y-111809765D01*
X138291227Y-111803804D01*
X138315496Y-111800204D01*
X138340000Y-111799000D01*
X139790000Y-111799000D01*
X139814504Y-111800204D01*
X139814504Y-111800204D01*
G37*
D16*
G04 #@! TD*
G04 #@! TO.P,J2,1*
G04 #@! TO.N,MISO*
X139065000Y-112649000D03*
D17*
G04 #@! TO.P,J2,2*
G04 #@! TO.N,+5V*
X139065000Y-115149000D03*
G04 #@! TO.P,J2,3*
G04 #@! TO.N,SCK*
X139065000Y-117649000D03*
G04 #@! TO.P,J2,4*
G04 #@! TO.N,MOSI*
X139065000Y-120149000D03*
G04 #@! TO.P,J2,5*
G04 #@! TO.N,RST*
X139065000Y-122649000D03*
G04 #@! TO.P,J2,6*
G04 #@! TO.N,GND*
X139065000Y-125149000D03*
G04 #@! TD*
D12*
G04 #@! TO.N,+6V*
G04 #@! TO.C,J1*
G36*
X176644504Y-124246204D02*
X176668773Y-124249804D01*
X176692571Y-124255765D01*
X176715671Y-124264030D01*
X176737849Y-124274520D01*
X176758893Y-124287133D01*
X176778598Y-124301747D01*
X176796777Y-124318223D01*
X176813253Y-124336402D01*
X176827867Y-124356107D01*
X176840480Y-124377151D01*
X176850970Y-124399329D01*
X176859235Y-124422429D01*
X176865196Y-124446227D01*
X176868796Y-124470496D01*
X176870000Y-124495000D01*
X176870000Y-125695000D01*
X176868796Y-125719504D01*
X176865196Y-125743773D01*
X176859235Y-125767571D01*
X176850970Y-125790671D01*
X176840480Y-125812849D01*
X176827867Y-125833893D01*
X176813253Y-125853598D01*
X176796777Y-125871777D01*
X176778598Y-125888253D01*
X176758893Y-125902867D01*
X176737849Y-125915480D01*
X176715671Y-125925970D01*
X176692571Y-125934235D01*
X176668773Y-125940196D01*
X176644504Y-125943796D01*
X176620000Y-125945000D01*
X175170000Y-125945000D01*
X175145496Y-125943796D01*
X175121227Y-125940196D01*
X175097429Y-125934235D01*
X175074329Y-125925970D01*
X175052151Y-125915480D01*
X175031107Y-125902867D01*
X175011402Y-125888253D01*
X174993223Y-125871777D01*
X174976747Y-125853598D01*
X174962133Y-125833893D01*
X174949520Y-125812849D01*
X174939030Y-125790671D01*
X174930765Y-125767571D01*
X174924804Y-125743773D01*
X174921204Y-125719504D01*
X174920000Y-125695000D01*
X174920000Y-124495000D01*
X174921204Y-124470496D01*
X174924804Y-124446227D01*
X174930765Y-124422429D01*
X174939030Y-124399329D01*
X174949520Y-124377151D01*
X174962133Y-124356107D01*
X174976747Y-124336402D01*
X174993223Y-124318223D01*
X175011402Y-124301747D01*
X175031107Y-124287133D01*
X175052151Y-124274520D01*
X175074329Y-124264030D01*
X175097429Y-124255765D01*
X175121227Y-124249804D01*
X175145496Y-124246204D01*
X175170000Y-124245000D01*
X176620000Y-124245000D01*
X176644504Y-124246204D01*
X176644504Y-124246204D01*
G37*
D16*
G04 #@! TD*
G04 #@! TO.P,J1,1*
G04 #@! TO.N,+6V*
X175895000Y-125095000D03*
D17*
G04 #@! TO.P,J1,2*
G04 #@! TO.N,GND*
X175895000Y-122595000D03*
G04 #@! TO.P,J1,3*
X175895000Y-120095000D03*
G04 #@! TO.P,J1,4*
G04 #@! TO.N,SENSOR_IN*
X175895000Y-117595000D03*
G04 #@! TO.P,J1,5*
G04 #@! TO.N,GND*
X175895000Y-115095000D03*
G04 #@! TO.P,J1,6*
G04 #@! TO.N,MOTOR_IN*
X175895000Y-112595000D03*
G04 #@! TD*
D12*
G04 #@! TO.N,GND*
G04 #@! TO.C,C3*
G36*
X142714505Y-123496204D02*
X142738773Y-123499804D01*
X142762572Y-123505765D01*
X142785671Y-123514030D01*
X142807850Y-123524520D01*
X142828893Y-123537132D01*
X142848599Y-123551747D01*
X142866777Y-123568223D01*
X142883253Y-123586401D01*
X142897868Y-123606107D01*
X142910480Y-123627150D01*
X142920970Y-123649329D01*
X142929235Y-123672428D01*
X142935196Y-123696227D01*
X142938796Y-123720495D01*
X142940000Y-123744999D01*
X142940000Y-124395001D01*
X142938796Y-124419505D01*
X142935196Y-124443773D01*
X142929235Y-124467572D01*
X142920970Y-124490671D01*
X142910480Y-124512850D01*
X142897868Y-124533893D01*
X142883253Y-124553599D01*
X142866777Y-124571777D01*
X142848599Y-124588253D01*
X142828893Y-124602868D01*
X142807850Y-124615480D01*
X142785671Y-124625970D01*
X142762572Y-124634235D01*
X142738773Y-124640196D01*
X142714505Y-124643796D01*
X142690001Y-124645000D01*
X141789999Y-124645000D01*
X141765495Y-124643796D01*
X141741227Y-124640196D01*
X141717428Y-124634235D01*
X141694329Y-124625970D01*
X141672150Y-124615480D01*
X141651107Y-124602868D01*
X141631401Y-124588253D01*
X141613223Y-124571777D01*
X141596747Y-124553599D01*
X141582132Y-124533893D01*
X141569520Y-124512850D01*
X141559030Y-124490671D01*
X141550765Y-124467572D01*
X141544804Y-124443773D01*
X141541204Y-124419505D01*
X141540000Y-124395001D01*
X141540000Y-123744999D01*
X141541204Y-123720495D01*
X141544804Y-123696227D01*
X141550765Y-123672428D01*
X141559030Y-123649329D01*
X141569520Y-123627150D01*
X141582132Y-123606107D01*
X141596747Y-123586401D01*
X141613223Y-123568223D01*
X141631401Y-123551747D01*
X141651107Y-123537132D01*
X141672150Y-123524520D01*
X141694329Y-123514030D01*
X141717428Y-123505765D01*
X141741227Y-123499804D01*
X141765495Y-123496204D01*
X141789999Y-123495000D01*
X142690001Y-123495000D01*
X142714505Y-123496204D01*
X142714505Y-123496204D01*
G37*
D13*
G04 #@! TD*
G04 #@! TO.P,C3,1*
G04 #@! TO.N,GND*
X142240000Y-124070000D03*
D12*
G04 #@! TO.N,Net-(C3-Pad2)*
G04 #@! TO.C,C3*
G36*
X142714505Y-125546204D02*
X142738773Y-125549804D01*
X142762572Y-125555765D01*
X142785671Y-125564030D01*
X142807850Y-125574520D01*
X142828893Y-125587132D01*
X142848599Y-125601747D01*
X142866777Y-125618223D01*
X142883253Y-125636401D01*
X142897868Y-125656107D01*
X142910480Y-125677150D01*
X142920970Y-125699329D01*
X142929235Y-125722428D01*
X142935196Y-125746227D01*
X142938796Y-125770495D01*
X142940000Y-125794999D01*
X142940000Y-126445001D01*
X142938796Y-126469505D01*
X142935196Y-126493773D01*
X142929235Y-126517572D01*
X142920970Y-126540671D01*
X142910480Y-126562850D01*
X142897868Y-126583893D01*
X142883253Y-126603599D01*
X142866777Y-126621777D01*
X142848599Y-126638253D01*
X142828893Y-126652868D01*
X142807850Y-126665480D01*
X142785671Y-126675970D01*
X142762572Y-126684235D01*
X142738773Y-126690196D01*
X142714505Y-126693796D01*
X142690001Y-126695000D01*
X141789999Y-126695000D01*
X141765495Y-126693796D01*
X141741227Y-126690196D01*
X141717428Y-126684235D01*
X141694329Y-126675970D01*
X141672150Y-126665480D01*
X141651107Y-126652868D01*
X141631401Y-126638253D01*
X141613223Y-126621777D01*
X141596747Y-126603599D01*
X141582132Y-126583893D01*
X141569520Y-126562850D01*
X141559030Y-126540671D01*
X141550765Y-126517572D01*
X141544804Y-126493773D01*
X141541204Y-126469505D01*
X141540000Y-126445001D01*
X141540000Y-125794999D01*
X141541204Y-125770495D01*
X141544804Y-125746227D01*
X141550765Y-125722428D01*
X141559030Y-125699329D01*
X141569520Y-125677150D01*
X141582132Y-125656107D01*
X141596747Y-125636401D01*
X141613223Y-125618223D01*
X141631401Y-125601747D01*
X141651107Y-125587132D01*
X141672150Y-125574520D01*
X141694329Y-125564030D01*
X141717428Y-125555765D01*
X141741227Y-125549804D01*
X141765495Y-125546204D01*
X141789999Y-125545000D01*
X142690001Y-125545000D01*
X142714505Y-125546204D01*
X142714505Y-125546204D01*
G37*
D13*
G04 #@! TD*
G04 #@! TO.P,C3,2*
G04 #@! TO.N,Net-(C3-Pad2)*
X142240000Y-126120000D03*
D12*
G04 #@! TO.N,Net-(C4-Pad2)*
G04 #@! TO.C,C4*
G36*
X153509505Y-121736204D02*
X153533773Y-121739804D01*
X153557572Y-121745765D01*
X153580671Y-121754030D01*
X153602850Y-121764520D01*
X153623893Y-121777132D01*
X153643599Y-121791747D01*
X153661777Y-121808223D01*
X153678253Y-121826401D01*
X153692868Y-121846107D01*
X153705480Y-121867150D01*
X153715970Y-121889329D01*
X153724235Y-121912428D01*
X153730196Y-121936227D01*
X153733796Y-121960495D01*
X153735000Y-121984999D01*
X153735000Y-122635001D01*
X153733796Y-122659505D01*
X153730196Y-122683773D01*
X153724235Y-122707572D01*
X153715970Y-122730671D01*
X153705480Y-122752850D01*
X153692868Y-122773893D01*
X153678253Y-122793599D01*
X153661777Y-122811777D01*
X153643599Y-122828253D01*
X153623893Y-122842868D01*
X153602850Y-122855480D01*
X153580671Y-122865970D01*
X153557572Y-122874235D01*
X153533773Y-122880196D01*
X153509505Y-122883796D01*
X153485001Y-122885000D01*
X152584999Y-122885000D01*
X152560495Y-122883796D01*
X152536227Y-122880196D01*
X152512428Y-122874235D01*
X152489329Y-122865970D01*
X152467150Y-122855480D01*
X152446107Y-122842868D01*
X152426401Y-122828253D01*
X152408223Y-122811777D01*
X152391747Y-122793599D01*
X152377132Y-122773893D01*
X152364520Y-122752850D01*
X152354030Y-122730671D01*
X152345765Y-122707572D01*
X152339804Y-122683773D01*
X152336204Y-122659505D01*
X152335000Y-122635001D01*
X152335000Y-121984999D01*
X152336204Y-121960495D01*
X152339804Y-121936227D01*
X152345765Y-121912428D01*
X152354030Y-121889329D01*
X152364520Y-121867150D01*
X152377132Y-121846107D01*
X152391747Y-121826401D01*
X152408223Y-121808223D01*
X152426401Y-121791747D01*
X152446107Y-121777132D01*
X152467150Y-121764520D01*
X152489329Y-121754030D01*
X152512428Y-121745765D01*
X152536227Y-121739804D01*
X152560495Y-121736204D01*
X152584999Y-121735000D01*
X153485001Y-121735000D01*
X153509505Y-121736204D01*
X153509505Y-121736204D01*
G37*
D13*
G04 #@! TD*
G04 #@! TO.P,C4,2*
G04 #@! TO.N,Net-(C4-Pad2)*
X153035000Y-122310000D03*
D12*
G04 #@! TO.N,GND*
G04 #@! TO.C,C4*
G36*
X153509505Y-119686204D02*
X153533773Y-119689804D01*
X153557572Y-119695765D01*
X153580671Y-119704030D01*
X153602850Y-119714520D01*
X153623893Y-119727132D01*
X153643599Y-119741747D01*
X153661777Y-119758223D01*
X153678253Y-119776401D01*
X153692868Y-119796107D01*
X153705480Y-119817150D01*
X153715970Y-119839329D01*
X153724235Y-119862428D01*
X153730196Y-119886227D01*
X153733796Y-119910495D01*
X153735000Y-119934999D01*
X153735000Y-120585001D01*
X153733796Y-120609505D01*
X153730196Y-120633773D01*
X153724235Y-120657572D01*
X153715970Y-120680671D01*
X153705480Y-120702850D01*
X153692868Y-120723893D01*
X153678253Y-120743599D01*
X153661777Y-120761777D01*
X153643599Y-120778253D01*
X153623893Y-120792868D01*
X153602850Y-120805480D01*
X153580671Y-120815970D01*
X153557572Y-120824235D01*
X153533773Y-120830196D01*
X153509505Y-120833796D01*
X153485001Y-120835000D01*
X152584999Y-120835000D01*
X152560495Y-120833796D01*
X152536227Y-120830196D01*
X152512428Y-120824235D01*
X152489329Y-120815970D01*
X152467150Y-120805480D01*
X152446107Y-120792868D01*
X152426401Y-120778253D01*
X152408223Y-120761777D01*
X152391747Y-120743599D01*
X152377132Y-120723893D01*
X152364520Y-120702850D01*
X152354030Y-120680671D01*
X152345765Y-120657572D01*
X152339804Y-120633773D01*
X152336204Y-120609505D01*
X152335000Y-120585001D01*
X152335000Y-119934999D01*
X152336204Y-119910495D01*
X152339804Y-119886227D01*
X152345765Y-119862428D01*
X152354030Y-119839329D01*
X152364520Y-119817150D01*
X152377132Y-119796107D01*
X152391747Y-119776401D01*
X152408223Y-119758223D01*
X152426401Y-119741747D01*
X152446107Y-119727132D01*
X152467150Y-119714520D01*
X152489329Y-119704030D01*
X152512428Y-119695765D01*
X152536227Y-119689804D01*
X152560495Y-119686204D01*
X152584999Y-119685000D01*
X153485001Y-119685000D01*
X153509505Y-119686204D01*
X153509505Y-119686204D01*
G37*
D13*
G04 #@! TD*
G04 #@! TO.P,C4,1*
G04 #@! TO.N,GND*
X153035000Y-120260000D03*
D12*
G04 #@! TO.N,Net-(D2-Pad2)*
G04 #@! TO.C,D2*
G36*
X147794505Y-110161204D02*
X147818773Y-110164804D01*
X147842572Y-110170765D01*
X147865671Y-110179030D01*
X147887850Y-110189520D01*
X147908893Y-110202132D01*
X147928599Y-110216747D01*
X147946777Y-110233223D01*
X147963253Y-110251401D01*
X147977868Y-110271107D01*
X147990480Y-110292150D01*
X148000970Y-110314329D01*
X148009235Y-110337428D01*
X148015196Y-110361227D01*
X148018796Y-110385495D01*
X148020000Y-110409999D01*
X148020000Y-111060001D01*
X148018796Y-111084505D01*
X148015196Y-111108773D01*
X148009235Y-111132572D01*
X148000970Y-111155671D01*
X147990480Y-111177850D01*
X147977868Y-111198893D01*
X147963253Y-111218599D01*
X147946777Y-111236777D01*
X147928599Y-111253253D01*
X147908893Y-111267868D01*
X147887850Y-111280480D01*
X147865671Y-111290970D01*
X147842572Y-111299235D01*
X147818773Y-111305196D01*
X147794505Y-111308796D01*
X147770001Y-111310000D01*
X146869999Y-111310000D01*
X146845495Y-111308796D01*
X146821227Y-111305196D01*
X146797428Y-111299235D01*
X146774329Y-111290970D01*
X146752150Y-111280480D01*
X146731107Y-111267868D01*
X146711401Y-111253253D01*
X146693223Y-111236777D01*
X146676747Y-111218599D01*
X146662132Y-111198893D01*
X146649520Y-111177850D01*
X146639030Y-111155671D01*
X146630765Y-111132572D01*
X146624804Y-111108773D01*
X146621204Y-111084505D01*
X146620000Y-111060001D01*
X146620000Y-110409999D01*
X146621204Y-110385495D01*
X146624804Y-110361227D01*
X146630765Y-110337428D01*
X146639030Y-110314329D01*
X146649520Y-110292150D01*
X146662132Y-110271107D01*
X146676747Y-110251401D01*
X146693223Y-110233223D01*
X146711401Y-110216747D01*
X146731107Y-110202132D01*
X146752150Y-110189520D01*
X146774329Y-110179030D01*
X146797428Y-110170765D01*
X146821227Y-110164804D01*
X146845495Y-110161204D01*
X146869999Y-110160000D01*
X147770001Y-110160000D01*
X147794505Y-110161204D01*
X147794505Y-110161204D01*
G37*
D13*
G04 #@! TD*
G04 #@! TO.P,D2,2*
G04 #@! TO.N,Net-(D2-Pad2)*
X147320000Y-110735000D03*
D12*
G04 #@! TO.N,GND*
G04 #@! TO.C,D2*
G36*
X147794505Y-112211204D02*
X147818773Y-112214804D01*
X147842572Y-112220765D01*
X147865671Y-112229030D01*
X147887850Y-112239520D01*
X147908893Y-112252132D01*
X147928599Y-112266747D01*
X147946777Y-112283223D01*
X147963253Y-112301401D01*
X147977868Y-112321107D01*
X147990480Y-112342150D01*
X148000970Y-112364329D01*
X148009235Y-112387428D01*
X148015196Y-112411227D01*
X148018796Y-112435495D01*
X148020000Y-112459999D01*
X148020000Y-113110001D01*
X148018796Y-113134505D01*
X148015196Y-113158773D01*
X148009235Y-113182572D01*
X148000970Y-113205671D01*
X147990480Y-113227850D01*
X147977868Y-113248893D01*
X147963253Y-113268599D01*
X147946777Y-113286777D01*
X147928599Y-113303253D01*
X147908893Y-113317868D01*
X147887850Y-113330480D01*
X147865671Y-113340970D01*
X147842572Y-113349235D01*
X147818773Y-113355196D01*
X147794505Y-113358796D01*
X147770001Y-113360000D01*
X146869999Y-113360000D01*
X146845495Y-113358796D01*
X146821227Y-113355196D01*
X146797428Y-113349235D01*
X146774329Y-113340970D01*
X146752150Y-113330480D01*
X146731107Y-113317868D01*
X146711401Y-113303253D01*
X146693223Y-113286777D01*
X146676747Y-113268599D01*
X146662132Y-113248893D01*
X146649520Y-113227850D01*
X146639030Y-113205671D01*
X146630765Y-113182572D01*
X146624804Y-113158773D01*
X146621204Y-113134505D01*
X146620000Y-113110001D01*
X146620000Y-112459999D01*
X146621204Y-112435495D01*
X146624804Y-112411227D01*
X146630765Y-112387428D01*
X146639030Y-112364329D01*
X146649520Y-112342150D01*
X146662132Y-112321107D01*
X146676747Y-112301401D01*
X146693223Y-112283223D01*
X146711401Y-112266747D01*
X146731107Y-112252132D01*
X146752150Y-112239520D01*
X146774329Y-112229030D01*
X146797428Y-112220765D01*
X146821227Y-112214804D01*
X146845495Y-112211204D01*
X146869999Y-112210000D01*
X147770001Y-112210000D01*
X147794505Y-112211204D01*
X147794505Y-112211204D01*
G37*
D13*
G04 #@! TD*
G04 #@! TO.P,D2,1*
G04 #@! TO.N,GND*
X147320000Y-112785000D03*
D12*
G04 #@! TO.N,Net-(D3-Pad1)*
G04 #@! TO.C,D3*
G36*
X150334505Y-112211204D02*
X150358773Y-112214804D01*
X150382572Y-112220765D01*
X150405671Y-112229030D01*
X150427850Y-112239520D01*
X150448893Y-112252132D01*
X150468599Y-112266747D01*
X150486777Y-112283223D01*
X150503253Y-112301401D01*
X150517868Y-112321107D01*
X150530480Y-112342150D01*
X150540970Y-112364329D01*
X150549235Y-112387428D01*
X150555196Y-112411227D01*
X150558796Y-112435495D01*
X150560000Y-112459999D01*
X150560000Y-113110001D01*
X150558796Y-113134505D01*
X150555196Y-113158773D01*
X150549235Y-113182572D01*
X150540970Y-113205671D01*
X150530480Y-113227850D01*
X150517868Y-113248893D01*
X150503253Y-113268599D01*
X150486777Y-113286777D01*
X150468599Y-113303253D01*
X150448893Y-113317868D01*
X150427850Y-113330480D01*
X150405671Y-113340970D01*
X150382572Y-113349235D01*
X150358773Y-113355196D01*
X150334505Y-113358796D01*
X150310001Y-113360000D01*
X149409999Y-113360000D01*
X149385495Y-113358796D01*
X149361227Y-113355196D01*
X149337428Y-113349235D01*
X149314329Y-113340970D01*
X149292150Y-113330480D01*
X149271107Y-113317868D01*
X149251401Y-113303253D01*
X149233223Y-113286777D01*
X149216747Y-113268599D01*
X149202132Y-113248893D01*
X149189520Y-113227850D01*
X149179030Y-113205671D01*
X149170765Y-113182572D01*
X149164804Y-113158773D01*
X149161204Y-113134505D01*
X149160000Y-113110001D01*
X149160000Y-112459999D01*
X149161204Y-112435495D01*
X149164804Y-112411227D01*
X149170765Y-112387428D01*
X149179030Y-112364329D01*
X149189520Y-112342150D01*
X149202132Y-112321107D01*
X149216747Y-112301401D01*
X149233223Y-112283223D01*
X149251401Y-112266747D01*
X149271107Y-112252132D01*
X149292150Y-112239520D01*
X149314329Y-112229030D01*
X149337428Y-112220765D01*
X149361227Y-112214804D01*
X149385495Y-112211204D01*
X149409999Y-112210000D01*
X150310001Y-112210000D01*
X150334505Y-112211204D01*
X150334505Y-112211204D01*
G37*
D13*
G04 #@! TD*
G04 #@! TO.P,D3,1*
G04 #@! TO.N,Net-(D3-Pad1)*
X149860000Y-112785000D03*
D12*
G04 #@! TO.N,SCK*
G04 #@! TO.C,D3*
G36*
X150334505Y-110161204D02*
X150358773Y-110164804D01*
X150382572Y-110170765D01*
X150405671Y-110179030D01*
X150427850Y-110189520D01*
X150448893Y-110202132D01*
X150468599Y-110216747D01*
X150486777Y-110233223D01*
X150503253Y-110251401D01*
X150517868Y-110271107D01*
X150530480Y-110292150D01*
X150540970Y-110314329D01*
X150549235Y-110337428D01*
X150555196Y-110361227D01*
X150558796Y-110385495D01*
X150560000Y-110409999D01*
X150560000Y-111060001D01*
X150558796Y-111084505D01*
X150555196Y-111108773D01*
X150549235Y-111132572D01*
X150540970Y-111155671D01*
X150530480Y-111177850D01*
X150517868Y-111198893D01*
X150503253Y-111218599D01*
X150486777Y-111236777D01*
X150468599Y-111253253D01*
X150448893Y-111267868D01*
X150427850Y-111280480D01*
X150405671Y-111290970D01*
X150382572Y-111299235D01*
X150358773Y-111305196D01*
X150334505Y-111308796D01*
X150310001Y-111310000D01*
X149409999Y-111310000D01*
X149385495Y-111308796D01*
X149361227Y-111305196D01*
X149337428Y-111299235D01*
X149314329Y-111290970D01*
X149292150Y-111280480D01*
X149271107Y-111267868D01*
X149251401Y-111253253D01*
X149233223Y-111236777D01*
X149216747Y-111218599D01*
X149202132Y-111198893D01*
X149189520Y-111177850D01*
X149179030Y-111155671D01*
X149170765Y-111132572D01*
X149164804Y-111108773D01*
X149161204Y-111084505D01*
X149160000Y-111060001D01*
X149160000Y-110409999D01*
X149161204Y-110385495D01*
X149164804Y-110361227D01*
X149170765Y-110337428D01*
X149179030Y-110314329D01*
X149189520Y-110292150D01*
X149202132Y-110271107D01*
X149216747Y-110251401D01*
X149233223Y-110233223D01*
X149251401Y-110216747D01*
X149271107Y-110202132D01*
X149292150Y-110189520D01*
X149314329Y-110179030D01*
X149337428Y-110170765D01*
X149361227Y-110164804D01*
X149385495Y-110161204D01*
X149409999Y-110160000D01*
X150310001Y-110160000D01*
X150334505Y-110161204D01*
X150334505Y-110161204D01*
G37*
D13*
G04 #@! TD*
G04 #@! TO.P,D3,2*
G04 #@! TO.N,SCK*
X149860000Y-110735000D03*
D18*
G04 #@! TO.P,JP1,1*
G04 #@! TO.N,MOTOR_DRY*
X158369000Y-110871000D03*
D19*
G04 #@! TO.P,JP1,2*
G04 #@! TO.N,Net-(JP1-Pad2)*
X155829000Y-110871000D03*
G04 #@! TO.P,JP1,3*
G04 #@! TO.N,MOTOR_TTL*
X153289000Y-110871000D03*
G04 #@! TD*
D12*
G04 #@! TO.N,MISO*
G04 #@! TO.C,R4*
G36*
X142714505Y-110161204D02*
X142738773Y-110164804D01*
X142762572Y-110170765D01*
X142785671Y-110179030D01*
X142807850Y-110189520D01*
X142828893Y-110202132D01*
X142848599Y-110216747D01*
X142866777Y-110233223D01*
X142883253Y-110251401D01*
X142897868Y-110271107D01*
X142910480Y-110292150D01*
X142920970Y-110314329D01*
X142929235Y-110337428D01*
X142935196Y-110361227D01*
X142938796Y-110385495D01*
X142940000Y-110409999D01*
X142940000Y-111060001D01*
X142938796Y-111084505D01*
X142935196Y-111108773D01*
X142929235Y-111132572D01*
X142920970Y-111155671D01*
X142910480Y-111177850D01*
X142897868Y-111198893D01*
X142883253Y-111218599D01*
X142866777Y-111236777D01*
X142848599Y-111253253D01*
X142828893Y-111267868D01*
X142807850Y-111280480D01*
X142785671Y-111290970D01*
X142762572Y-111299235D01*
X142738773Y-111305196D01*
X142714505Y-111308796D01*
X142690001Y-111310000D01*
X141789999Y-111310000D01*
X141765495Y-111308796D01*
X141741227Y-111305196D01*
X141717428Y-111299235D01*
X141694329Y-111290970D01*
X141672150Y-111280480D01*
X141651107Y-111267868D01*
X141631401Y-111253253D01*
X141613223Y-111236777D01*
X141596747Y-111218599D01*
X141582132Y-111198893D01*
X141569520Y-111177850D01*
X141559030Y-111155671D01*
X141550765Y-111132572D01*
X141544804Y-111108773D01*
X141541204Y-111084505D01*
X141540000Y-111060001D01*
X141540000Y-110409999D01*
X141541204Y-110385495D01*
X141544804Y-110361227D01*
X141550765Y-110337428D01*
X141559030Y-110314329D01*
X141569520Y-110292150D01*
X141582132Y-110271107D01*
X141596747Y-110251401D01*
X141613223Y-110233223D01*
X141631401Y-110216747D01*
X141651107Y-110202132D01*
X141672150Y-110189520D01*
X141694329Y-110179030D01*
X141717428Y-110170765D01*
X141741227Y-110164804D01*
X141765495Y-110161204D01*
X141789999Y-110160000D01*
X142690001Y-110160000D01*
X142714505Y-110161204D01*
X142714505Y-110161204D01*
G37*
D13*
G04 #@! TD*
G04 #@! TO.P,R4,2*
G04 #@! TO.N,MISO*
X142240000Y-110735000D03*
D12*
G04 #@! TO.N,+5V*
G04 #@! TO.C,R4*
G36*
X142714505Y-112211204D02*
X142738773Y-112214804D01*
X142762572Y-112220765D01*
X142785671Y-112229030D01*
X142807850Y-112239520D01*
X142828893Y-112252132D01*
X142848599Y-112266747D01*
X142866777Y-112283223D01*
X142883253Y-112301401D01*
X142897868Y-112321107D01*
X142910480Y-112342150D01*
X142920970Y-112364329D01*
X142929235Y-112387428D01*
X142935196Y-112411227D01*
X142938796Y-112435495D01*
X142940000Y-112459999D01*
X142940000Y-113110001D01*
X142938796Y-113134505D01*
X142935196Y-113158773D01*
X142929235Y-113182572D01*
X142920970Y-113205671D01*
X142910480Y-113227850D01*
X142897868Y-113248893D01*
X142883253Y-113268599D01*
X142866777Y-113286777D01*
X142848599Y-113303253D01*
X142828893Y-113317868D01*
X142807850Y-113330480D01*
X142785671Y-113340970D01*
X142762572Y-113349235D01*
X142738773Y-113355196D01*
X142714505Y-113358796D01*
X142690001Y-113360000D01*
X141789999Y-113360000D01*
X141765495Y-113358796D01*
X141741227Y-113355196D01*
X141717428Y-113349235D01*
X141694329Y-113340970D01*
X141672150Y-113330480D01*
X141651107Y-113317868D01*
X141631401Y-113303253D01*
X141613223Y-113286777D01*
X141596747Y-113268599D01*
X141582132Y-113248893D01*
X141569520Y-113227850D01*
X141559030Y-113205671D01*
X141550765Y-113182572D01*
X141544804Y-113158773D01*
X141541204Y-113134505D01*
X141540000Y-113110001D01*
X141540000Y-112459999D01*
X141541204Y-112435495D01*
X141544804Y-112411227D01*
X141550765Y-112387428D01*
X141559030Y-112364329D01*
X141569520Y-112342150D01*
X141582132Y-112321107D01*
X141596747Y-112301401D01*
X141613223Y-112283223D01*
X141631401Y-112266747D01*
X141651107Y-112252132D01*
X141672150Y-112239520D01*
X141694329Y-112229030D01*
X141717428Y-112220765D01*
X141741227Y-112214804D01*
X141765495Y-112211204D01*
X141789999Y-112210000D01*
X142690001Y-112210000D01*
X142714505Y-112211204D01*
X142714505Y-112211204D01*
G37*
D13*
G04 #@! TD*
G04 #@! TO.P,R4,1*
G04 #@! TO.N,+5V*
X142240000Y-112785000D03*
D20*
G04 #@! TO.P,K1,7*
G04 #@! TO.N,MOTOR_DRY*
X172085000Y-111125000D03*
G04 #@! TO.P,K1,5*
G04 #@! TO.N,+5V*
X172085000Y-116205000D03*
G04 #@! TO.P,K1,3*
G04 #@! TO.N,Net-(D1-Pad2)*
X172085000Y-121285000D03*
D21*
G04 #@! TO.P,K1,1*
G04 #@! TO.N,GND*
X172085000Y-126365000D03*
G04 #@! TD*
D22*
G04 #@! TO.P,K2,8*
G04 #@! TO.N,GND*
X160965000Y-127244000D03*
G04 #@! TO.P,K2,7*
G04 #@! TO.N,MOTOR_IN*
X160965000Y-124044000D03*
G04 #@! TO.P,K2,6*
G04 #@! TO.N,SENSOR_IN*
X160965000Y-121844000D03*
G04 #@! TO.P,K2,5*
G04 #@! TO.N,MISO*
X160965000Y-119644000D03*
G04 #@! TO.P,K2,4*
G04 #@! TO.N,Net-(JP1-Pad2)*
X167965000Y-119644000D03*
G04 #@! TO.P,K2,3*
G04 #@! TO.N,MOTOR_IN*
X167965000Y-121844000D03*
G04 #@! TO.P,K2,2*
G04 #@! TO.N,SENSOR_IN*
X167965000Y-124044000D03*
G04 #@! TO.P,K2,1*
G04 #@! TO.N,+5V*
X167965000Y-127244000D03*
G04 #@! TD*
D15*
G04 #@! TO.P,Q1,1*
G04 #@! TO.N,Net-(Q1-Pad1)*
X162372000Y-116570000D03*
G04 #@! TO.P,Q1,2*
G04 #@! TO.N,GND*
X164272000Y-116570000D03*
G04 #@! TO.P,Q1,3*
G04 #@! TO.N,Net-(D1-Pad2)*
X163322000Y-114570000D03*
G04 #@! TD*
D23*
G04 #@! TO.N,+5V*
X154686000Y-121920000D03*
X144145000Y-121920000D03*
X159004000Y-117475000D03*
X164973000Y-111887000D03*
X166116000Y-127254000D03*
X142113000Y-115316000D03*
G04 #@! TO.N,MISO*
X145542000Y-114046000D03*
X159385000Y-119634000D03*
G04 #@! TO.N,GND*
X153035000Y-118999000D03*
X159385000Y-121285000D03*
X154432000Y-127635000D03*
X144145000Y-123825000D03*
X147955000Y-118110000D03*
X164338000Y-117982999D03*
G04 #@! TD*
D24*
G04 #@! TO.N,+6V*
X157795000Y-127560000D02*
X157870000Y-127635000D01*
D25*
X157870000Y-126485000D02*
X156845000Y-125460000D01*
X157870000Y-127635000D02*
X157870000Y-126485000D01*
X174996628Y-125993372D02*
X175895000Y-125095000D01*
X172610010Y-128379990D02*
X174996628Y-125993372D01*
X158614990Y-128379990D02*
X172610010Y-128379990D01*
X157870000Y-127635000D02*
X158614990Y-128379990D01*
G04 #@! TO.N,+5V*
X166912000Y-111826000D02*
X167132000Y-112046000D01*
D24*
X155820000Y-121285000D02*
X155820000Y-121675000D01*
X155820000Y-121285000D02*
X155321000Y-121285000D01*
D25*
X142400000Y-121920000D02*
X144145000Y-121920000D01*
X139486000Y-115570000D02*
X139065000Y-115149000D01*
X142485000Y-113030000D02*
X142240000Y-112785000D01*
X155185000Y-121920000D02*
X155820000Y-121285000D01*
X154686000Y-121920000D02*
X155185000Y-121920000D01*
X155895000Y-121360000D02*
X155820000Y-121285000D01*
X155895000Y-123460000D02*
X155895000Y-121360000D01*
X155895000Y-123129000D02*
X154686000Y-121920000D01*
X155895000Y-123460000D02*
X155895000Y-123129000D01*
X142113000Y-112912000D02*
X142240000Y-112785000D01*
X142113000Y-115316000D02*
X142113000Y-112912000D01*
X139232000Y-115316000D02*
X139065000Y-115149000D01*
X142113000Y-115316000D02*
X139232000Y-115316000D01*
X171095051Y-116205000D02*
X172085000Y-116205000D01*
X170941000Y-116205000D02*
X171095051Y-116205000D01*
X167132000Y-112396000D02*
X170941000Y-116205000D01*
X167132000Y-112046000D02*
X167132000Y-112396000D01*
X165132000Y-112046000D02*
X164973000Y-111887000D01*
X167132000Y-112046000D02*
X165132000Y-112046000D01*
X159004000Y-118101000D02*
X159004000Y-117475000D01*
X155820000Y-121285000D02*
X159004000Y-118101000D01*
X166126000Y-127244000D02*
X166116000Y-127254000D01*
X167965000Y-127244000D02*
X166126000Y-127244000D01*
D24*
G04 #@! TO.N,MISO*
X140979000Y-110735000D02*
X142240000Y-110735000D01*
X139065000Y-112649000D02*
X140979000Y-110735000D01*
X144290000Y-112785000D02*
X144780000Y-112785000D01*
X142240000Y-110735000D02*
X144290000Y-112785000D01*
X143575001Y-113989999D02*
X144156628Y-113408372D01*
X143575001Y-118729999D02*
X143575001Y-113989999D01*
X144156628Y-113408372D02*
X144780000Y-112785000D01*
X142925000Y-119380000D02*
X143575001Y-118729999D01*
X142400000Y-119380000D02*
X142925000Y-119380000D01*
X144780000Y-113284000D02*
X145542000Y-114046000D01*
X144780000Y-112785000D02*
X144780000Y-113284000D01*
X160955000Y-119634000D02*
X160965000Y-119644000D01*
X159385000Y-119634000D02*
X160955000Y-119634000D01*
G04 #@! TO.N,SCK*
X141875000Y-120650000D02*
X142400000Y-120650000D01*
X141051010Y-121473990D02*
X141875000Y-120650000D01*
X138603275Y-121473990D02*
X141051010Y-121473990D01*
X137764990Y-120635705D02*
X138603275Y-121473990D01*
X137764990Y-117724010D02*
X137764990Y-120635705D01*
X137840000Y-117649000D02*
X137764990Y-117724010D01*
X139065000Y-117649000D02*
X137840000Y-117649000D01*
X146294990Y-112221820D02*
X146881800Y-111635010D01*
X142400000Y-120650000D02*
X142925000Y-120650000D01*
X148714990Y-111635010D02*
X149615000Y-110735000D01*
X142925000Y-120650000D02*
X146294990Y-117280010D01*
X149615000Y-110735000D02*
X149860000Y-110735000D01*
X146881800Y-111635010D02*
X148714990Y-111635010D01*
X146294990Y-117280010D02*
X146294990Y-112221820D01*
G04 #@! TO.N,MOSI*
X141300000Y-118110000D02*
X142400000Y-118110000D01*
X141229000Y-118110000D02*
X141300000Y-118110000D01*
X139190000Y-120149000D02*
X141229000Y-118110000D01*
X139065000Y-120149000D02*
X139190000Y-120149000D01*
X139847810Y-109728000D02*
X150441190Y-109728000D01*
X137764990Y-115635705D02*
X137764990Y-111810820D01*
X138603275Y-116473990D02*
X137764990Y-115635705D01*
X141875000Y-118110000D02*
X140238990Y-116473990D01*
X137764990Y-111810820D02*
X139847810Y-109728000D01*
X140238990Y-116473990D02*
X138603275Y-116473990D01*
X142400000Y-118110000D02*
X141875000Y-118110000D01*
X150885010Y-110171820D02*
X150441190Y-109728000D01*
X150885010Y-111905010D02*
X150885010Y-110171820D01*
X152518000Y-113538000D02*
X150885010Y-111905010D01*
G04 #@! TO.N,RST*
X149700000Y-122495000D02*
X149700000Y-121920000D01*
X149546000Y-122649000D02*
X149700000Y-122495000D01*
X139065000Y-122649000D02*
X149546000Y-122649000D01*
G04 #@! TO.N,MOTOR_IN*
X175895000Y-112595000D02*
X176020000Y-112595000D01*
X164287000Y-121844000D02*
X162087000Y-124044000D01*
X162087000Y-124044000D02*
X160965000Y-124044000D01*
X167965000Y-121844000D02*
X164287000Y-121844000D01*
X175770000Y-112595000D02*
X175895000Y-112595000D01*
X173863000Y-121285000D02*
X173863000Y-114502000D01*
X172837999Y-122310001D02*
X173863000Y-121285000D01*
X170951001Y-122310001D02*
X172837999Y-122310001D01*
X170485000Y-121844000D02*
X170951001Y-122310001D01*
X173863000Y-114502000D02*
X175770000Y-112595000D01*
X167965000Y-121844000D02*
X170485000Y-121844000D01*
G04 #@! TO.N,Net-(C3-Pad2)*
X149175000Y-120650000D02*
X149700000Y-120650000D01*
X142485000Y-126365000D02*
X142240000Y-126120000D01*
X146685000Y-126365000D02*
X142485000Y-126365000D01*
X150225000Y-120650000D02*
X149700000Y-120650000D01*
X150875001Y-121300001D02*
X150225000Y-120650000D01*
X150875001Y-122505001D02*
X150875001Y-121300001D01*
X147765001Y-125615001D02*
X150875001Y-122505001D01*
X147434999Y-125615001D02*
X147765001Y-125615001D01*
X146685000Y-126365000D02*
X147434999Y-125615001D01*
G04 #@! TO.N,Net-(C4-Pad2)*
X153035000Y-124895000D02*
X151565000Y-126365000D01*
X153035000Y-122310000D02*
X153035000Y-124895000D01*
X153035000Y-122190000D02*
X153035000Y-122310000D01*
X150225000Y-119380000D02*
X153035000Y-122190000D01*
X149700000Y-119380000D02*
X150225000Y-119380000D01*
G04 #@! TO.N,Net-(D2-Pad2)*
X144780000Y-110735000D02*
X147320000Y-110735000D01*
G04 #@! TO.N,Net-(D3-Pad1)*
X152645000Y-115570000D02*
X158233000Y-115570000D01*
X149860000Y-112785000D02*
X152645000Y-115570000D01*
G04 #@! TO.N,MOTOR_DRY*
X159469000Y-110871000D02*
X158369000Y-110871000D01*
X171069000Y-110109000D02*
X160231000Y-110109000D01*
X160231000Y-110109000D02*
X159469000Y-110871000D01*
X172085000Y-111125000D02*
X171069000Y-110109000D01*
G04 #@! TO.N,Net-(JP1-Pad2)*
X166815000Y-119644000D02*
X167965000Y-119644000D01*
X162768810Y-119644000D02*
X166815000Y-119644000D01*
X159133010Y-116008200D02*
X162768810Y-119644000D01*
X159133010Y-114175010D02*
X159133010Y-116008200D01*
X155829000Y-110871000D02*
X159133010Y-114175010D01*
G04 #@! TO.N,MOTOR_TTL*
X154568000Y-112150000D02*
X153289000Y-110871000D01*
X154568000Y-113538000D02*
X154568000Y-112150000D01*
G04 #@! TO.N,GND*
X157795000Y-123460000D02*
X157795000Y-123510000D01*
D25*
X155820000Y-127635000D02*
X154432000Y-127635000D01*
X157870000Y-123385000D02*
X157795000Y-123460000D01*
X157870000Y-121285000D02*
X157870000Y-123385000D01*
X157870000Y-121285000D02*
X159385000Y-121285000D01*
X150885000Y-118110000D02*
X153035000Y-120260000D01*
X149700000Y-118110000D02*
X150885000Y-118110000D01*
X153035000Y-120260000D02*
X153035000Y-118999000D01*
X149700000Y-118110000D02*
X147955000Y-118110000D01*
X143900000Y-124070000D02*
X144145000Y-123825000D01*
X142240000Y-124070000D02*
X143900000Y-124070000D01*
X140144000Y-124070000D02*
X139065000Y-125149000D01*
X142240000Y-124070000D02*
X140144000Y-124070000D01*
X147320000Y-117475000D02*
X147955000Y-118110000D01*
X147320000Y-112785000D02*
X147320000Y-117475000D01*
X160629000Y-127244000D02*
X160965000Y-127244000D01*
X157795000Y-124410000D02*
X160629000Y-127244000D01*
X157795000Y-123460000D02*
X157795000Y-124410000D01*
X164272000Y-117916999D02*
X164338000Y-117982999D01*
X164272000Y-116570000D02*
X164272000Y-117916999D01*
D24*
G04 #@! TO.N,SENSOR_IN*
X160465000Y-121844000D02*
X160965000Y-121844000D01*
X159739999Y-122569001D02*
X160465000Y-121844000D01*
X159739999Y-124704001D02*
X159739999Y-122569001D01*
X159804999Y-124769001D02*
X159739999Y-124704001D01*
X166089999Y-124769001D02*
X159804999Y-124769001D01*
X166815000Y-124044000D02*
X166089999Y-124769001D01*
X167965000Y-124044000D02*
X166815000Y-124044000D01*
X175770000Y-117595000D02*
X175895000Y-117595000D01*
X167965000Y-124044000D02*
X172374000Y-124044000D01*
X172374000Y-124044000D02*
X174313011Y-122104989D01*
X174313011Y-122104989D02*
X174313011Y-119051989D01*
X174313011Y-119051989D02*
X175770000Y-117595000D01*
G04 #@! TO.N,Net-(Q1-Pad1)*
X161283000Y-116570000D02*
X162372000Y-116570000D01*
X160283000Y-115570000D02*
X161283000Y-116570000D01*
D25*
G04 #@! TO.N,Net-(D1-Pad2)*
X165656000Y-114570000D02*
X167132000Y-116046000D01*
X163322000Y-114570000D02*
X165656000Y-114570000D01*
X172085000Y-120295051D02*
X172085000Y-121285000D01*
X168532000Y-116046000D02*
X172085000Y-119599000D01*
X172085000Y-119599000D02*
X172085000Y-120295051D01*
X167132000Y-116046000D02*
X168532000Y-116046000D01*
G04 #@! TD*
M02*
