G04 #@! TF.GenerationSoftware,KiCad,Pcbnew,(5.0.2-5)-5*
G04 #@! TF.CreationDate,2019-07-31T22:00:08+03:00*
G04 #@! TF.ProjectId,bike_motor_shim,62696b65-5f6d-46f7-946f-725f7368696d,rev?*
G04 #@! TF.SameCoordinates,Original*
G04 #@! TF.FileFunction,Legend,Bot*
G04 #@! TF.FilePolarity,Positive*
%FSLAX46Y46*%
G04 Gerber Fmt 4.6, Leading zero omitted, Abs format (unit mm)*
G04 Created by KiCad (PCBNEW (5.0.2-5)-5) date 2019 July 31, Wednesday 22:00:08*
%MOMM*%
%LPD*%
G01*
G04 APERTURE LIST*
%ADD10C,0.100000*%
%ADD11C,0.300000*%
%ADD12C,0.010000*%
G04 APERTURE END LIST*
D10*
X167639232Y-122064428D02*
X167564232Y-121464428D01*
X167382089Y-122064428D02*
X167342803Y-121750142D01*
X167364232Y-121693000D01*
X167417803Y-121664428D01*
X167503517Y-121664428D01*
X167564232Y-121693000D01*
X167596375Y-121721571D01*
X167132089Y-121664428D02*
X166903517Y-121664428D01*
X167021375Y-121464428D02*
X167085660Y-121978714D01*
X167064232Y-122035857D01*
X167010660Y-122064428D01*
X166953517Y-122064428D01*
X166789232Y-121664428D02*
X166560660Y-121664428D01*
X166678517Y-121464428D02*
X166742803Y-121978714D01*
X166721375Y-122035857D01*
X166667803Y-122064428D01*
X166610660Y-122064428D01*
X166360660Y-121664428D02*
X166435660Y-122264428D01*
X166364232Y-121693000D02*
X166303517Y-121664428D01*
X166189232Y-121664428D01*
X166135660Y-121693000D01*
X166110660Y-121721571D01*
X166089232Y-121778714D01*
X166110660Y-121950142D01*
X166146375Y-122007285D01*
X166178517Y-122035857D01*
X166239232Y-122064428D01*
X166353517Y-122064428D01*
X166407089Y-122035857D01*
X165892803Y-122035857D02*
X165839232Y-122064428D01*
X165724946Y-122064428D01*
X165664232Y-122035857D01*
X165628517Y-121978714D01*
X165624946Y-121950142D01*
X165646375Y-121893000D01*
X165699946Y-121864428D01*
X165785660Y-121864428D01*
X165839232Y-121835857D01*
X165860660Y-121778714D01*
X165857089Y-121750142D01*
X165821375Y-121693000D01*
X165760660Y-121664428D01*
X165674946Y-121664428D01*
X165621375Y-121693000D01*
X165374946Y-122007285D02*
X165349946Y-122035857D01*
X165382089Y-122064428D01*
X165407089Y-122035857D01*
X165374946Y-122007285D01*
X165382089Y-122064428D01*
X165335660Y-121693000D02*
X165310660Y-121721571D01*
X165342803Y-121750142D01*
X165367803Y-121721571D01*
X165335660Y-121693000D01*
X165342803Y-121750142D01*
X164589232Y-121435857D02*
X165199946Y-122207285D01*
X163960660Y-121435857D02*
X164571375Y-122207285D01*
X163532089Y-121664428D02*
X163592803Y-122150142D01*
X163628517Y-122207285D01*
X163660660Y-122235857D01*
X163721375Y-122264428D01*
X163807089Y-122264428D01*
X163860660Y-122235857D01*
X163578517Y-122035857D02*
X163639232Y-122064428D01*
X163753517Y-122064428D01*
X163807089Y-122035857D01*
X163832089Y-122007285D01*
X163853517Y-121950142D01*
X163832089Y-121778714D01*
X163796375Y-121721571D01*
X163764232Y-121693000D01*
X163703517Y-121664428D01*
X163589232Y-121664428D01*
X163535660Y-121693000D01*
X163296375Y-122064428D02*
X163246375Y-121664428D01*
X163221375Y-121464428D02*
X163253517Y-121493000D01*
X163228517Y-121521571D01*
X163196375Y-121493000D01*
X163221375Y-121464428D01*
X163228517Y-121521571D01*
X163046375Y-121664428D02*
X162817803Y-121664428D01*
X162935660Y-121464428D02*
X162999946Y-121978714D01*
X162978517Y-122035857D01*
X162924946Y-122064428D01*
X162867803Y-122064428D01*
X162667803Y-122064428D02*
X162592803Y-121464428D01*
X162410660Y-122064428D02*
X162371375Y-121750142D01*
X162392803Y-121693000D01*
X162446375Y-121664428D01*
X162532089Y-121664428D01*
X162592803Y-121693000D01*
X162624946Y-121721571D01*
X161817803Y-121664428D02*
X161867803Y-122064428D01*
X162074946Y-121664428D02*
X162114232Y-121978714D01*
X162092803Y-122035857D01*
X162039232Y-122064428D01*
X161953517Y-122064428D01*
X161892803Y-122035857D01*
X161860660Y-122007285D01*
X161582089Y-122064428D02*
X161507089Y-121464428D01*
X161535660Y-121693000D02*
X161474946Y-121664428D01*
X161360660Y-121664428D01*
X161307089Y-121693000D01*
X161282089Y-121721571D01*
X161260660Y-121778714D01*
X161282089Y-121950142D01*
X161317803Y-122007285D01*
X161349946Y-122035857D01*
X161410660Y-122064428D01*
X161524946Y-122064428D01*
X161578517Y-122035857D01*
X161032089Y-122007285D02*
X161007089Y-122035857D01*
X161039232Y-122064428D01*
X161064232Y-122035857D01*
X161032089Y-122007285D01*
X161039232Y-122064428D01*
X160492803Y-122035857D02*
X160553517Y-122064428D01*
X160667803Y-122064428D01*
X160721375Y-122035857D01*
X160746374Y-122007285D01*
X160767803Y-121950142D01*
X160746374Y-121778714D01*
X160710660Y-121721571D01*
X160678517Y-121693000D01*
X160617803Y-121664428D01*
X160503517Y-121664428D01*
X160449946Y-121693000D01*
X160153517Y-122064428D02*
X160207089Y-122035857D01*
X160232089Y-122007285D01*
X160253517Y-121950142D01*
X160232089Y-121778714D01*
X160196374Y-121721571D01*
X160164232Y-121693000D01*
X160103517Y-121664428D01*
X160017803Y-121664428D01*
X159964232Y-121693000D01*
X159939232Y-121721571D01*
X159917803Y-121778714D01*
X159939232Y-121950142D01*
X159974946Y-122007285D01*
X160007089Y-122035857D01*
X160067803Y-122064428D01*
X160153517Y-122064428D01*
X159696374Y-122064428D02*
X159646374Y-121664428D01*
X159653517Y-121721571D02*
X159621374Y-121693000D01*
X159560660Y-121664428D01*
X159474946Y-121664428D01*
X159421374Y-121693000D01*
X159399946Y-121750142D01*
X159439232Y-122064428D01*
X159399946Y-121750142D02*
X159364232Y-121693000D01*
X159303517Y-121664428D01*
X159217803Y-121664428D01*
X159164232Y-121693000D01*
X159142803Y-121750142D01*
X159182089Y-122064428D01*
X158389232Y-121435857D02*
X158999946Y-122207285D01*
X158267803Y-122064428D02*
X158217803Y-121664428D01*
X158224946Y-121721571D02*
X158192803Y-121693000D01*
X158132089Y-121664428D01*
X158046374Y-121664428D01*
X157992803Y-121693000D01*
X157971374Y-121750142D01*
X158010660Y-122064428D01*
X157971374Y-121750142D02*
X157935660Y-121693000D01*
X157874946Y-121664428D01*
X157789232Y-121664428D01*
X157735660Y-121693000D01*
X157714232Y-121750142D01*
X157753517Y-122064428D01*
X157210660Y-122064428D02*
X157171374Y-121750142D01*
X157192803Y-121693000D01*
X157246374Y-121664428D01*
X157360660Y-121664428D01*
X157421374Y-121693000D01*
X157207089Y-122035857D02*
X157267803Y-122064428D01*
X157410660Y-122064428D01*
X157464232Y-122035857D01*
X157485660Y-121978714D01*
X157478517Y-121921571D01*
X157442803Y-121864428D01*
X157382089Y-121835857D01*
X157239232Y-121835857D01*
X157178517Y-121807285D01*
X156924946Y-122064428D02*
X156874946Y-121664428D01*
X156889232Y-121778714D02*
X156853517Y-121721571D01*
X156821374Y-121693000D01*
X156760660Y-121664428D01*
X156703517Y-121664428D01*
X156364232Y-121464428D02*
X156307089Y-121464428D01*
X156253517Y-121493000D01*
X156228517Y-121521571D01*
X156207089Y-121578714D01*
X156192803Y-121693000D01*
X156210660Y-121835857D01*
X156253517Y-121950142D01*
X156289232Y-122007285D01*
X156321374Y-122035857D01*
X156382089Y-122064428D01*
X156439232Y-122064428D01*
X156492803Y-122035857D01*
X156517803Y-122007285D01*
X156539232Y-121950142D01*
X156553517Y-121835857D01*
X156535660Y-121693000D01*
X156492803Y-121578714D01*
X156457089Y-121521571D01*
X156424946Y-121493000D01*
X156364232Y-121464428D01*
X156039232Y-122064428D02*
X155674946Y-121664428D01*
X155989232Y-121664428D02*
X155724946Y-122064428D01*
X154989232Y-121435857D02*
X155599946Y-122207285D01*
X154867803Y-122064428D02*
X154792803Y-121464428D01*
X154821374Y-121693000D02*
X154760660Y-121664428D01*
X154646374Y-121664428D01*
X154592803Y-121693000D01*
X154567803Y-121721571D01*
X154546374Y-121778714D01*
X154567803Y-121950142D01*
X154603517Y-122007285D01*
X154635660Y-122035857D01*
X154696374Y-122064428D01*
X154810660Y-122064428D01*
X154864232Y-122035857D01*
X154324946Y-122064428D02*
X154274946Y-121664428D01*
X154249946Y-121464428D02*
X154282089Y-121493000D01*
X154257089Y-121521571D01*
X154224946Y-121493000D01*
X154249946Y-121464428D01*
X154257089Y-121521571D01*
X154039232Y-122064428D02*
X153964232Y-121464428D01*
X153953517Y-121835857D02*
X153810660Y-122064428D01*
X153760660Y-121664428D02*
X154017803Y-121893000D01*
X153321374Y-122035857D02*
X153382089Y-122064428D01*
X153496374Y-122064428D01*
X153549946Y-122035857D01*
X153571374Y-121978714D01*
X153542803Y-121750142D01*
X153507089Y-121693000D01*
X153446374Y-121664428D01*
X153332089Y-121664428D01*
X153278517Y-121693000D01*
X153257089Y-121750142D01*
X153264232Y-121807285D01*
X153557089Y-121864428D01*
X153189232Y-122121571D02*
X152732089Y-122121571D01*
X152582089Y-122064428D02*
X152532089Y-121664428D01*
X152539232Y-121721571D02*
X152507089Y-121693000D01*
X152446374Y-121664428D01*
X152360660Y-121664428D01*
X152307089Y-121693000D01*
X152285660Y-121750142D01*
X152324946Y-122064428D01*
X152285660Y-121750142D02*
X152249946Y-121693000D01*
X152189232Y-121664428D01*
X152103517Y-121664428D01*
X152049946Y-121693000D01*
X152028517Y-121750142D01*
X152067803Y-122064428D01*
X151696374Y-122064428D02*
X151749946Y-122035857D01*
X151774946Y-122007285D01*
X151796374Y-121950142D01*
X151774946Y-121778714D01*
X151739232Y-121721571D01*
X151707089Y-121693000D01*
X151646374Y-121664428D01*
X151560660Y-121664428D01*
X151507089Y-121693000D01*
X151482089Y-121721571D01*
X151460660Y-121778714D01*
X151482089Y-121950142D01*
X151517803Y-122007285D01*
X151549946Y-122035857D01*
X151610660Y-122064428D01*
X151696374Y-122064428D01*
X151274946Y-121664428D02*
X151046374Y-121664428D01*
X151164232Y-121464428D02*
X151228517Y-121978714D01*
X151207089Y-122035857D01*
X151153517Y-122064428D01*
X151096374Y-122064428D01*
X150810660Y-122064428D02*
X150864232Y-122035857D01*
X150889232Y-122007285D01*
X150910660Y-121950142D01*
X150889232Y-121778714D01*
X150853517Y-121721571D01*
X150821374Y-121693000D01*
X150760660Y-121664428D01*
X150674946Y-121664428D01*
X150621374Y-121693000D01*
X150596374Y-121721571D01*
X150574946Y-121778714D01*
X150596374Y-121950142D01*
X150632089Y-122007285D01*
X150664232Y-122035857D01*
X150724946Y-122064428D01*
X150810660Y-122064428D01*
X150353517Y-122064428D02*
X150303517Y-121664428D01*
X150317803Y-121778714D02*
X150282089Y-121721571D01*
X150249946Y-121693000D01*
X150189232Y-121664428D01*
X150132089Y-121664428D01*
X150132089Y-122121571D02*
X149674946Y-122121571D01*
X149549946Y-122035857D02*
X149496374Y-122064428D01*
X149382089Y-122064428D01*
X149321374Y-122035857D01*
X149285660Y-121978714D01*
X149282089Y-121950142D01*
X149303517Y-121893000D01*
X149357089Y-121864428D01*
X149442803Y-121864428D01*
X149496374Y-121835857D01*
X149517803Y-121778714D01*
X149514232Y-121750142D01*
X149478517Y-121693000D01*
X149417803Y-121664428D01*
X149332089Y-121664428D01*
X149278517Y-121693000D01*
X149039232Y-122064428D02*
X148964232Y-121464428D01*
X148782089Y-122064428D02*
X148742803Y-121750142D01*
X148764232Y-121693000D01*
X148817803Y-121664428D01*
X148903517Y-121664428D01*
X148964232Y-121693000D01*
X148996374Y-121721571D01*
X148496374Y-122064428D02*
X148446374Y-121664428D01*
X148421374Y-121464428D02*
X148453517Y-121493000D01*
X148428517Y-121521571D01*
X148396374Y-121493000D01*
X148421374Y-121464428D01*
X148428517Y-121521571D01*
X148210660Y-122064428D02*
X148160660Y-121664428D01*
X148167803Y-121721571D02*
X148135660Y-121693000D01*
X148074946Y-121664428D01*
X147989232Y-121664428D01*
X147935660Y-121693000D01*
X147914232Y-121750142D01*
X147953517Y-122064428D01*
X147914232Y-121750142D02*
X147878517Y-121693000D01*
X147817803Y-121664428D01*
X147732089Y-121664428D01*
X147678517Y-121693000D01*
X147657089Y-121750142D01*
X147696374Y-122064428D01*
X143076714Y-127363571D02*
X143048142Y-127335000D01*
X142991000Y-127306428D01*
X142848142Y-127306428D01*
X142791000Y-127335000D01*
X142762428Y-127363571D01*
X142733857Y-127420714D01*
X142733857Y-127477857D01*
X142762428Y-127563571D01*
X143105285Y-127906428D01*
X142733857Y-127906428D01*
X142362428Y-127306428D02*
X142305285Y-127306428D01*
X142248142Y-127335000D01*
X142219571Y-127363571D01*
X142191000Y-127420714D01*
X142162428Y-127535000D01*
X142162428Y-127677857D01*
X142191000Y-127792142D01*
X142219571Y-127849285D01*
X142248142Y-127877857D01*
X142305285Y-127906428D01*
X142362428Y-127906428D01*
X142419571Y-127877857D01*
X142448142Y-127849285D01*
X142476714Y-127792142D01*
X142505285Y-127677857D01*
X142505285Y-127535000D01*
X142476714Y-127420714D01*
X142448142Y-127363571D01*
X142419571Y-127335000D01*
X142362428Y-127306428D01*
X141591000Y-127906428D02*
X141933857Y-127906428D01*
X141762428Y-127906428D02*
X141762428Y-127306428D01*
X141819571Y-127392142D01*
X141876714Y-127449285D01*
X141933857Y-127477857D01*
X141305285Y-127906428D02*
X141191000Y-127906428D01*
X141133857Y-127877857D01*
X141105285Y-127849285D01*
X141048142Y-127763571D01*
X141019571Y-127649285D01*
X141019571Y-127420714D01*
X141048142Y-127363571D01*
X141076714Y-127335000D01*
X141133857Y-127306428D01*
X141248142Y-127306428D01*
X141305285Y-127335000D01*
X141333857Y-127363571D01*
X141362428Y-127420714D01*
X141362428Y-127563571D01*
X141333857Y-127620714D01*
X141305285Y-127649285D01*
X141248142Y-127677857D01*
X141133857Y-127677857D01*
X141076714Y-127649285D01*
X141048142Y-127620714D01*
X141019571Y-127563571D01*
X140762428Y-127849285D02*
X140733857Y-127877857D01*
X140762428Y-127906428D01*
X140791000Y-127877857D01*
X140762428Y-127849285D01*
X140762428Y-127906428D01*
X140362428Y-127306428D02*
X140305285Y-127306428D01*
X140248142Y-127335000D01*
X140219571Y-127363571D01*
X140191000Y-127420714D01*
X140162428Y-127535000D01*
X140162428Y-127677857D01*
X140191000Y-127792142D01*
X140219571Y-127849285D01*
X140248142Y-127877857D01*
X140305285Y-127906428D01*
X140362428Y-127906428D01*
X140419571Y-127877857D01*
X140448142Y-127849285D01*
X140476714Y-127792142D01*
X140505285Y-127677857D01*
X140505285Y-127535000D01*
X140476714Y-127420714D01*
X140448142Y-127363571D01*
X140419571Y-127335000D01*
X140362428Y-127306428D01*
X139962428Y-127306428D02*
X139562428Y-127306428D01*
X139819571Y-127906428D01*
X139333857Y-127849285D02*
X139305285Y-127877857D01*
X139333857Y-127906428D01*
X139362428Y-127877857D01*
X139333857Y-127849285D01*
X139333857Y-127906428D01*
X139105285Y-127306428D02*
X138733857Y-127306428D01*
X138933857Y-127535000D01*
X138848142Y-127535000D01*
X138791000Y-127563571D01*
X138762428Y-127592142D01*
X138733857Y-127649285D01*
X138733857Y-127792142D01*
X138762428Y-127849285D01*
X138791000Y-127877857D01*
X138848142Y-127906428D01*
X139019571Y-127906428D01*
X139076714Y-127877857D01*
X139105285Y-127849285D01*
X138362428Y-127306428D02*
X138305285Y-127306428D01*
X138248142Y-127335000D01*
X138219571Y-127363571D01*
X138191000Y-127420714D01*
X138162428Y-127535000D01*
X138162428Y-127677857D01*
X138191000Y-127792142D01*
X138219571Y-127849285D01*
X138248142Y-127877857D01*
X138305285Y-127906428D01*
X138362428Y-127906428D01*
X138419571Y-127877857D01*
X138448142Y-127849285D01*
X138476714Y-127792142D01*
X138505285Y-127677857D01*
X138505285Y-127535000D01*
X138476714Y-127420714D01*
X138448142Y-127363571D01*
X138419571Y-127335000D01*
X138362428Y-127306428D01*
X158240523Y-113264904D02*
X158240523Y-112464904D01*
X158050047Y-112464904D01*
X157935761Y-112503000D01*
X157859571Y-112579190D01*
X157821476Y-112655380D01*
X157783380Y-112807761D01*
X157783380Y-112922047D01*
X157821476Y-113074428D01*
X157859571Y-113150619D01*
X157935761Y-113226809D01*
X158050047Y-113264904D01*
X158240523Y-113264904D01*
X156983380Y-113264904D02*
X157250047Y-112883952D01*
X157440523Y-113264904D02*
X157440523Y-112464904D01*
X157135761Y-112464904D01*
X157059571Y-112503000D01*
X157021476Y-112541095D01*
X156983380Y-112617285D01*
X156983380Y-112731571D01*
X157021476Y-112807761D01*
X157059571Y-112845857D01*
X157135761Y-112883952D01*
X157440523Y-112883952D01*
X156488142Y-112883952D02*
X156488142Y-113264904D01*
X156754809Y-112464904D02*
X156488142Y-112883952D01*
X156221476Y-112464904D01*
X155052809Y-112464904D02*
X154595666Y-112464904D01*
X154824238Y-113264904D02*
X154824238Y-112464904D01*
X154443285Y-112464904D02*
X153986142Y-112464904D01*
X154214714Y-113264904D02*
X154214714Y-112464904D01*
X153338523Y-113264904D02*
X153719476Y-113264904D01*
X153719476Y-112464904D01*
X174026619Y-117925809D02*
X173912333Y-117963904D01*
X173721857Y-117963904D01*
X173645666Y-117925809D01*
X173607571Y-117887714D01*
X173569476Y-117811523D01*
X173569476Y-117735333D01*
X173607571Y-117659142D01*
X173645666Y-117621047D01*
X173721857Y-117582952D01*
X173874238Y-117544857D01*
X173950428Y-117506761D01*
X173988523Y-117468666D01*
X174026619Y-117392476D01*
X174026619Y-117316285D01*
X173988523Y-117240095D01*
X173950428Y-117202000D01*
X173874238Y-117163904D01*
X173683761Y-117163904D01*
X173569476Y-117202000D01*
X173226619Y-117544857D02*
X172959952Y-117544857D01*
X172845666Y-117963904D02*
X173226619Y-117963904D01*
X173226619Y-117163904D01*
X172845666Y-117163904D01*
X172502809Y-117963904D02*
X172502809Y-117163904D01*
X172045666Y-117963904D01*
X172045666Y-117163904D01*
X171702809Y-117925809D02*
X171588523Y-117963904D01*
X171398047Y-117963904D01*
X171321857Y-117925809D01*
X171283761Y-117887714D01*
X171245666Y-117811523D01*
X171245666Y-117735333D01*
X171283761Y-117659142D01*
X171321857Y-117621047D01*
X171398047Y-117582952D01*
X171550428Y-117544857D01*
X171626619Y-117506761D01*
X171664714Y-117468666D01*
X171702809Y-117392476D01*
X171702809Y-117316285D01*
X171664714Y-117240095D01*
X171626619Y-117202000D01*
X171550428Y-117163904D01*
X171359952Y-117163904D01*
X171245666Y-117202000D01*
X170750428Y-117163904D02*
X170598047Y-117163904D01*
X170521857Y-117202000D01*
X170445666Y-117278190D01*
X170407571Y-117430571D01*
X170407571Y-117697238D01*
X170445666Y-117849619D01*
X170521857Y-117925809D01*
X170598047Y-117963904D01*
X170750428Y-117963904D01*
X170826619Y-117925809D01*
X170902809Y-117849619D01*
X170940904Y-117697238D01*
X170940904Y-117430571D01*
X170902809Y-117278190D01*
X170826619Y-117202000D01*
X170750428Y-117163904D01*
X169607571Y-117963904D02*
X169874238Y-117582952D01*
X170064714Y-117963904D02*
X170064714Y-117163904D01*
X169759952Y-117163904D01*
X169683761Y-117202000D01*
X169645666Y-117240095D01*
X169607571Y-117316285D01*
X169607571Y-117430571D01*
X169645666Y-117506761D01*
X169683761Y-117544857D01*
X169759952Y-117582952D01*
X170064714Y-117582952D01*
D11*
X173926428Y-115042142D02*
X172783571Y-115042142D01*
X173926428Y-120122142D02*
X172783571Y-120122142D01*
D10*
X142558809Y-123551904D02*
X142825476Y-123170952D01*
X143015952Y-123551904D02*
X143015952Y-122751904D01*
X142711190Y-122751904D01*
X142635000Y-122790000D01*
X142596904Y-122828095D01*
X142558809Y-122904285D01*
X142558809Y-123018571D01*
X142596904Y-123094761D01*
X142635000Y-123132857D01*
X142711190Y-123170952D01*
X143015952Y-123170952D01*
X142254047Y-123513809D02*
X142139761Y-123551904D01*
X141949285Y-123551904D01*
X141873095Y-123513809D01*
X141835000Y-123475714D01*
X141796904Y-123399523D01*
X141796904Y-123323333D01*
X141835000Y-123247142D01*
X141873095Y-123209047D01*
X141949285Y-123170952D01*
X142101666Y-123132857D01*
X142177857Y-123094761D01*
X142215952Y-123056666D01*
X142254047Y-122980476D01*
X142254047Y-122904285D01*
X142215952Y-122828095D01*
X142177857Y-122790000D01*
X142101666Y-122751904D01*
X141911190Y-122751904D01*
X141796904Y-122790000D01*
X141568333Y-122751904D02*
X141111190Y-122751904D01*
X141339761Y-123551904D02*
X141339761Y-122751904D01*
X143739761Y-121011904D02*
X143739761Y-120211904D01*
X143473095Y-120783333D01*
X143206428Y-120211904D01*
X143206428Y-121011904D01*
X142673095Y-120211904D02*
X142520714Y-120211904D01*
X142444523Y-120250000D01*
X142368333Y-120326190D01*
X142330238Y-120478571D01*
X142330238Y-120745238D01*
X142368333Y-120897619D01*
X142444523Y-120973809D01*
X142520714Y-121011904D01*
X142673095Y-121011904D01*
X142749285Y-120973809D01*
X142825476Y-120897619D01*
X142863571Y-120745238D01*
X142863571Y-120478571D01*
X142825476Y-120326190D01*
X142749285Y-120250000D01*
X142673095Y-120211904D01*
X142025476Y-120973809D02*
X141911190Y-121011904D01*
X141720714Y-121011904D01*
X141644523Y-120973809D01*
X141606428Y-120935714D01*
X141568333Y-120859523D01*
X141568333Y-120783333D01*
X141606428Y-120707142D01*
X141644523Y-120669047D01*
X141720714Y-120630952D01*
X141873095Y-120592857D01*
X141949285Y-120554761D01*
X141987380Y-120516666D01*
X142025476Y-120440476D01*
X142025476Y-120364285D01*
X141987380Y-120288095D01*
X141949285Y-120250000D01*
X141873095Y-120211904D01*
X141682619Y-120211904D01*
X141568333Y-120250000D01*
X141225476Y-121011904D02*
X141225476Y-120211904D01*
X143244523Y-118433809D02*
X143130238Y-118471904D01*
X142939761Y-118471904D01*
X142863571Y-118433809D01*
X142825476Y-118395714D01*
X142787380Y-118319523D01*
X142787380Y-118243333D01*
X142825476Y-118167142D01*
X142863571Y-118129047D01*
X142939761Y-118090952D01*
X143092142Y-118052857D01*
X143168333Y-118014761D01*
X143206428Y-117976666D01*
X143244523Y-117900476D01*
X143244523Y-117824285D01*
X143206428Y-117748095D01*
X143168333Y-117710000D01*
X143092142Y-117671904D01*
X142901666Y-117671904D01*
X142787380Y-117710000D01*
X141987380Y-118395714D02*
X142025476Y-118433809D01*
X142139761Y-118471904D01*
X142215952Y-118471904D01*
X142330238Y-118433809D01*
X142406428Y-118357619D01*
X142444523Y-118281428D01*
X142482619Y-118129047D01*
X142482619Y-118014761D01*
X142444523Y-117862380D01*
X142406428Y-117786190D01*
X142330238Y-117710000D01*
X142215952Y-117671904D01*
X142139761Y-117671904D01*
X142025476Y-117710000D01*
X141987380Y-117748095D01*
X141644523Y-118471904D02*
X141644523Y-117671904D01*
X141187380Y-118471904D02*
X141530238Y-118014761D01*
X141187380Y-117671904D02*
X141644523Y-118129047D01*
X173988523Y-113137904D02*
X173988523Y-112337904D01*
X173721857Y-112909333D01*
X173455190Y-112337904D01*
X173455190Y-113137904D01*
X172921857Y-112337904D02*
X172769476Y-112337904D01*
X172693285Y-112376000D01*
X172617095Y-112452190D01*
X172579000Y-112604571D01*
X172579000Y-112871238D01*
X172617095Y-113023619D01*
X172693285Y-113099809D01*
X172769476Y-113137904D01*
X172921857Y-113137904D01*
X172998047Y-113099809D01*
X173074238Y-113023619D01*
X173112333Y-112871238D01*
X173112333Y-112604571D01*
X173074238Y-112452190D01*
X172998047Y-112376000D01*
X172921857Y-112337904D01*
X172350428Y-112337904D02*
X171893285Y-112337904D01*
X172121857Y-113137904D02*
X172121857Y-112337904D01*
X171474238Y-112337904D02*
X171321857Y-112337904D01*
X171245666Y-112376000D01*
X171169476Y-112452190D01*
X171131380Y-112604571D01*
X171131380Y-112871238D01*
X171169476Y-113023619D01*
X171245666Y-113099809D01*
X171321857Y-113137904D01*
X171474238Y-113137904D01*
X171550428Y-113099809D01*
X171626619Y-113023619D01*
X171664714Y-112871238D01*
X171664714Y-112604571D01*
X171626619Y-112452190D01*
X171550428Y-112376000D01*
X171474238Y-112337904D01*
X170331380Y-113137904D02*
X170598047Y-112756952D01*
X170788523Y-113137904D02*
X170788523Y-112337904D01*
X170483761Y-112337904D01*
X170407571Y-112376000D01*
X170369476Y-112414095D01*
X170331380Y-112490285D01*
X170331380Y-112604571D01*
X170369476Y-112680761D01*
X170407571Y-112718857D01*
X170483761Y-112756952D01*
X170788523Y-112756952D01*
D11*
X173926428Y-125202142D02*
X172783571Y-125202142D01*
X173355000Y-125773571D02*
X173355000Y-124630714D01*
X173926428Y-122662142D02*
X172783571Y-122662142D01*
X142303428Y-125583142D02*
X141160571Y-125583142D01*
X142303428Y-115423142D02*
X141160571Y-115423142D01*
X141732000Y-115994571D02*
X141732000Y-114851714D01*
D10*
X143739761Y-113391904D02*
X143739761Y-112591904D01*
X143473095Y-113163333D01*
X143206428Y-112591904D01*
X143206428Y-113391904D01*
X142825476Y-113391904D02*
X142825476Y-112591904D01*
X142482619Y-113353809D02*
X142368333Y-113391904D01*
X142177857Y-113391904D01*
X142101666Y-113353809D01*
X142063571Y-113315714D01*
X142025476Y-113239523D01*
X142025476Y-113163333D01*
X142063571Y-113087142D01*
X142101666Y-113049047D01*
X142177857Y-113010952D01*
X142330238Y-112972857D01*
X142406428Y-112934761D01*
X142444523Y-112896666D01*
X142482619Y-112820476D01*
X142482619Y-112744285D01*
X142444523Y-112668095D01*
X142406428Y-112630000D01*
X142330238Y-112591904D01*
X142139761Y-112591904D01*
X142025476Y-112630000D01*
X141530238Y-112591904D02*
X141377857Y-112591904D01*
X141301666Y-112630000D01*
X141225476Y-112706190D01*
X141187380Y-112858571D01*
X141187380Y-113125238D01*
X141225476Y-113277619D01*
X141301666Y-113353809D01*
X141377857Y-113391904D01*
X141530238Y-113391904D01*
X141606428Y-113353809D01*
X141682619Y-113277619D01*
X141720714Y-113125238D01*
X141720714Y-112858571D01*
X141682619Y-112706190D01*
X141606428Y-112630000D01*
X141530238Y-112591904D01*
D12*
G04 #@! TO.C,G\002A\002A\002A*
G36*
X148239228Y-117206960D02*
X148179458Y-117340054D01*
X148182548Y-117367939D01*
X148269929Y-117502995D01*
X148413406Y-117542291D01*
X148538176Y-117472856D01*
X148559165Y-117433233D01*
X148560141Y-117267790D01*
X148522266Y-117204067D01*
X148378165Y-117149732D01*
X148239228Y-117206960D01*
X148239228Y-117206960D01*
G37*
X148239228Y-117206960D02*
X148179458Y-117340054D01*
X148182548Y-117367939D01*
X148269929Y-117502995D01*
X148413406Y-117542291D01*
X148538176Y-117472856D01*
X148559165Y-117433233D01*
X148560141Y-117267790D01*
X148522266Y-117204067D01*
X148378165Y-117149732D01*
X148239228Y-117206960D01*
G36*
X149262366Y-117086641D02*
X149026705Y-117167933D01*
X148842702Y-117306966D01*
X148841846Y-117307820D01*
X148763461Y-117408232D01*
X148713804Y-117544773D01*
X148686677Y-117754848D01*
X148675885Y-118075860D01*
X148674666Y-118316946D01*
X148678475Y-118712542D01*
X148694824Y-118979376D01*
X148731095Y-119157940D01*
X148794673Y-119288724D01*
X148869482Y-119385378D01*
X148996819Y-119509254D01*
X149146975Y-119582521D01*
X149371677Y-119622098D01*
X149652649Y-119641522D01*
X149994508Y-119645138D01*
X150305694Y-119625294D01*
X150502008Y-119590338D01*
X150695051Y-119495118D01*
X150828214Y-119332058D01*
X150910679Y-119075020D01*
X150951627Y-118697869D01*
X150959205Y-118351502D01*
X150198666Y-118351502D01*
X150191832Y-118682432D01*
X150173646Y-118945906D01*
X150147582Y-119097995D01*
X150138193Y-119115919D01*
X150020531Y-119149851D01*
X149811642Y-119153601D01*
X149778359Y-119151196D01*
X149479000Y-119126000D01*
X149479000Y-118415561D01*
X149492151Y-118004668D01*
X149540314Y-117739916D01*
X149636554Y-117599542D01*
X149793936Y-117561783D01*
X149973895Y-117591146D01*
X150083769Y-117625975D01*
X150150338Y-117687082D01*
X150184446Y-117811153D01*
X150196940Y-118034873D01*
X150198666Y-118351502D01*
X150959205Y-118351502D01*
X150960666Y-118284729D01*
X150949601Y-117817143D01*
X150902784Y-117491141D01*
X150799782Y-117279669D01*
X150620163Y-117155675D01*
X150343494Y-117092102D01*
X150040743Y-117066692D01*
X149587705Y-117055443D01*
X149262366Y-117086641D01*
X149262366Y-117086641D01*
G37*
X149262366Y-117086641D02*
X149026705Y-117167933D01*
X148842702Y-117306966D01*
X148841846Y-117307820D01*
X148763461Y-117408232D01*
X148713804Y-117544773D01*
X148686677Y-117754848D01*
X148675885Y-118075860D01*
X148674666Y-118316946D01*
X148678475Y-118712542D01*
X148694824Y-118979376D01*
X148731095Y-119157940D01*
X148794673Y-119288724D01*
X148869482Y-119385378D01*
X148996819Y-119509254D01*
X149146975Y-119582521D01*
X149371677Y-119622098D01*
X149652649Y-119641522D01*
X149994508Y-119645138D01*
X150305694Y-119625294D01*
X150502008Y-119590338D01*
X150695051Y-119495118D01*
X150828214Y-119332058D01*
X150910679Y-119075020D01*
X150951627Y-118697869D01*
X150959205Y-118351502D01*
X150198666Y-118351502D01*
X150191832Y-118682432D01*
X150173646Y-118945906D01*
X150147582Y-119097995D01*
X150138193Y-119115919D01*
X150020531Y-119149851D01*
X149811642Y-119153601D01*
X149778359Y-119151196D01*
X149479000Y-119126000D01*
X149479000Y-118415561D01*
X149492151Y-118004668D01*
X149540314Y-117739916D01*
X149636554Y-117599542D01*
X149793936Y-117561783D01*
X149973895Y-117591146D01*
X150083769Y-117625975D01*
X150150338Y-117687082D01*
X150184446Y-117811153D01*
X150196940Y-118034873D01*
X150198666Y-118351502D01*
X150959205Y-118351502D01*
X150960666Y-118284729D01*
X150949601Y-117817143D01*
X150902784Y-117491141D01*
X150799782Y-117279669D01*
X150620163Y-117155675D01*
X150343494Y-117092102D01*
X150040743Y-117066692D01*
X149587705Y-117055443D01*
X149262366Y-117086641D01*
G36*
X152243010Y-117054731D02*
X151959398Y-117068060D01*
X151770698Y-117097862D01*
X151639724Y-117150342D01*
X151529291Y-117231709D01*
X151517389Y-117242167D01*
X151429524Y-117327551D01*
X151369222Y-117421385D01*
X151330874Y-117555706D01*
X151308872Y-117762556D01*
X151297606Y-118073972D01*
X151291467Y-118521994D01*
X151291351Y-118533334D01*
X151280033Y-119634000D01*
X152019000Y-119634000D01*
X152103666Y-117602000D01*
X152460856Y-117576095D01*
X152818045Y-117550189D01*
X152841856Y-118592095D01*
X152865666Y-119634000D01*
X153165026Y-119659196D01*
X153380779Y-119660441D01*
X153516399Y-119630416D01*
X153524859Y-119623919D01*
X153546121Y-119522064D01*
X153564111Y-119282233D01*
X153577390Y-118935775D01*
X153584517Y-118514037D01*
X153585333Y-118307556D01*
X153585333Y-117051667D01*
X152658721Y-117051667D01*
X152243010Y-117054731D01*
X152243010Y-117054731D01*
G37*
X152243010Y-117054731D02*
X151959398Y-117068060D01*
X151770698Y-117097862D01*
X151639724Y-117150342D01*
X151529291Y-117231709D01*
X151517389Y-117242167D01*
X151429524Y-117327551D01*
X151369222Y-117421385D01*
X151330874Y-117555706D01*
X151308872Y-117762556D01*
X151297606Y-118073972D01*
X151291467Y-118521994D01*
X151291351Y-118533334D01*
X151280033Y-119634000D01*
X152019000Y-119634000D01*
X152103666Y-117602000D01*
X152460856Y-117576095D01*
X152818045Y-117550189D01*
X152841856Y-118592095D01*
X152865666Y-119634000D01*
X153165026Y-119659196D01*
X153380779Y-119660441D01*
X153516399Y-119630416D01*
X153524859Y-119623919D01*
X153546121Y-119522064D01*
X153564111Y-119282233D01*
X153577390Y-118935775D01*
X153584517Y-118514037D01*
X153585333Y-118307556D01*
X153585333Y-117051667D01*
X152658721Y-117051667D01*
X152243010Y-117054731D01*
G36*
X154645662Y-117056481D02*
X154331321Y-117086655D01*
X154117739Y-117165783D01*
X153985449Y-117317463D01*
X153914986Y-117565288D01*
X153886884Y-117932856D01*
X153881677Y-118443762D01*
X153881666Y-118504515D01*
X153881666Y-119634000D01*
X154241500Y-119660035D01*
X154601333Y-119686070D01*
X154601333Y-119083667D01*
X155061635Y-119083667D01*
X155326363Y-119088166D01*
X155466125Y-119118383D01*
X155525289Y-119199394D01*
X155548222Y-119356276D01*
X155548469Y-119358834D01*
X155585587Y-119546091D01*
X155685022Y-119629697D01*
X155874359Y-119659196D01*
X156090112Y-119660441D01*
X156225732Y-119630416D01*
X156234193Y-119623919D01*
X156257343Y-119520483D01*
X156276399Y-119282466D01*
X156289465Y-118944607D01*
X156294648Y-118541643D01*
X156294666Y-118515374D01*
X156293261Y-118169267D01*
X155532666Y-118169267D01*
X155532666Y-118575667D01*
X154601333Y-118575667D01*
X154601333Y-118169267D01*
X154629664Y-117844056D01*
X154728586Y-117653367D01*
X154918999Y-117569842D01*
X155067000Y-117559667D01*
X155315424Y-117596754D01*
X155461090Y-117726253D01*
X155524894Y-117975520D01*
X155532666Y-118169267D01*
X156293261Y-118169267D01*
X156292879Y-118075268D01*
X156283801Y-117770810D01*
X156261861Y-117568325D01*
X156221486Y-117434135D01*
X156157103Y-117334565D01*
X156086848Y-117259485D01*
X155975276Y-117161562D01*
X155851337Y-117100309D01*
X155673939Y-117067241D01*
X155401992Y-117053875D01*
X155080228Y-117051667D01*
X154645662Y-117056481D01*
X154645662Y-117056481D01*
G37*
X154645662Y-117056481D02*
X154331321Y-117086655D01*
X154117739Y-117165783D01*
X153985449Y-117317463D01*
X153914986Y-117565288D01*
X153886884Y-117932856D01*
X153881677Y-118443762D01*
X153881666Y-118504515D01*
X153881666Y-119634000D01*
X154241500Y-119660035D01*
X154601333Y-119686070D01*
X154601333Y-119083667D01*
X155061635Y-119083667D01*
X155326363Y-119088166D01*
X155466125Y-119118383D01*
X155525289Y-119199394D01*
X155548222Y-119356276D01*
X155548469Y-119358834D01*
X155585587Y-119546091D01*
X155685022Y-119629697D01*
X155874359Y-119659196D01*
X156090112Y-119660441D01*
X156225732Y-119630416D01*
X156234193Y-119623919D01*
X156257343Y-119520483D01*
X156276399Y-119282466D01*
X156289465Y-118944607D01*
X156294648Y-118541643D01*
X156294666Y-118515374D01*
X156293261Y-118169267D01*
X155532666Y-118169267D01*
X155532666Y-118575667D01*
X154601333Y-118575667D01*
X154601333Y-118169267D01*
X154629664Y-117844056D01*
X154728586Y-117653367D01*
X154918999Y-117569842D01*
X155067000Y-117559667D01*
X155315424Y-117596754D01*
X155461090Y-117726253D01*
X155524894Y-117975520D01*
X155532666Y-118169267D01*
X156293261Y-118169267D01*
X156292879Y-118075268D01*
X156283801Y-117770810D01*
X156261861Y-117568325D01*
X156221486Y-117434135D01*
X156157103Y-117334565D01*
X156086848Y-117259485D01*
X155975276Y-117161562D01*
X155851337Y-117100309D01*
X155673939Y-117067241D01*
X155401992Y-117053875D01*
X155080228Y-117051667D01*
X154645662Y-117056481D01*
G36*
X157908112Y-117052752D02*
X157540489Y-117058494D01*
X157284172Y-117072627D01*
X157110151Y-117098883D01*
X156989413Y-117140992D01*
X156892947Y-117202689D01*
X156828554Y-117255890D01*
X156731223Y-117344186D01*
X156664940Y-117433225D01*
X156623742Y-117555426D01*
X156601664Y-117743210D01*
X156592741Y-118028997D01*
X156591008Y-118445206D01*
X156591000Y-118547057D01*
X156591000Y-119634000D01*
X157310666Y-119686070D01*
X157310666Y-118766051D01*
X157323522Y-118248356D01*
X157364790Y-117885265D01*
X157438522Y-117663810D01*
X157548767Y-117571022D01*
X157679423Y-117585586D01*
X157739209Y-117631058D01*
X157779369Y-117731978D01*
X157803560Y-117916634D01*
X157815440Y-118213311D01*
X157818665Y-118650296D01*
X157818666Y-118662544D01*
X157818666Y-119686070D01*
X158178500Y-119660035D01*
X158538333Y-119634000D01*
X158562106Y-118596834D01*
X158572974Y-118163627D01*
X158586186Y-117871787D01*
X158607939Y-117693394D01*
X158644431Y-117600524D01*
X158701860Y-117565256D01*
X158786425Y-117559668D01*
X158792333Y-117559667D01*
X158878674Y-117564384D01*
X158937518Y-117597152D01*
X158975062Y-117685890D01*
X158997505Y-117858522D01*
X159011045Y-118142969D01*
X159021880Y-118567154D01*
X159022561Y-118596834D01*
X159046333Y-119634000D01*
X159345693Y-119659196D01*
X159561445Y-119660441D01*
X159697065Y-119630416D01*
X159705526Y-119623919D01*
X159726788Y-119522064D01*
X159744778Y-119282233D01*
X159758057Y-118935775D01*
X159765183Y-118514037D01*
X159766000Y-118307556D01*
X159766000Y-117051667D01*
X158416054Y-117051667D01*
X157908112Y-117052752D01*
X157908112Y-117052752D01*
G37*
X157908112Y-117052752D02*
X157540489Y-117058494D01*
X157284172Y-117072627D01*
X157110151Y-117098883D01*
X156989413Y-117140992D01*
X156892947Y-117202689D01*
X156828554Y-117255890D01*
X156731223Y-117344186D01*
X156664940Y-117433225D01*
X156623742Y-117555426D01*
X156601664Y-117743210D01*
X156592741Y-118028997D01*
X156591008Y-118445206D01*
X156591000Y-118547057D01*
X156591000Y-119634000D01*
X157310666Y-119686070D01*
X157310666Y-118766051D01*
X157323522Y-118248356D01*
X157364790Y-117885265D01*
X157438522Y-117663810D01*
X157548767Y-117571022D01*
X157679423Y-117585586D01*
X157739209Y-117631058D01*
X157779369Y-117731978D01*
X157803560Y-117916634D01*
X157815440Y-118213311D01*
X157818665Y-118650296D01*
X157818666Y-118662544D01*
X157818666Y-119686070D01*
X158178500Y-119660035D01*
X158538333Y-119634000D01*
X158562106Y-118596834D01*
X158572974Y-118163627D01*
X158586186Y-117871787D01*
X158607939Y-117693394D01*
X158644431Y-117600524D01*
X158701860Y-117565256D01*
X158786425Y-117559668D01*
X158792333Y-117559667D01*
X158878674Y-117564384D01*
X158937518Y-117597152D01*
X158975062Y-117685890D01*
X158997505Y-117858522D01*
X159011045Y-118142969D01*
X159021880Y-118567154D01*
X159022561Y-118596834D01*
X159046333Y-119634000D01*
X159345693Y-119659196D01*
X159561445Y-119660441D01*
X159697065Y-119630416D01*
X159705526Y-119623919D01*
X159726788Y-119522064D01*
X159744778Y-119282233D01*
X159758057Y-118935775D01*
X159765183Y-118514037D01*
X159766000Y-118307556D01*
X159766000Y-117051667D01*
X158416054Y-117051667D01*
X157908112Y-117052752D01*
G36*
X160208269Y-118338103D02*
X160231666Y-119634000D01*
X160591500Y-119660035D01*
X160811583Y-119666050D01*
X160940273Y-119650437D01*
X160953823Y-119638868D01*
X160954887Y-119541845D01*
X160956142Y-119306508D01*
X160957460Y-118963878D01*
X160958712Y-118544975D01*
X160959213Y-118342834D01*
X160962111Y-117094000D01*
X160573492Y-117068103D01*
X160184872Y-117042207D01*
X160208269Y-118338103D01*
X160208269Y-118338103D01*
G37*
X160208269Y-118338103D02*
X160231666Y-119634000D01*
X160591500Y-119660035D01*
X160811583Y-119666050D01*
X160940273Y-119650437D01*
X160953823Y-119638868D01*
X160954887Y-119541845D01*
X160956142Y-119306508D01*
X160957460Y-118963878D01*
X160958712Y-118544975D01*
X160959213Y-118342834D01*
X160962111Y-117094000D01*
X160573492Y-117068103D01*
X160184872Y-117042207D01*
X160208269Y-118338103D01*
G36*
X161773468Y-117068130D02*
X161417000Y-117094000D01*
X161417000Y-119634000D01*
X161771127Y-119659756D01*
X161995032Y-119667894D01*
X162101549Y-119625964D01*
X162141867Y-119499840D01*
X162152127Y-119405756D01*
X162176604Y-119240118D01*
X162239411Y-119157560D01*
X162387092Y-119129161D01*
X162602333Y-119126000D01*
X162853573Y-119131770D01*
X162982005Y-119168046D01*
X163034146Y-119263280D01*
X163052198Y-119401167D01*
X163082821Y-119578384D01*
X163163682Y-119656590D01*
X163347720Y-119675970D01*
X163414688Y-119676334D01*
X163652530Y-119649956D01*
X163784729Y-119581090D01*
X163792824Y-119566423D01*
X163806526Y-119445275D01*
X163814902Y-119189068D01*
X163817464Y-118832008D01*
X163813720Y-118408301D01*
X163811334Y-118275256D01*
X163787666Y-117094000D01*
X163431198Y-117068130D01*
X163074730Y-117042259D01*
X163050198Y-117787796D01*
X163025666Y-118533334D01*
X162179000Y-118533334D01*
X162154468Y-117787796D01*
X162129937Y-117042259D01*
X161773468Y-117068130D01*
X161773468Y-117068130D01*
G37*
X161773468Y-117068130D02*
X161417000Y-117094000D01*
X161417000Y-119634000D01*
X161771127Y-119659756D01*
X161995032Y-119667894D01*
X162101549Y-119625964D01*
X162141867Y-119499840D01*
X162152127Y-119405756D01*
X162176604Y-119240118D01*
X162239411Y-119157560D01*
X162387092Y-119129161D01*
X162602333Y-119126000D01*
X162853573Y-119131770D01*
X162982005Y-119168046D01*
X163034146Y-119263280D01*
X163052198Y-119401167D01*
X163082821Y-119578384D01*
X163163682Y-119656590D01*
X163347720Y-119675970D01*
X163414688Y-119676334D01*
X163652530Y-119649956D01*
X163784729Y-119581090D01*
X163792824Y-119566423D01*
X163806526Y-119445275D01*
X163814902Y-119189068D01*
X163817464Y-118832008D01*
X163813720Y-118408301D01*
X163811334Y-118275256D01*
X163787666Y-117094000D01*
X163431198Y-117068130D01*
X163074730Y-117042259D01*
X163050198Y-117787796D01*
X163025666Y-118533334D01*
X162179000Y-118533334D01*
X162154468Y-117787796D01*
X162129937Y-117042259D01*
X161773468Y-117068130D01*
G36*
X165271318Y-117066696D02*
X165118503Y-117070170D01*
X164126333Y-117094000D01*
X164126333Y-117305667D01*
X164133201Y-117406234D01*
X164175548Y-117469858D01*
X164285990Y-117506695D01*
X164497142Y-117526899D01*
X164841619Y-117540628D01*
X164885539Y-117542064D01*
X165301440Y-117566027D01*
X165568715Y-117610838D01*
X165707582Y-117684448D01*
X165738255Y-117794807D01*
X165718108Y-117869489D01*
X165627891Y-117935652D01*
X165407323Y-117972362D01*
X165063367Y-117983000D01*
X164637139Y-118008120D01*
X164350453Y-118097651D01*
X164179108Y-118272846D01*
X164098905Y-118554962D01*
X164084000Y-118843168D01*
X164097583Y-119139822D01*
X164154522Y-119352130D01*
X164279106Y-119495157D01*
X164495621Y-119583969D01*
X164828354Y-119633629D01*
X165301594Y-119659204D01*
X165404827Y-119662449D01*
X165832905Y-119671588D01*
X166120466Y-119667172D01*
X166295983Y-119646369D01*
X166387932Y-119606347D01*
X166419356Y-119561562D01*
X166447647Y-119366038D01*
X166439789Y-119279112D01*
X166403824Y-119205600D01*
X166308380Y-119155403D01*
X166121995Y-119121137D01*
X165813209Y-119095417D01*
X165607128Y-119083667D01*
X165232799Y-119060948D01*
X164996517Y-119035125D01*
X164867073Y-118997977D01*
X164813257Y-118941281D01*
X164803666Y-118872000D01*
X164820758Y-118785583D01*
X164894707Y-118730039D01*
X165059526Y-118694522D01*
X165349229Y-118668189D01*
X165467529Y-118660334D01*
X165817785Y-118631080D01*
X166042962Y-118589190D01*
X166187313Y-118521679D01*
X166293029Y-118418120D01*
X166415799Y-118161803D01*
X166460645Y-117838380D01*
X166428150Y-117515430D01*
X166318897Y-117260534D01*
X166282669Y-117218336D01*
X166194172Y-117144529D01*
X166082645Y-117096771D01*
X165914232Y-117070752D01*
X165655075Y-117062163D01*
X165271318Y-117066696D01*
X165271318Y-117066696D01*
G37*
X165271318Y-117066696D02*
X165118503Y-117070170D01*
X164126333Y-117094000D01*
X164126333Y-117305667D01*
X164133201Y-117406234D01*
X164175548Y-117469858D01*
X164285990Y-117506695D01*
X164497142Y-117526899D01*
X164841619Y-117540628D01*
X164885539Y-117542064D01*
X165301440Y-117566027D01*
X165568715Y-117610838D01*
X165707582Y-117684448D01*
X165738255Y-117794807D01*
X165718108Y-117869489D01*
X165627891Y-117935652D01*
X165407323Y-117972362D01*
X165063367Y-117983000D01*
X164637139Y-118008120D01*
X164350453Y-118097651D01*
X164179108Y-118272846D01*
X164098905Y-118554962D01*
X164084000Y-118843168D01*
X164097583Y-119139822D01*
X164154522Y-119352130D01*
X164279106Y-119495157D01*
X164495621Y-119583969D01*
X164828354Y-119633629D01*
X165301594Y-119659204D01*
X165404827Y-119662449D01*
X165832905Y-119671588D01*
X166120466Y-119667172D01*
X166295983Y-119646369D01*
X166387932Y-119606347D01*
X166419356Y-119561562D01*
X166447647Y-119366038D01*
X166439789Y-119279112D01*
X166403824Y-119205600D01*
X166308380Y-119155403D01*
X166121995Y-119121137D01*
X165813209Y-119095417D01*
X165607128Y-119083667D01*
X165232799Y-119060948D01*
X164996517Y-119035125D01*
X164867073Y-118997977D01*
X164813257Y-118941281D01*
X164803666Y-118872000D01*
X164820758Y-118785583D01*
X164894707Y-118730039D01*
X165059526Y-118694522D01*
X165349229Y-118668189D01*
X165467529Y-118660334D01*
X165817785Y-118631080D01*
X166042962Y-118589190D01*
X166187313Y-118521679D01*
X166293029Y-118418120D01*
X166415799Y-118161803D01*
X166460645Y-117838380D01*
X166428150Y-117515430D01*
X166318897Y-117260534D01*
X166282669Y-117218336D01*
X166194172Y-117144529D01*
X166082645Y-117096771D01*
X165914232Y-117070752D01*
X165655075Y-117062163D01*
X165271318Y-117066696D01*
G04 #@! TD*
M02*
