G04 #@! TF.GenerationSoftware,KiCad,Pcbnew,(5.0.2-5)-5*
G04 #@! TF.CreationDate,2019-07-31T22:00:08+03:00*
G04 #@! TF.ProjectId,bike_motor_shim,62696b65-5f6d-46f7-946f-725f7368696d,rev?*
G04 #@! TF.SameCoordinates,Original*
G04 #@! TF.FileFunction,Soldermask,Bot*
G04 #@! TF.FilePolarity,Negative*
%FSLAX46Y46*%
G04 Gerber Fmt 4.6, Leading zero omitted, Abs format (unit mm)*
G04 Created by KiCad (PCBNEW (5.0.2-5)-5) date 2019 July 31, Wednesday 22:00:08*
%MOMM*%
%LPD*%
G01*
G04 APERTURE LIST*
%ADD10C,0.100000*%
G04 APERTURE END LIST*
D10*
G36*
X151798643Y-125594781D02*
X151944415Y-125655162D01*
X152075611Y-125742824D01*
X152187176Y-125854389D01*
X152274838Y-125985585D01*
X152335219Y-126131357D01*
X152366000Y-126286107D01*
X152366000Y-126443893D01*
X152335219Y-126598643D01*
X152274838Y-126744415D01*
X152187176Y-126875611D01*
X152075611Y-126987176D01*
X151944415Y-127074838D01*
X151798643Y-127135219D01*
X151643893Y-127166000D01*
X151486107Y-127166000D01*
X151331357Y-127135219D01*
X151185585Y-127074838D01*
X151054389Y-126987176D01*
X150942824Y-126875611D01*
X150855162Y-126744415D01*
X150794781Y-126598643D01*
X150764000Y-126443893D01*
X150764000Y-126286107D01*
X150794781Y-126131357D01*
X150855162Y-125985585D01*
X150942824Y-125854389D01*
X151054389Y-125742824D01*
X151185585Y-125655162D01*
X151331357Y-125594781D01*
X151486107Y-125564000D01*
X151643893Y-125564000D01*
X151798643Y-125594781D01*
X151798643Y-125594781D01*
G37*
G36*
X146918643Y-125594781D02*
X147064415Y-125655162D01*
X147195611Y-125742824D01*
X147307176Y-125854389D01*
X147394838Y-125985585D01*
X147455219Y-126131357D01*
X147486000Y-126286107D01*
X147486000Y-126443893D01*
X147455219Y-126598643D01*
X147394838Y-126744415D01*
X147307176Y-126875611D01*
X147195611Y-126987176D01*
X147064415Y-127074838D01*
X146918643Y-127135219D01*
X146763893Y-127166000D01*
X146606107Y-127166000D01*
X146451357Y-127135219D01*
X146305585Y-127074838D01*
X146174389Y-126987176D01*
X146062824Y-126875611D01*
X145975162Y-126744415D01*
X145914781Y-126598643D01*
X145884000Y-126443893D01*
X145884000Y-126286107D01*
X145914781Y-126131357D01*
X145975162Y-125985585D01*
X146062824Y-125854389D01*
X146174389Y-125742824D01*
X146305585Y-125655162D01*
X146451357Y-125594781D01*
X146606107Y-125564000D01*
X146763893Y-125564000D01*
X146918643Y-125594781D01*
X146918643Y-125594781D01*
G37*
G36*
X172836000Y-127116000D02*
X171334000Y-127116000D01*
X171334000Y-125614000D01*
X172836000Y-125614000D01*
X172836000Y-127116000D01*
X172836000Y-127116000D01*
G37*
G36*
X139300442Y-124254518D02*
X139366627Y-124261037D01*
X139479853Y-124295384D01*
X139536467Y-124312557D01*
X139656850Y-124376904D01*
X139692991Y-124396222D01*
X139728729Y-124425552D01*
X139830186Y-124508814D01*
X139913448Y-124610271D01*
X139942778Y-124646009D01*
X139942779Y-124646011D01*
X140026443Y-124802533D01*
X140026443Y-124802534D01*
X140077963Y-124972373D01*
X140095359Y-125149000D01*
X140077963Y-125325627D01*
X140043616Y-125438853D01*
X140026443Y-125495467D01*
X139989811Y-125564000D01*
X139942778Y-125651991D01*
X139913448Y-125687729D01*
X139830186Y-125789186D01*
X139750731Y-125854392D01*
X139692991Y-125901778D01*
X139692989Y-125901779D01*
X139536467Y-125985443D01*
X139479853Y-126002616D01*
X139366627Y-126036963D01*
X139300442Y-126043482D01*
X139234260Y-126050000D01*
X138895740Y-126050000D01*
X138829558Y-126043482D01*
X138763373Y-126036963D01*
X138650147Y-126002616D01*
X138593533Y-125985443D01*
X138437011Y-125901779D01*
X138437009Y-125901778D01*
X138379269Y-125854392D01*
X138299814Y-125789186D01*
X138216552Y-125687729D01*
X138187222Y-125651991D01*
X138140189Y-125564000D01*
X138103557Y-125495467D01*
X138086384Y-125438853D01*
X138052037Y-125325627D01*
X138034641Y-125149000D01*
X138052037Y-124972373D01*
X138103557Y-124802534D01*
X138103557Y-124802533D01*
X138187221Y-124646011D01*
X138187222Y-124646009D01*
X138216552Y-124610271D01*
X138299814Y-124508814D01*
X138401271Y-124425552D01*
X138437009Y-124396222D01*
X138473150Y-124376904D01*
X138593533Y-124312557D01*
X138650147Y-124295384D01*
X138763373Y-124261037D01*
X138829558Y-124254518D01*
X138895740Y-124248000D01*
X139234260Y-124248000D01*
X139300442Y-124254518D01*
X139300442Y-124254518D01*
G37*
G36*
X176778600Y-124197989D02*
X176811649Y-124208014D01*
X176842106Y-124224294D01*
X176868799Y-124246201D01*
X176890706Y-124272894D01*
X176906986Y-124303351D01*
X176917011Y-124336400D01*
X176921000Y-124376904D01*
X176921000Y-125813096D01*
X176917011Y-125853600D01*
X176906986Y-125886649D01*
X176890706Y-125917106D01*
X176868799Y-125943799D01*
X176842106Y-125965706D01*
X176811649Y-125981986D01*
X176778600Y-125992011D01*
X176738096Y-125996000D01*
X175051904Y-125996000D01*
X175011400Y-125992011D01*
X174978351Y-125981986D01*
X174947894Y-125965706D01*
X174921201Y-125943799D01*
X174899294Y-125917106D01*
X174883014Y-125886649D01*
X174872989Y-125853600D01*
X174869000Y-125813096D01*
X174869000Y-124376904D01*
X174872989Y-124336400D01*
X174883014Y-124303351D01*
X174899294Y-124272894D01*
X174921201Y-124246201D01*
X174947894Y-124224294D01*
X174978351Y-124208014D01*
X175011400Y-124197989D01*
X175051904Y-124194000D01*
X176738096Y-124194000D01*
X176778600Y-124197989D01*
X176778600Y-124197989D01*
G37*
G36*
X139300442Y-121754518D02*
X139366627Y-121761037D01*
X139479853Y-121795384D01*
X139536467Y-121812557D01*
X139591965Y-121842222D01*
X139692991Y-121896222D01*
X139728729Y-121925552D01*
X139830186Y-122008814D01*
X139898461Y-122092009D01*
X139942778Y-122146009D01*
X139942779Y-122146011D01*
X140026443Y-122302533D01*
X140026443Y-122302534D01*
X140077963Y-122472373D01*
X140095359Y-122649000D01*
X140077963Y-122825627D01*
X140043616Y-122938853D01*
X140026443Y-122995467D01*
X139971643Y-123097989D01*
X139942778Y-123151991D01*
X139913448Y-123187729D01*
X139830186Y-123289186D01*
X139758790Y-123347778D01*
X139692991Y-123401778D01*
X139692989Y-123401779D01*
X139536467Y-123485443D01*
X139479853Y-123502616D01*
X139366627Y-123536963D01*
X139300442Y-123543482D01*
X139234260Y-123550000D01*
X138895740Y-123550000D01*
X138829558Y-123543482D01*
X138763373Y-123536963D01*
X138650147Y-123502616D01*
X138593533Y-123485443D01*
X138437011Y-123401779D01*
X138437009Y-123401778D01*
X138371210Y-123347778D01*
X138299814Y-123289186D01*
X138216552Y-123187729D01*
X138187222Y-123151991D01*
X138158357Y-123097989D01*
X138103557Y-122995467D01*
X138086384Y-122938853D01*
X138052037Y-122825627D01*
X138034641Y-122649000D01*
X138052037Y-122472373D01*
X138103557Y-122302534D01*
X138103557Y-122302533D01*
X138187221Y-122146011D01*
X138187222Y-122146009D01*
X138231539Y-122092009D01*
X138299814Y-122008814D01*
X138401271Y-121925552D01*
X138437009Y-121896222D01*
X138538035Y-121842222D01*
X138593533Y-121812557D01*
X138650147Y-121795384D01*
X138763373Y-121761037D01*
X138829558Y-121754518D01*
X138895740Y-121748000D01*
X139234260Y-121748000D01*
X139300442Y-121754518D01*
X139300442Y-121754518D01*
G37*
G36*
X176130442Y-121700518D02*
X176196627Y-121707037D01*
X176309853Y-121741384D01*
X176366467Y-121758557D01*
X176467492Y-121812557D01*
X176522991Y-121842222D01*
X176554813Y-121868338D01*
X176660186Y-121954814D01*
X176743448Y-122056271D01*
X176772778Y-122092009D01*
X176772779Y-122092011D01*
X176856443Y-122248533D01*
X176856443Y-122248534D01*
X176907963Y-122418373D01*
X176925359Y-122595000D01*
X176907963Y-122771627D01*
X176891583Y-122825625D01*
X176856443Y-122941467D01*
X176827579Y-122995467D01*
X176772778Y-123097991D01*
X176743448Y-123133729D01*
X176660186Y-123235186D01*
X176558729Y-123318448D01*
X176522991Y-123347778D01*
X176522989Y-123347779D01*
X176366467Y-123431443D01*
X176309853Y-123448616D01*
X176196627Y-123482963D01*
X176130442Y-123489482D01*
X176064260Y-123496000D01*
X175725740Y-123496000D01*
X175659558Y-123489482D01*
X175593373Y-123482963D01*
X175480147Y-123448616D01*
X175423533Y-123431443D01*
X175267011Y-123347779D01*
X175267009Y-123347778D01*
X175231271Y-123318448D01*
X175129814Y-123235186D01*
X175046552Y-123133729D01*
X175017222Y-123097991D01*
X174962421Y-122995467D01*
X174933557Y-122941467D01*
X174898417Y-122825625D01*
X174882037Y-122771627D01*
X174864641Y-122595000D01*
X174882037Y-122418373D01*
X174933557Y-122248534D01*
X174933557Y-122248533D01*
X175017221Y-122092011D01*
X175017222Y-122092009D01*
X175046552Y-122056271D01*
X175129814Y-121954814D01*
X175235187Y-121868338D01*
X175267009Y-121842222D01*
X175322508Y-121812557D01*
X175423533Y-121758557D01*
X175480147Y-121741384D01*
X175593373Y-121707037D01*
X175659558Y-121700518D01*
X175725740Y-121694000D01*
X176064260Y-121694000D01*
X176130442Y-121700518D01*
X176130442Y-121700518D01*
G37*
G36*
X172217004Y-120545544D02*
X172304059Y-120562860D01*
X172440732Y-120619472D01*
X172440733Y-120619473D01*
X172563738Y-120701662D01*
X172668338Y-120806262D01*
X172668340Y-120806265D01*
X172750528Y-120929268D01*
X172807140Y-121065941D01*
X172836000Y-121211033D01*
X172836000Y-121358967D01*
X172807140Y-121504059D01*
X172750528Y-121640732D01*
X172750527Y-121640733D01*
X172668338Y-121763738D01*
X172563738Y-121868338D01*
X172563735Y-121868340D01*
X172440732Y-121950528D01*
X172304059Y-122007140D01*
X172217004Y-122024456D01*
X172158969Y-122036000D01*
X172011031Y-122036000D01*
X171952996Y-122024456D01*
X171865941Y-122007140D01*
X171729268Y-121950528D01*
X171606265Y-121868340D01*
X171606262Y-121868338D01*
X171501662Y-121763738D01*
X171419473Y-121640733D01*
X171419472Y-121640732D01*
X171362860Y-121504059D01*
X171334000Y-121358967D01*
X171334000Y-121211033D01*
X171362860Y-121065941D01*
X171419472Y-120929268D01*
X171501660Y-120806265D01*
X171501662Y-120806262D01*
X171606262Y-120701662D01*
X171729267Y-120619473D01*
X171729268Y-120619472D01*
X171865941Y-120562860D01*
X171952996Y-120545544D01*
X172011031Y-120534000D01*
X172158969Y-120534000D01*
X172217004Y-120545544D01*
X172217004Y-120545544D01*
G37*
G36*
X139300442Y-119254518D02*
X139366627Y-119261037D01*
X139479853Y-119295384D01*
X139536467Y-119312557D01*
X139591965Y-119342222D01*
X139692991Y-119396222D01*
X139728729Y-119425552D01*
X139830186Y-119508814D01*
X139898461Y-119592009D01*
X139942778Y-119646009D01*
X139942779Y-119646011D01*
X140026443Y-119802533D01*
X140026443Y-119802534D01*
X140077963Y-119972373D01*
X140095359Y-120149000D01*
X140077963Y-120325627D01*
X140043616Y-120438853D01*
X140026443Y-120495467D01*
X140005846Y-120534000D01*
X139942778Y-120651991D01*
X139913448Y-120687729D01*
X139830186Y-120789186D01*
X139758790Y-120847778D01*
X139692991Y-120901778D01*
X139692989Y-120901779D01*
X139536467Y-120985443D01*
X139479853Y-121002616D01*
X139366627Y-121036963D01*
X139300443Y-121043481D01*
X139234260Y-121050000D01*
X138895740Y-121050000D01*
X138829557Y-121043481D01*
X138763373Y-121036963D01*
X138650147Y-121002616D01*
X138593533Y-120985443D01*
X138437011Y-120901779D01*
X138437009Y-120901778D01*
X138371210Y-120847778D01*
X138299814Y-120789186D01*
X138216552Y-120687729D01*
X138187222Y-120651991D01*
X138124154Y-120534000D01*
X138103557Y-120495467D01*
X138086384Y-120438853D01*
X138052037Y-120325627D01*
X138034641Y-120149000D01*
X138052037Y-119972373D01*
X138103557Y-119802534D01*
X138103557Y-119802533D01*
X138187221Y-119646011D01*
X138187222Y-119646009D01*
X138231539Y-119592009D01*
X138299814Y-119508814D01*
X138401271Y-119425552D01*
X138437009Y-119396222D01*
X138538035Y-119342222D01*
X138593533Y-119312557D01*
X138650147Y-119295384D01*
X138763373Y-119261037D01*
X138829558Y-119254518D01*
X138895740Y-119248000D01*
X139234260Y-119248000D01*
X139300442Y-119254518D01*
X139300442Y-119254518D01*
G37*
G36*
X176130443Y-119200519D02*
X176196627Y-119207037D01*
X176309853Y-119241384D01*
X176366467Y-119258557D01*
X176467492Y-119312557D01*
X176522991Y-119342222D01*
X176558729Y-119371552D01*
X176660186Y-119454814D01*
X176743448Y-119556271D01*
X176772778Y-119592009D01*
X176772779Y-119592011D01*
X176856443Y-119748533D01*
X176856443Y-119748534D01*
X176907963Y-119918373D01*
X176925359Y-120095000D01*
X176907963Y-120271627D01*
X176891583Y-120325625D01*
X176856443Y-120441467D01*
X176827579Y-120495467D01*
X176772778Y-120597991D01*
X176755149Y-120619472D01*
X176660186Y-120735186D01*
X176558729Y-120818448D01*
X176522991Y-120847778D01*
X176522989Y-120847779D01*
X176366467Y-120931443D01*
X176309853Y-120948616D01*
X176196627Y-120982963D01*
X176130442Y-120989482D01*
X176064260Y-120996000D01*
X175725740Y-120996000D01*
X175659558Y-120989482D01*
X175593373Y-120982963D01*
X175480147Y-120948616D01*
X175423533Y-120931443D01*
X175267011Y-120847779D01*
X175267009Y-120847778D01*
X175231271Y-120818448D01*
X175129814Y-120735186D01*
X175034851Y-120619472D01*
X175017222Y-120597991D01*
X174962421Y-120495467D01*
X174933557Y-120441467D01*
X174898417Y-120325625D01*
X174882037Y-120271627D01*
X174864641Y-120095000D01*
X174882037Y-119918373D01*
X174933557Y-119748534D01*
X174933557Y-119748533D01*
X175017221Y-119592011D01*
X175017222Y-119592009D01*
X175046552Y-119556271D01*
X175129814Y-119454814D01*
X175231271Y-119371552D01*
X175267009Y-119342222D01*
X175322508Y-119312557D01*
X175423533Y-119258557D01*
X175480147Y-119241384D01*
X175593373Y-119207037D01*
X175659557Y-119200519D01*
X175725740Y-119194000D01*
X176064260Y-119194000D01*
X176130443Y-119200519D01*
X176130443Y-119200519D01*
G37*
G36*
X139300442Y-116754518D02*
X139366627Y-116761037D01*
X139456633Y-116788340D01*
X139536467Y-116812557D01*
X139644921Y-116870528D01*
X139692991Y-116896222D01*
X139728729Y-116925552D01*
X139830186Y-117008814D01*
X139898461Y-117092009D01*
X139942778Y-117146009D01*
X139942779Y-117146011D01*
X140026443Y-117302533D01*
X140026443Y-117302534D01*
X140077963Y-117472373D01*
X140095359Y-117649000D01*
X140077963Y-117825627D01*
X140043616Y-117938853D01*
X140026443Y-117995467D01*
X139971643Y-118097989D01*
X139942778Y-118151991D01*
X139913448Y-118187729D01*
X139830186Y-118289186D01*
X139758790Y-118347778D01*
X139692991Y-118401778D01*
X139692989Y-118401779D01*
X139536467Y-118485443D01*
X139479853Y-118502616D01*
X139366627Y-118536963D01*
X139300442Y-118543482D01*
X139234260Y-118550000D01*
X138895740Y-118550000D01*
X138829558Y-118543482D01*
X138763373Y-118536963D01*
X138650147Y-118502616D01*
X138593533Y-118485443D01*
X138437011Y-118401779D01*
X138437009Y-118401778D01*
X138371210Y-118347778D01*
X138299814Y-118289186D01*
X138216552Y-118187729D01*
X138187222Y-118151991D01*
X138158357Y-118097989D01*
X138103557Y-117995467D01*
X138086384Y-117938853D01*
X138052037Y-117825627D01*
X138034641Y-117649000D01*
X138052037Y-117472373D01*
X138103557Y-117302534D01*
X138103557Y-117302533D01*
X138187221Y-117146011D01*
X138187222Y-117146009D01*
X138231539Y-117092009D01*
X138299814Y-117008814D01*
X138401271Y-116925552D01*
X138437009Y-116896222D01*
X138485079Y-116870528D01*
X138593533Y-116812557D01*
X138673367Y-116788340D01*
X138763373Y-116761037D01*
X138829558Y-116754518D01*
X138895740Y-116748000D01*
X139234260Y-116748000D01*
X139300442Y-116754518D01*
X139300442Y-116754518D01*
G37*
G36*
X176130442Y-116700518D02*
X176196627Y-116707037D01*
X176309853Y-116741384D01*
X176366467Y-116758557D01*
X176422186Y-116788340D01*
X176522991Y-116842222D01*
X176557480Y-116870527D01*
X176660186Y-116954814D01*
X176743448Y-117056271D01*
X176772778Y-117092009D01*
X176772779Y-117092011D01*
X176856443Y-117248533D01*
X176856443Y-117248534D01*
X176907963Y-117418373D01*
X176925359Y-117595000D01*
X176907963Y-117771627D01*
X176891583Y-117825625D01*
X176856443Y-117941467D01*
X176827579Y-117995467D01*
X176772778Y-118097991D01*
X176743448Y-118133729D01*
X176660186Y-118235186D01*
X176558729Y-118318448D01*
X176522991Y-118347778D01*
X176522989Y-118347779D01*
X176366467Y-118431443D01*
X176309853Y-118448616D01*
X176196627Y-118482963D01*
X176130442Y-118489482D01*
X176064260Y-118496000D01*
X175725740Y-118496000D01*
X175659558Y-118489482D01*
X175593373Y-118482963D01*
X175480147Y-118448616D01*
X175423533Y-118431443D01*
X175267011Y-118347779D01*
X175267009Y-118347778D01*
X175231271Y-118318448D01*
X175129814Y-118235186D01*
X175046552Y-118133729D01*
X175017222Y-118097991D01*
X174962421Y-117995467D01*
X174933557Y-117941467D01*
X174898417Y-117825625D01*
X174882037Y-117771627D01*
X174864641Y-117595000D01*
X174882037Y-117418373D01*
X174933557Y-117248534D01*
X174933557Y-117248533D01*
X175017221Y-117092011D01*
X175017222Y-117092009D01*
X175046552Y-117056271D01*
X175129814Y-116954814D01*
X175232520Y-116870527D01*
X175267009Y-116842222D01*
X175367814Y-116788340D01*
X175423533Y-116758557D01*
X175480147Y-116741384D01*
X175593373Y-116707037D01*
X175659558Y-116700518D01*
X175725740Y-116694000D01*
X176064260Y-116694000D01*
X176130442Y-116700518D01*
X176130442Y-116700518D01*
G37*
G36*
X172217004Y-115465544D02*
X172304059Y-115482860D01*
X172440732Y-115539472D01*
X172440733Y-115539473D01*
X172563738Y-115621662D01*
X172668338Y-115726262D01*
X172668340Y-115726265D01*
X172750528Y-115849268D01*
X172807140Y-115985941D01*
X172836000Y-116131033D01*
X172836000Y-116278967D01*
X172807140Y-116424059D01*
X172750528Y-116560732D01*
X172750527Y-116560733D01*
X172668338Y-116683738D01*
X172563738Y-116788338D01*
X172563735Y-116788340D01*
X172440732Y-116870528D01*
X172304059Y-116927140D01*
X172217004Y-116944456D01*
X172158969Y-116956000D01*
X172011031Y-116956000D01*
X171952996Y-116944456D01*
X171865941Y-116927140D01*
X171729268Y-116870528D01*
X171606265Y-116788340D01*
X171606262Y-116788338D01*
X171501662Y-116683738D01*
X171419473Y-116560733D01*
X171419472Y-116560732D01*
X171362860Y-116424059D01*
X171334000Y-116278967D01*
X171334000Y-116131033D01*
X171362860Y-115985941D01*
X171419472Y-115849268D01*
X171501660Y-115726265D01*
X171501662Y-115726262D01*
X171606262Y-115621662D01*
X171729267Y-115539473D01*
X171729268Y-115539472D01*
X171865941Y-115482860D01*
X171952996Y-115465544D01*
X172011031Y-115454000D01*
X172158969Y-115454000D01*
X172217004Y-115465544D01*
X172217004Y-115465544D01*
G37*
G36*
X139300442Y-114254518D02*
X139366627Y-114261037D01*
X139479853Y-114295384D01*
X139536467Y-114312557D01*
X139591965Y-114342222D01*
X139692991Y-114396222D01*
X139728729Y-114425552D01*
X139830186Y-114508814D01*
X139898461Y-114592009D01*
X139942778Y-114646009D01*
X139942779Y-114646011D01*
X140026443Y-114802533D01*
X140026443Y-114802534D01*
X140077963Y-114972373D01*
X140095359Y-115149000D01*
X140077963Y-115325627D01*
X140043616Y-115438853D01*
X140026443Y-115495467D01*
X140002921Y-115539472D01*
X139942778Y-115651991D01*
X139913448Y-115687729D01*
X139830186Y-115789186D01*
X139728729Y-115872448D01*
X139692991Y-115901778D01*
X139692989Y-115901779D01*
X139536467Y-115985443D01*
X139479853Y-116002616D01*
X139366627Y-116036963D01*
X139300442Y-116043482D01*
X139234260Y-116050000D01*
X138895740Y-116050000D01*
X138829558Y-116043482D01*
X138763373Y-116036963D01*
X138650147Y-116002616D01*
X138593533Y-115985443D01*
X138437011Y-115901779D01*
X138437009Y-115901778D01*
X138401271Y-115872448D01*
X138299814Y-115789186D01*
X138216552Y-115687729D01*
X138187222Y-115651991D01*
X138127079Y-115539472D01*
X138103557Y-115495467D01*
X138086384Y-115438853D01*
X138052037Y-115325627D01*
X138034641Y-115149000D01*
X138052037Y-114972373D01*
X138103557Y-114802534D01*
X138103557Y-114802533D01*
X138187221Y-114646011D01*
X138187222Y-114646009D01*
X138231539Y-114592009D01*
X138299814Y-114508814D01*
X138401271Y-114425552D01*
X138437009Y-114396222D01*
X138538035Y-114342222D01*
X138593533Y-114312557D01*
X138650147Y-114295384D01*
X138763373Y-114261037D01*
X138829558Y-114254518D01*
X138895740Y-114248000D01*
X139234260Y-114248000D01*
X139300442Y-114254518D01*
X139300442Y-114254518D01*
G37*
G36*
X176130442Y-114200518D02*
X176196627Y-114207037D01*
X176309853Y-114241384D01*
X176366467Y-114258557D01*
X176467492Y-114312557D01*
X176522991Y-114342222D01*
X176558729Y-114371552D01*
X176660186Y-114454814D01*
X176743448Y-114556271D01*
X176772778Y-114592009D01*
X176772779Y-114592011D01*
X176856443Y-114748533D01*
X176856443Y-114748534D01*
X176907963Y-114918373D01*
X176925359Y-115095000D01*
X176907963Y-115271627D01*
X176891583Y-115325625D01*
X176856443Y-115441467D01*
X176827579Y-115495467D01*
X176772778Y-115597991D01*
X176743448Y-115633729D01*
X176660186Y-115735186D01*
X176558729Y-115818448D01*
X176522991Y-115847778D01*
X176522989Y-115847779D01*
X176366467Y-115931443D01*
X176309853Y-115948616D01*
X176196627Y-115982963D01*
X176130442Y-115989482D01*
X176064260Y-115996000D01*
X175725740Y-115996000D01*
X175659558Y-115989482D01*
X175593373Y-115982963D01*
X175480147Y-115948616D01*
X175423533Y-115931443D01*
X175267011Y-115847779D01*
X175267009Y-115847778D01*
X175231271Y-115818448D01*
X175129814Y-115735186D01*
X175046552Y-115633729D01*
X175017222Y-115597991D01*
X174962421Y-115495467D01*
X174933557Y-115441467D01*
X174898417Y-115325625D01*
X174882037Y-115271627D01*
X174864641Y-115095000D01*
X174882037Y-114918373D01*
X174933557Y-114748534D01*
X174933557Y-114748533D01*
X175017221Y-114592011D01*
X175017222Y-114592009D01*
X175046552Y-114556271D01*
X175129814Y-114454814D01*
X175231271Y-114371552D01*
X175267009Y-114342222D01*
X175322508Y-114312557D01*
X175423533Y-114258557D01*
X175480147Y-114241384D01*
X175593373Y-114207037D01*
X175659558Y-114200518D01*
X175725740Y-114194000D01*
X176064260Y-114194000D01*
X176130442Y-114200518D01*
X176130442Y-114200518D01*
G37*
G36*
X139948600Y-111751989D02*
X139981649Y-111762014D01*
X140012106Y-111778294D01*
X140038799Y-111800201D01*
X140060706Y-111826894D01*
X140076986Y-111857351D01*
X140087011Y-111890400D01*
X140091000Y-111930904D01*
X140091000Y-113367096D01*
X140087011Y-113407600D01*
X140076986Y-113440649D01*
X140060706Y-113471106D01*
X140038799Y-113497799D01*
X140012106Y-113519706D01*
X139981649Y-113535986D01*
X139948600Y-113546011D01*
X139908096Y-113550000D01*
X138221904Y-113550000D01*
X138181400Y-113546011D01*
X138148351Y-113535986D01*
X138117894Y-113519706D01*
X138091201Y-113497799D01*
X138069294Y-113471106D01*
X138053014Y-113440649D01*
X138042989Y-113407600D01*
X138039000Y-113367096D01*
X138039000Y-111930904D01*
X138042989Y-111890400D01*
X138053014Y-111857351D01*
X138069294Y-111826894D01*
X138091201Y-111800201D01*
X138117894Y-111778294D01*
X138148351Y-111762014D01*
X138181400Y-111751989D01*
X138221904Y-111748000D01*
X139908096Y-111748000D01*
X139948600Y-111751989D01*
X139948600Y-111751989D01*
G37*
G36*
X176130443Y-111700519D02*
X176196627Y-111707037D01*
X176309853Y-111741384D01*
X176366467Y-111758557D01*
X176494315Y-111826894D01*
X176522991Y-111842222D01*
X176551689Y-111865774D01*
X176660186Y-111954814D01*
X176707937Y-112013000D01*
X176772778Y-112092009D01*
X176772779Y-112092011D01*
X176856443Y-112248533D01*
X176856443Y-112248534D01*
X176907963Y-112418373D01*
X176925359Y-112595000D01*
X176907963Y-112771627D01*
X176873616Y-112884853D01*
X176856443Y-112941467D01*
X176782348Y-113080087D01*
X176772778Y-113097991D01*
X176743448Y-113133729D01*
X176660186Y-113235186D01*
X176558729Y-113318448D01*
X176522991Y-113347778D01*
X176522989Y-113347779D01*
X176366467Y-113431443D01*
X176336118Y-113440649D01*
X176196627Y-113482963D01*
X176130443Y-113489481D01*
X176064260Y-113496000D01*
X175725740Y-113496000D01*
X175659557Y-113489481D01*
X175593373Y-113482963D01*
X175453882Y-113440649D01*
X175423533Y-113431443D01*
X175267011Y-113347779D01*
X175267009Y-113347778D01*
X175231271Y-113318448D01*
X175129814Y-113235186D01*
X175046552Y-113133729D01*
X175017222Y-113097991D01*
X175007652Y-113080087D01*
X174933557Y-112941467D01*
X174916384Y-112884853D01*
X174882037Y-112771627D01*
X174864641Y-112595000D01*
X174882037Y-112418373D01*
X174933557Y-112248534D01*
X174933557Y-112248533D01*
X175017221Y-112092011D01*
X175017222Y-112092009D01*
X175082063Y-112013000D01*
X175129814Y-111954814D01*
X175238311Y-111865774D01*
X175267009Y-111842222D01*
X175295685Y-111826894D01*
X175423533Y-111758557D01*
X175480147Y-111741384D01*
X175593373Y-111707037D01*
X175659557Y-111700519D01*
X175725740Y-111694000D01*
X176064260Y-111694000D01*
X176130443Y-111700519D01*
X176130443Y-111700519D01*
G37*
G36*
X172217004Y-110385544D02*
X172304059Y-110402860D01*
X172440732Y-110459472D01*
X172440733Y-110459473D01*
X172563738Y-110541662D01*
X172668338Y-110646262D01*
X172668340Y-110646265D01*
X172750528Y-110769268D01*
X172807140Y-110905941D01*
X172824456Y-110992996D01*
X172836000Y-111051031D01*
X172836000Y-111198969D01*
X172832320Y-111217467D01*
X172807140Y-111344059D01*
X172750528Y-111480732D01*
X172750527Y-111480733D01*
X172668338Y-111603738D01*
X172563738Y-111708338D01*
X172563735Y-111708340D01*
X172440732Y-111790528D01*
X172304059Y-111847140D01*
X172217004Y-111864456D01*
X172158969Y-111876000D01*
X172011031Y-111876000D01*
X171952996Y-111864456D01*
X171865941Y-111847140D01*
X171729268Y-111790528D01*
X171606265Y-111708340D01*
X171606262Y-111708338D01*
X171501662Y-111603738D01*
X171419473Y-111480733D01*
X171419472Y-111480732D01*
X171362860Y-111344059D01*
X171337680Y-111217467D01*
X171334000Y-111198969D01*
X171334000Y-111051031D01*
X171345544Y-110992996D01*
X171362860Y-110905941D01*
X171419472Y-110769268D01*
X171501660Y-110646265D01*
X171501662Y-110646262D01*
X171606262Y-110541662D01*
X171729267Y-110459473D01*
X171729268Y-110459472D01*
X171865941Y-110402860D01*
X171952996Y-110385544D01*
X172011031Y-110374000D01*
X172158969Y-110374000D01*
X172217004Y-110385544D01*
X172217004Y-110385544D01*
G37*
G36*
X155939443Y-109976519D02*
X156005627Y-109983037D01*
X156118853Y-110017384D01*
X156175467Y-110034557D01*
X156314087Y-110108652D01*
X156331991Y-110118222D01*
X156367729Y-110147552D01*
X156469186Y-110230814D01*
X156552448Y-110332271D01*
X156581778Y-110368009D01*
X156581779Y-110368011D01*
X156665443Y-110524533D01*
X156665443Y-110524534D01*
X156716963Y-110694373D01*
X156734359Y-110871000D01*
X156716963Y-111047627D01*
X156682616Y-111160853D01*
X156665443Y-111217467D01*
X156597779Y-111344056D01*
X156581778Y-111373991D01*
X156552448Y-111409729D01*
X156469186Y-111511186D01*
X156367729Y-111594448D01*
X156331991Y-111623778D01*
X156331989Y-111623779D01*
X156175467Y-111707443D01*
X156118853Y-111724616D01*
X156005627Y-111758963D01*
X155939442Y-111765482D01*
X155873260Y-111772000D01*
X155784740Y-111772000D01*
X155718558Y-111765482D01*
X155652373Y-111758963D01*
X155539147Y-111724616D01*
X155482533Y-111707443D01*
X155326011Y-111623779D01*
X155326009Y-111623778D01*
X155290271Y-111594448D01*
X155188814Y-111511186D01*
X155105552Y-111409729D01*
X155076222Y-111373991D01*
X155060221Y-111344056D01*
X154992557Y-111217467D01*
X154975384Y-111160853D01*
X154941037Y-111047627D01*
X154923641Y-110871000D01*
X154941037Y-110694373D01*
X154992557Y-110524534D01*
X154992557Y-110524533D01*
X155076221Y-110368011D01*
X155076222Y-110368009D01*
X155105552Y-110332271D01*
X155188814Y-110230814D01*
X155290271Y-110147552D01*
X155326009Y-110118222D01*
X155343913Y-110108652D01*
X155482533Y-110034557D01*
X155539147Y-110017384D01*
X155652373Y-109983037D01*
X155718557Y-109976519D01*
X155784740Y-109970000D01*
X155873260Y-109970000D01*
X155939443Y-109976519D01*
X155939443Y-109976519D01*
G37*
G36*
X159270000Y-111772000D02*
X157468000Y-111772000D01*
X157468000Y-109970000D01*
X159270000Y-109970000D01*
X159270000Y-111772000D01*
X159270000Y-111772000D01*
G37*
G36*
X153399443Y-109976519D02*
X153465627Y-109983037D01*
X153578853Y-110017384D01*
X153635467Y-110034557D01*
X153774087Y-110108652D01*
X153791991Y-110118222D01*
X153827729Y-110147552D01*
X153929186Y-110230814D01*
X154012448Y-110332271D01*
X154041778Y-110368009D01*
X154041779Y-110368011D01*
X154125443Y-110524533D01*
X154125443Y-110524534D01*
X154176963Y-110694373D01*
X154194359Y-110871000D01*
X154176963Y-111047627D01*
X154142616Y-111160853D01*
X154125443Y-111217467D01*
X154057779Y-111344056D01*
X154041778Y-111373991D01*
X154012448Y-111409729D01*
X153929186Y-111511186D01*
X153827729Y-111594448D01*
X153791991Y-111623778D01*
X153791989Y-111623779D01*
X153635467Y-111707443D01*
X153578853Y-111724616D01*
X153465627Y-111758963D01*
X153399442Y-111765482D01*
X153333260Y-111772000D01*
X153244740Y-111772000D01*
X153178558Y-111765482D01*
X153112373Y-111758963D01*
X152999147Y-111724616D01*
X152942533Y-111707443D01*
X152786011Y-111623779D01*
X152786009Y-111623778D01*
X152750271Y-111594448D01*
X152648814Y-111511186D01*
X152565552Y-111409729D01*
X152536222Y-111373991D01*
X152520221Y-111344056D01*
X152452557Y-111217467D01*
X152435384Y-111160853D01*
X152401037Y-111047627D01*
X152383641Y-110871000D01*
X152401037Y-110694373D01*
X152452557Y-110524534D01*
X152452557Y-110524533D01*
X152536221Y-110368011D01*
X152536222Y-110368009D01*
X152565552Y-110332271D01*
X152648814Y-110230814D01*
X152750271Y-110147552D01*
X152786009Y-110118222D01*
X152803913Y-110108652D01*
X152942533Y-110034557D01*
X152999147Y-110017384D01*
X153112373Y-109983037D01*
X153178557Y-109976519D01*
X153244740Y-109970000D01*
X153333260Y-109970000D01*
X153399443Y-109976519D01*
X153399443Y-109976519D01*
G37*
M02*
